<svg width="162" height="48" fill="none" xmlns="http://www.w3.org/2000/svg"><g clip-path="url(#clip0)"><path fill-rule="evenodd" clip-rule="evenodd" d="M155.945 47.983H5.998C2.639 47.983 0 45.344 0 41.985V5.998C0 2.639 2.64 0 5.998 0h149.947c3.359 0 5.998 2.64 5.998 5.998v35.987c0 3.36-2.639 5.998-5.998 5.998z" fill="#000"/><path d="M155.945.96c2.759 0 5.039 2.279 5.039 5.038v35.987c0 2.76-2.28 5.038-5.039 5.038H5.998c-2.76 0-5.038-2.279-5.038-5.038V5.998C.96 3.238 3.239.96 5.998.96h149.947zm0-.96H5.998C2.639 0 0 2.759 0 5.998v35.987c0 3.36 2.64 5.998 5.998 5.998h149.947c3.359 0 5.998-2.639 5.998-5.998V5.998c0-3.239-2.639-5.998-5.998-5.998z" fill="#A6A6A6"/><path d="M56.86 12.236c0 .96-.24 1.799-.84 2.399-.72.72-1.56 1.08-2.639 1.08-1.08 0-1.919-.36-2.639-1.08-.72-.72-1.08-1.56-1.08-2.64s.36-1.919 1.08-2.639c.72-.72 1.56-1.08 2.64-1.08.48 0 .959.12 1.439.36.48.24.84.48 1.08.84l-.6.6c-.48-.6-1.08-.84-1.92-.84-.72 0-1.44.24-1.919.84-.6.48-.84 1.2-.84 2.04 0 .84.24 1.559.84 2.039.6.48 1.2.84 1.92.84.839 0 1.439-.24 2.039-.84.36-.36.6-.84.6-1.44h-2.64v-.96h3.48v.48zm5.518-3H59.14v2.28h3v.84h-3v2.279h3.24v.96h-4.2V8.396h4.2v.84zm3.959 6.358h-.96V9.237h-2.04v-.84h5.039v.84h-2.04v6.357zm5.518 0V8.397h.96v7.197h-.96zm5.038 0h-.96V9.237h-2.039v-.84h4.918v.84h-2.039v6.357h.12zm11.396-.96c-.72.72-1.56 1.08-2.639 1.08-1.08 0-1.92-.36-2.64-1.08-.719-.72-1.079-1.559-1.079-2.638 0-1.08.36-1.92 1.08-2.64.72-.72 1.56-1.08 2.639-1.08 1.08 0 1.92.36 2.64 1.08.719.72 1.079 1.56 1.079 2.64s-.36 1.919-1.08 2.639zm-4.558-.6c.48.48 1.2.84 1.919.84.72 0 1.44-.24 1.92-.84.48-.479.839-1.199.839-2.038 0-.84-.24-1.56-.84-2.04-.48-.48-1.2-.84-1.919-.84-.72 0-1.44.24-1.92.84-.48.48-.839 1.2-.839 2.04 0 .84.24 1.559.84 2.039zm6.957 1.56V8.397h1.08l3.479 5.638V8.397h.96v7.197h-.96l-3.72-5.878v5.878h-.839zM81.691 26.15c-2.879 0-5.158 2.16-5.158 5.159a5.12 5.12 0 0 0 5.158 5.158c2.88 0 5.159-2.16 5.159-5.158 0-3.119-2.28-5.158-5.159-5.158zm0 8.158c-1.559 0-2.879-1.32-2.879-3.12 0-1.798 1.32-3.118 2.88-3.118 1.559 0 2.878 1.2 2.878 3.119 0 1.8-1.32 3.119-2.879 3.119zM70.535 26.15c-2.879 0-5.158 2.159-5.158 5.158a5.12 5.12 0 0 0 5.158 5.158c2.88 0 5.159-2.16 5.159-5.158 0-3.119-2.28-5.158-5.159-5.158zm0 8.157c-1.56 0-2.879-1.32-2.879-3.12 0-1.798 1.32-3.118 2.88-3.118 1.559 0 2.878 1.2 2.878 3.119 0 1.8-1.32 3.119-2.879 3.119zM57.22 27.71v2.16h5.158c-.12 1.199-.6 2.159-1.2 2.758-.72.72-1.919 1.56-3.958 1.56-3.239 0-5.638-2.52-5.638-5.758 0-3.239 2.52-5.758 5.638-5.758 1.68 0 2.999.72 3.959 1.56l1.559-1.56c-1.32-1.2-2.999-2.16-5.398-2.16-4.319 0-8.037 3.6-8.037 7.918s3.718 7.917 8.037 7.917c2.4 0 4.078-.72 5.518-2.28 1.44-1.439 1.92-3.478 1.92-5.037 0-.48 0-.96-.12-1.32H57.22zm54.461 1.68c-.48-1.2-1.679-3.24-4.319-3.24-2.639 0-4.798 2.04-4.798 5.159 0 2.879 2.159 5.158 5.038 5.158 2.28 0 3.719-1.44 4.199-2.28l-1.68-1.199c-.599.84-1.319 1.44-2.519 1.44-1.199 0-1.919-.48-2.519-1.56l6.838-2.879-.24-.6zm-6.958 1.679c0-1.92 1.56-2.999 2.639-2.999.84 0 1.68.48 1.92 1.08l-4.559 1.919zm-5.638 4.918h2.28V20.992h-2.28v14.995zm-3.598-8.757c-.6-.6-1.56-1.2-2.76-1.2-2.519 0-4.918 2.28-4.918 5.159s2.28 5.038 4.919 5.038c1.2 0 2.159-.6 2.639-1.2h.12v.72c0 1.92-1.08 3-2.76 3-1.319 0-2.279-.96-2.519-1.8l-1.919.84c.6 1.32 2.04 2.999 4.558 2.999 2.64 0 4.799-1.56 4.799-5.279v-9.116h-2.16v.84zm-2.64 7.078c-1.559 0-2.878-1.32-2.878-3.12 0-1.798 1.32-3.118 2.879-3.118s2.758 1.32 2.758 3.119c0 1.8-1.199 3.119-2.758 3.119zm29.27-13.316h-5.398v14.995h2.279V30.35h3.119c2.519 0 4.919-1.8 4.919-4.678 0-2.88-2.4-4.678-4.919-4.678zm.12 7.198h-3.239v-5.158h3.239c1.68 0 2.639 1.44 2.639 2.519-.12 1.32-1.079 2.639-2.639 2.639zm13.795-2.16c-1.679 0-3.358.72-3.958 2.28l2.039.84c.48-.84 1.2-1.08 2.039-1.08 1.2 0 2.28.72 2.4 1.92v.12c-.36-.24-1.32-.6-2.28-.6-2.159 0-4.318 1.2-4.318 3.358 0 2.04 1.799 3.36 3.719 3.36 1.559 0 2.279-.72 2.879-1.44h.119v1.2h2.16v-5.759c-.24-2.639-2.279-4.198-4.799-4.198zm-.24 8.278c-.719 0-1.799-.36-1.799-1.32 0-1.2 1.32-1.56 2.399-1.56.96 0 1.44.24 2.04.48-.24 1.44-1.44 2.4-2.64 2.4zm12.596-7.917l-2.519 6.477h-.12l-2.639-6.477h-2.399l3.958 9.116-2.279 5.039h2.279l6.118-14.155h-2.399zm-20.153 9.596h2.279V20.992h-2.279v14.995z" fill="#fff"/><path fill-rule="evenodd" clip-rule="evenodd" d="M12.476 8.997c-.36.36-.48.96-.48 1.679v26.51c0 .72.24 1.32.6 1.68l.12.12L27.59 24.111v-.24L12.476 8.997z" fill="url(#paint0_linear)"/><path fill-rule="evenodd" clip-rule="evenodd" d="M32.389 29.15l-4.919-4.918v-.36l4.919-4.918.12.12 5.878 3.358c1.68.96 1.68 2.52 0 3.48l-5.998 3.238z" fill="url(#paint1_linear)"/><path fill-rule="evenodd" clip-rule="evenodd" d="M32.509 29.03l-5.038-5.038-14.995 14.994c.6.6 1.44.6 2.519.12L32.509 29.03z" fill="url(#paint2_linear)"/><path fill-rule="evenodd" clip-rule="evenodd" d="M32.509 18.953L14.995 8.997c-1.08-.6-1.92-.48-2.52.12l14.996 14.875 5.038-5.039z" fill="url(#paint3_linear)"/><path opacity=".2" fill-rule="evenodd" clip-rule="evenodd" d="M32.389 28.91l-17.394 9.837c-.96.6-1.8.48-2.4 0l-.12.12.12.12c.6.48 1.44.6 2.4 0L32.389 28.91z" fill="#000"/><path opacity=".12" d="M12.476 38.747c-.36-.36-.48-.96-.48-1.68v.12c0 .72.24 1.32.6 1.68v-.12h-.12zm25.91-13.196L32.39 28.91l.12.12 5.878-3.359c.84-.48 1.2-1.08 1.2-1.68 0 .6-.48 1.08-1.2 1.56z" fill="#000"/><path opacity=".25" fill-rule="evenodd" clip-rule="evenodd" d="M14.995 9.117l23.392 13.315c.72.48 1.2.96 1.2 1.56 0-.6-.36-1.2-1.2-1.68L14.995 8.997c-1.68-.96-3-.24-3 1.68v.12c0-1.8 1.32-2.64 3-1.68z" fill="#fff"/></g><defs><linearGradient id="paint0_linear" x1="26.151" y1="10.448" x2="2.318" y2="16.892" gradientUnits="userSpaceOnUse"><stop stop-color="#00A0FF"/><stop offset=".007" stop-color="#00A1FF"/><stop offset=".26" stop-color="#00BEFF"/><stop offset=".512" stop-color="#00D2FF"/><stop offset=".76" stop-color="#00DFFF"/><stop offset="1" stop-color="#00E3FF"/></linearGradient><linearGradient id="paint1_linear" x1="40.587" y1="23.993" x2="11.56" y2="23.993" gradientUnits="userSpaceOnUse"><stop stop-color="#FFE000"/><stop offset=".409" stop-color="#FFBD00"/><stop offset=".775" stop-color="orange"/><stop offset="1" stop-color="#FF9C00"/></linearGradient><linearGradient id="paint2_linear" x1="29.782" y1="26.746" x2="10.63" y2="58.9" gradientUnits="userSpaceOnUse"><stop stop-color="#FF3A44"/><stop offset="1" stop-color="#C31162"/></linearGradient><linearGradient id="paint3_linear" x1="8.753" y1=".211" x2="17.238" y2="14.59" gradientUnits="userSpaceOnUse"><stop stop-color="#32A071"/><stop offset=".069" stop-color="#2DA771"/><stop offset=".476" stop-color="#15CF74"/><stop offset=".801" stop-color="#06E775"/><stop offset="1" stop-color="#00F076"/></linearGradient><clipPath id="clip0"><path fill="#fff" d="M0 0h161.943v48H0z"/></clipPath></defs></svg>