<svg width="162" height="48" fill="none" xmlns="http://www.w3.org/2000/svg"><g clip-path="url(#clip0)"><path d="M160.912 42.332a4.585 4.585 0 0 1-1.349 3.252 4.587 4.587 0 0 1-3.254 1.345H5.677a4.605 4.605 0 0 1-4.609-4.597V5.673a4.608 4.608 0 0 1 4.61-4.603h150.63a4.61 4.61 0 0 1 3.255 1.349 4.608 4.608 0 0 1 1.348 3.255l.001 36.658z" fill="#fff"/><path d="M156.309 47.998H5.677A5.68 5.68 0 0 1 0 42.332V5.674A5.68 5.68 0 0 1 5.677.002h150.631a5.686 5.686 0 0 1 5.677 5.672v36.658c.003 3.125-2.549 5.666-5.676 5.666z" fill="#A6A6A6"/><path d="M160.912 42.332a4.585 4.585 0 0 1-1.349 3.252 4.587 4.587 0 0 1-3.254 1.345H5.677a4.605 4.605 0 0 1-4.609-4.597V5.673a4.608 4.608 0 0 1 4.61-4.603h150.63a4.61 4.61 0 0 1 3.255 1.349 4.608 4.608 0 0 1 1.348 3.255l.001 36.658z" fill="#000"/><path d="M36.17 23.747c-.035-3.868 3.168-5.75 3.315-5.837-1.814-2.645-4.626-3.006-5.614-3.035-2.361-.248-4.652 1.413-5.855 1.413-1.227 0-3.08-1.389-5.076-1.348-2.57.04-4.973 1.527-6.29 3.836-2.721 4.709-.692 11.628 1.914 15.434 1.304 1.865 2.827 3.945 4.822 3.872 1.95-.08 2.68-1.242 5.033-1.242 2.333 0 3.017 1.242 5.051 1.195 2.094-.032 3.412-1.872 4.67-3.753 1.507-2.135 2.112-4.24 2.136-4.349-.048-.016-4.065-1.55-4.106-6.186zm-3.842-11.375c1.05-1.312 1.768-3.097 1.568-4.908-1.518.067-3.418 1.05-4.511 2.333-.968 1.13-1.832 2.984-1.61 4.727 1.707.127 3.459-.86 4.553-2.152z" fill="#fff"/><path d="M156.309.002H75.626l31.602 47.996h49.081a5.683 5.683 0 0 0 5.677-5.67V5.674a5.682 5.682 0 0 0-5.677-5.672z" fill="url(#paint0_linear)"/><path d="M64.427 37.814h-2.726l-1.493-4.692h-5.192l-1.422 4.692h-2.655l5.145-15.973h3.176l5.167 15.973zm-4.67-6.66l-1.35-4.171c-.143-.426-.412-1.43-.806-3.01h-.048c-.158.68-.412 1.684-.759 3.01l-1.327 4.17h4.29zm17.874.76c0 1.958-.532 3.506-1.597 4.643-.953 1.012-2.138 1.517-3.55 1.517-1.527 0-2.624-.544-3.29-1.633v6.043h-2.56V30.082c0-1.23-.032-2.492-.095-3.786h2.251l.143 1.826h.048c.854-1.376 2.15-2.064 3.888-2.064 1.359 0 2.493.537 3.4 1.611.907 1.077 1.362 2.49 1.362 4.244zm-2.608.093c0-1.121-.252-2.045-.758-2.774-.554-.757-1.297-1.137-2.228-1.137-.632 0-1.206.212-1.719.628-.513.42-.85.969-1.007 1.648-.07.254-.11.516-.119.78v1.92c0 .837.257 1.544.771 2.123.514.576 1.181.865 2.003.865.964 0 1.714-.373 2.25-1.114.539-.743.808-1.722.808-2.94zm15.859-.094c0 1.959-.532 3.507-1.597 4.644-.955 1.012-2.138 1.517-3.553 1.517-1.525 0-2.623-.544-3.29-1.633v6.043h-2.559V30.082c0-1.23-.032-2.492-.094-3.786h2.25l.143 1.826h.048c.853-1.376 2.148-2.064 3.888-2.064 1.358 0 2.492.537 3.402 1.611.905 1.077 1.362 2.49 1.362 4.244zm-2.61.094c0-1.121-.253-2.045-.76-2.774-.553-.757-1.293-1.137-2.225-1.137-.632 0-1.205.212-1.72.628-.514.42-.85.969-1.006 1.648a3.42 3.42 0 0 0-.12.78v1.92c0 .837.258 1.544.769 2.123.514.575 1.181.865 2.005.865.965 0 1.715-.373 2.251-1.114.538-.743.807-1.722.807-2.94zm17.424 1.326c0 1.36-.475 2.465-1.42 3.319-1.04.931-2.491 1.398-4.352 1.398-1.72 0-3.097-.331-4.137-.995l.592-2.133c1.122.665 2.355.996 3.698.996.965 0 1.715-.218 2.251-.651.536-.435.808-1.016.808-1.74a2.23 2.23 0 0 0-.666-1.637c-.443-.441-1.175-.853-2.204-1.231-2.797-1.043-4.197-2.569-4.197-4.575 0-1.31.495-2.384 1.482-3.223.986-.838 2.295-1.256 3.923-1.256 1.454 0 2.665.253 3.627.758l-.642 2.086c-.906-.49-1.927-.735-3.07-.735-.903 0-1.611.223-2.118.664a1.9 1.9 0 0 0-.642 1.448c0 .63.246 1.153.736 1.564.425.378 1.2.79 2.321 1.231 1.376.555 2.387 1.2 3.034 1.942.652.742.976 1.667.976 2.77zm8.485-5.116h-2.822v5.591c0 1.423.497 2.132 1.494 2.132.457 0 .837-.038 1.137-.119l.071 1.943c-.505.189-1.169.284-1.991.284-1.011 0-1.801-.309-2.371-.926-.568-.617-.854-1.65-.854-3.105v-5.805h-1.68v-1.92h1.68v-2.11l2.514-.758v2.867h2.822v1.926zm12.704 3.743c0 1.77-.507 3.224-1.518 4.36-1.057 1.17-2.464 1.754-4.218 1.754-1.693 0-3.039-.56-4.043-1.68-1.003-1.122-1.505-2.536-1.505-4.242 0-1.785.518-3.247 1.552-4.383 1.036-1.138 2.431-1.707 4.185-1.707 1.691 0 3.048.562 4.076 1.683.982 1.087 1.471 2.491 1.471 4.215zm-2.653.059c0-1.055-.228-1.96-.686-2.717-.537-.915-1.305-1.372-2.3-1.372-1.025 0-1.812.457-2.347 1.372-.459.757-.687 1.678-.687 2.765 0 1.056.228 1.964.687 2.718.553.915 1.325 1.372 2.325 1.372.979 0 1.746-.467 2.3-1.394.471-.776.708-1.687.708-2.744zm10.976-3.472a4.46 4.46 0 0 0-.807-.071c-.9 0-1.596.338-2.086 1.02-.425.6-.639 1.359-.639 2.274v6.044h-2.559v-7.89a81.18 81.18 0 0 0-.075-3.627h2.23l.093 2.204h.071c.271-.757.696-1.368 1.28-1.826a3.096 3.096 0 0 1 1.85-.617c.236 0 .45.017.64.047l.002 2.442zm11.447 2.963c.007.389-.024.778-.093 1.16h-7.679c.029 1.138.401 2.01 1.114 2.61.647.535 1.484.804 2.512.804 1.137 0 2.174-.18 3.107-.544l.401 1.776c-1.09.475-2.377.711-3.862.711-1.787 0-3.189-.526-4.21-1.575-1.018-1.05-1.528-2.461-1.528-4.23 0-1.735.474-3.18 1.424-4.334.994-1.232 2.337-1.848 4.028-1.848 1.66 0 2.917.616 3.771 1.848.676.975 1.015 2.185 1.015 3.622zm-2.44-.664c.018-.76-.15-1.414-.497-1.967-.443-.713-1.125-1.068-2.039-1.068-.837 0-1.519.347-2.037 1.043-.426.553-.68 1.218-.758 1.99l5.331.002zM54.278 16.194a16.35 16.35 0 0 1-1.84-.093V8.378c.716-.11 1.441-.165 2.167-.163 2.935 0 4.287 1.444 4.287 3.798 0 2.715-1.597 4.181-4.614 4.181zm.43-6.989c-.396 0-.734.024-1.014.082v5.87c.152.024.442.035.85.035 1.924 0 3.019-1.094 3.019-3.144 0-1.828-.99-2.843-2.855-2.843zm8.396 7.048c-1.654 0-2.726-1.235-2.726-2.912 0-1.747 1.095-2.993 2.82-2.993 1.63 0 2.726 1.176 2.726 2.901 0 1.77-1.13 3.004-2.82 3.004zm.049-4.986c-.91 0-1.492.85-1.492 2.038 0 1.166.595 2.016 1.48 2.016.884 0 1.479-.909 1.479-2.04 0-1.152-.583-2.014-1.468-2.014zm12.205-.803l-1.77 5.66h-1.154l-.734-2.457a18.62 18.62 0 0 1-.455-1.828h-.024c-.092.617-.267 1.235-.454 1.828l-.78 2.458h-1.165l-1.667-5.66h1.293l.641 2.69c.151.641.279 1.246.384 1.818h.024c.093-.477.244-1.072.466-1.806l.805-2.701h1.025l.77 2.644c.185.64.337 1.27.454 1.864h.034c.082-.582.21-1.2.384-1.864l.688-2.644 1.235-.002zm6.52 5.66h-1.259v-3.25c0-1-.384-1.502-1.141-1.502-.746 0-1.259.64-1.259 1.386v3.367h-1.258v-4.043c0-.5-.012-1.037-.047-1.619h1.107l.06.874h.034c.339-.605 1.025-.989 1.795-.989 1.188 0 1.969.909 1.969 2.387l-.002 3.39zm3.469 0h-1.26V7.868h1.26v8.258zm4.587.13c-1.653 0-2.726-1.236-2.726-2.913 0-1.747 1.095-2.993 2.819-2.993 1.631 0 2.726 1.176 2.726 2.901.001 1.77-1.13 3.004-2.819 3.004zm.047-4.987c-.909 0-1.491.85-1.491 2.038 0 1.166.596 2.016 1.478 2.016.886 0 1.479-.909 1.479-2.04.001-1.152-.58-2.014-1.466-2.014zm7.733 4.858l-.091-.652h-.034c-.384.524-.945.78-1.656.78-1.014 0-1.734-.71-1.734-1.666 0-1.397 1.211-2.12 3.308-2.12v-.104c0-.745-.395-1.118-1.175-1.118a2.65 2.65 0 0 0-1.479.42l-.256-.827c.524-.327 1.177-.49 1.944-.49 1.479 0 2.226.78 2.226 2.342v2.085c0 .57.025 1.014.081 1.351l-1.134-.001zm-.173-2.82c-1.397 0-2.099.339-2.099 1.142 0 .594.362.884.864.884.64 0 1.235-.488 1.235-1.152v-.874zm7.335 2.82l-.058-.909h-.035c-.362.687-.969 1.037-1.818 1.037-1.365 0-2.376-1.2-2.376-2.889 0-1.77 1.048-3.017 2.479-3.017.758 0 1.295.255 1.597.77h.025v-3.25h1.26V14.6c0 .548.013 1.06.046 1.526h-1.12zm-.186-3.33c0-.793-.524-1.469-1.325-1.469-.933 0-1.503.827-1.503 1.991 0 1.142.592 1.923 1.478 1.923.791 0 1.35-.688 1.35-1.502v-.944zm9.244 3.458c-1.653 0-2.725-1.235-2.725-2.912 0-1.747 1.095-2.993 2.819-2.993 1.632 0 2.727 1.176 2.727 2.901.001 1.77-1.129 3.004-2.821 3.004zm.047-4.986c-.907 0-1.49.85-1.49 2.038 0 1.166.595 2.016 1.478 2.016.886 0 1.479-.909 1.479-2.04.003-1.152-.579-2.014-1.467-2.014zm9.54 4.858h-1.26v-3.25c0-1.001-.384-1.503-1.141-1.503-.746 0-1.257.64-1.257 1.386v3.367h-1.26v-4.043c0-.5-.012-1.037-.046-1.619h1.107l.058.874h.035c.337-.605 1.025-.99 1.794-.99 1.188 0 1.97.908 1.97 2.387v3.39zm8.465-4.717h-1.384v2.748c0 .7.242 1.05.732 1.05.222 0 .408-.025.558-.06l.035.956c-.244.094-.57.14-.976.14-.992 0-1.585-.547-1.585-1.98v-2.854h-.826v-.944h.826V9.427l1.236-.373v1.41h1.384v.944zm6.661 4.717h-1.257v-3.226c0-1.013-.383-1.526-1.142-1.526-.652 0-1.259.443-1.259 1.34v3.412h-1.257V7.867h1.257v3.4h.025c.396-.617.97-.92 1.702-.92 1.198 0 1.931.931 1.931 2.411v3.367zm6.823-2.528h-3.775c.024 1.072.733 1.677 1.784 1.677.558 0 1.072-.094 1.526-.268l.195.874c-.535.233-1.165.35-1.899.35-1.771 0-2.819-1.12-2.819-2.854 0-1.735 1.074-3.04 2.677-3.04 1.447 0 2.355 1.072 2.355 2.691.008.191-.007.382-.044.57zm-1.153-.896c0-.874-.441-1.491-1.245-1.491-.723 0-1.294.629-1.376 1.49h2.621z" fill="#fff"/></g><defs><linearGradient id="paint0_linear" x1="118.805" y1="48.125" x2="118.805" y2="-124.971" gradientUnits="userSpaceOnUse"><stop stop-color="#1A1A1A" stop-opacity=".1"/><stop offset=".123" stop-color="#212121" stop-opacity=".151"/><stop offset=".308" stop-color="#353535" stop-opacity=".227"/><stop offset=".532" stop-color="#575757" stop-opacity=".318"/><stop offset=".783" stop-color="#858585" stop-opacity=".421"/><stop offset="1" stop-color="#B3B3B3" stop-opacity=".51"/></linearGradient><clipPath id="clip0"><path fill="#fff" d="M0 0h161.943v48H0z"/></clipPath></defs></svg>