<svg width="87" height="85" fill="none" xmlns="http://www.w3.org/2000/svg"><path d="M84.722 85a1.98 1.98 0 0 1-1.987-1.915c-.517-10.69-3.14-19.464-7.79-26.205-4.77-6.82-10.453-9.772-14.348-11.049a21.138 21.138 0 0 0-2.623-.678c-1.192 3.39-3.219 6.382-6.04 8.616-4.333 3.43-8.307 2.951-10.294.957-1.868-1.875-2.425-5.464.556-9.254 2.584-3.27 7.392-4.906 12.837-4.666.795-4.827-.199-10.41-3.06-15.596C45.535 13.563 29.359 4.469 3.407 13.962c-1.034.359-2.186-.16-2.544-1.197-.358-1.037.159-2.193 1.192-2.552 28.298-10.331 46.142 0 53.376 13.082 3.298 5.943 4.411 12.325 3.537 18.03.954.199 1.908.438 2.861.757 4.531 1.436 11.01 4.826 16.414 12.564 5.088 7.34 7.95 16.832 8.506 28.28.04 1.117-.795 2.034-1.908 2.074h-.12zM53.88 44.794c-4.014 0-7.154 1.356-8.585 3.191-1.39 1.755-1.47 3.31-.834 3.949.755.758 2.702.558 5.047-1.276 1.908-1.516 3.378-3.55 4.372-5.864z" fill="#353E44"/><path d="M3.232 1.932a2 2 0 0 1 3.864 1.035l-2.588 9.66A2 2 0 0 1 .644 11.59l2.588-9.66z" fill="#353E44"/><path d="M3.732 10.5a2 2 0 1 0-2 3.464l8.66 5a2 2 0 0 0 2-3.464l-8.66-5z" fill="#353E44"/></svg>