<svg width="149" height="32" viewBox="0 0 149 32" fill="none" xmlns="http://www.w3.org/2000/svg">
<g clip-path="url(#clip0)">
<path fill-rule="evenodd" clip-rule="evenodd" d="M43.2112 8.60894C43.1734 8.48807 43.0985 8.38252 42.9974 8.30762C42.8963 8.23271 42.7743 8.19234 42.6489 8.19237H37.1473C37.022 8.19234 36.8999 8.23271 36.7988 8.30762C36.6977 8.38252 36.6228 8.48807 36.585 8.60894L29.6436 30.8798C29.5875 31.0612 29.6193 31.2585 29.7305 31.4123C29.7853 31.4877 29.8569 31.5491 29.9395 31.5914C30.022 31.6337 30.1133 31.6557 30.2059 31.6558H33.9936C34.2549 31.6558 34.4851 31.4816 34.5589 31.2278L39.3392 14.8491C39.3392 14.8491 39.4642 14.4401 39.897 14.4401C40.3372 14.4401 40.4443 14.8656 40.4443 14.8662L42.6622 22.6321H39.683C39.5545 22.632 39.4294 22.6745 39.3269 22.753C39.2244 22.8316 39.1501 22.9418 39.1154 23.0671L38.2604 26.1421C38.2355 26.2308 38.2314 26.324 38.2483 26.4146C38.2651 26.5052 38.3025 26.5905 38.3575 26.664C38.4125 26.7374 38.4837 26.797 38.5653 26.8379C38.6469 26.8788 38.7368 26.9 38.8279 26.8999H43.902L45.2379 31.2367C45.2753 31.3581 45.3501 31.4643 45.4513 31.5396C45.5526 31.615 45.675 31.6556 45.8007 31.6556H49.5899C49.6825 31.6555 49.7738 31.6333 49.8564 31.591C49.939 31.5486 50.0105 31.4871 50.0653 31.4116C50.12 31.336 50.1565 31.2485 50.1716 31.1561C50.1867 31.0637 50.1801 30.969 50.1524 30.8796L43.2112 8.60894ZM59.714 28.2236C59.7016 28.1415 59.6724 28.0629 59.6283 27.9928C59.5842 27.9227 59.5262 27.8627 59.4579 27.8165C59.3897 27.7703 59.3126 27.739 59.2317 27.7248C59.1508 27.7105 59.0678 27.7136 58.9881 27.7338C58.3733 27.8881 57.7843 27.9735 57.3298 27.9735C56.4677 27.9735 56.0836 27.5954 56.0836 26.7476V18.215H59.4658C59.6222 18.2149 59.7722 18.1521 59.8828 18.0403C59.9934 17.9284 60.0556 17.7768 60.0557 17.6185V14.9571C60.0557 14.6276 59.7918 14.361 59.4662 14.361H56.0836V10.2521C56.0837 10.1668 56.0656 10.0825 56.0307 10.0049C55.9958 9.92723 55.9448 9.85808 55.8812 9.80208C55.8176 9.74608 55.7428 9.70454 55.662 9.68026C55.5812 9.65598 55.4961 9.64953 55.4126 9.66134L51.9301 10.1521C51.7892 10.172 51.6601 10.2427 51.5666 10.3513C51.4731 10.4598 51.4216 10.5989 51.4216 10.7429V14.3608H49.5246C49.3683 14.3608 49.2184 14.4236 49.1079 14.5354C48.9973 14.6471 48.9351 14.7987 48.935 14.9569V17.6184C48.935 17.7765 48.9972 17.9283 49.1077 18.0401C49.2183 18.152 49.3683 18.2148 49.5246 18.2148H51.4216V27.2988C51.4216 30.4185 53.0425 31.9998 56.2394 31.9998C57.149 31.9998 58.6939 31.7877 59.7042 31.4325C59.8341 31.387 59.9441 31.2969 60.0152 31.178C60.0863 31.059 60.114 30.9186 60.0936 30.7812L59.7136 28.2234L59.714 28.2236ZM66.1609 7.75762H62.6784C62.6009 7.75762 62.5242 7.77306 62.4527 7.80306C62.3811 7.83306 62.3161 7.87703 62.2613 7.93245C62.2066 7.98788 62.1632 8.05368 62.1336 8.12608C62.104 8.19849 62.0887 8.27609 62.0888 8.35445V31.0593C62.0888 31.2175 62.1509 31.3692 62.2615 31.4811C62.372 31.5929 62.522 31.6558 62.6784 31.6558H66.1609C66.3172 31.6558 66.4672 31.5929 66.5778 31.4811C66.6883 31.3692 66.7504 31.2175 66.7504 31.0593V8.35407C66.7504 8.02423 66.4865 7.75762 66.1609 7.75762ZM77.4521 25.3146V27.3892C76.8748 27.7003 75.8289 28.146 74.5708 28.146C73.4852 28.146 73.1543 27.8112 73.1543 26.7126C73.1543 25.6462 73.359 25.3145 74.6389 25.3145H77.4521V25.3146ZM75.1156 14.0162C73.3525 14.0162 71.207 14.2974 69.6497 14.7331C69.5098 14.772 69.389 14.8619 69.3105 14.9854C69.2321 15.109 69.2016 15.2575 69.2248 15.4024L69.6325 17.9599C69.645 18.0388 69.6731 18.1143 69.7151 18.182C69.7571 18.2497 69.8121 18.3081 69.8769 18.3538C70.0076 18.4466 70.17 18.4814 70.3271 18.45C71.7752 18.1652 73.2703 18.008 74.5365 18.008C77.0502 18.008 77.4521 18.5448 77.4521 20.2679V21.7704H73.7192C70.1513 21.7704 68.6289 23.2591 68.6289 26.7478C68.6289 30.0857 70.2979 32 73.208 32C74.8912 32 76.5771 31.5274 77.9939 30.6632L78.1427 31.2161C78.1768 31.3424 78.2509 31.4538 78.3537 31.5333C78.4566 31.6127 78.5824 31.6558 78.7117 31.6558H81.5242C81.6805 31.6558 81.8305 31.5929 81.9411 31.4811C82.0516 31.3692 82.1137 31.2175 82.1137 31.0593V20.3372C82.1137 15.7292 80.2169 14.0162 75.1154 14.0162H75.1156ZM90.8403 20.9515C88.6795 20.388 88.6795 20.3652 88.6795 19.1659C88.6795 18.3604 88.7585 17.9736 90.5388 17.9736C91.7582 17.9736 93.5579 18.1894 94.7135 18.3894C94.8726 18.4168 95.0354 18.3775 95.1645 18.2796C95.2285 18.2315 95.2822 18.1708 95.3223 18.1012C95.3625 18.0315 95.3883 17.9544 95.3981 17.8744L95.7264 15.1894C95.7443 15.0431 95.7081 14.8954 95.6248 14.7745C95.5414 14.6537 95.4168 14.5683 95.275 14.5348C93.9386 14.2197 92.0792 14.016 90.5386 14.016C85.1829 14.016 84.0856 16.061 84.0856 19.1307C84.0856 22.5062 84.7055 23.6406 88.8101 24.6521C91.5121 25.3101 91.5121 25.799 91.5121 26.6096C91.5121 27.6741 91.4223 28.0424 89.6531 28.0424C88.2288 28.0424 86.5804 27.8182 85.1302 27.427C85.0515 27.4058 84.9694 27.4013 84.8889 27.4138C84.8085 27.4263 84.7315 27.4555 84.6627 27.4996C84.594 27.5436 84.535 27.6016 84.4895 27.6699C84.444 27.7382 84.4129 27.8152 84.3983 27.8962L83.9379 30.4439C83.9121 30.5861 83.9383 30.7329 84.0115 30.857C84.0848 30.9811 84.2001 31.0741 84.336 31.1186C85.9176 31.6378 88.188 31.9998 89.8575 31.9998C95.0431 31.9998 96.1058 29.8037 96.1058 26.506C96.1058 22.8648 95.4664 22.19 90.8402 20.9513L90.8403 20.9515ZM104.297 20.9515C102.136 20.388 102.136 20.3652 102.136 19.1659C102.136 18.3604 102.215 17.9736 103.995 17.9736C105.215 17.9736 107.014 18.1894 108.17 18.3894C108.329 18.4168 108.492 18.3775 108.621 18.2796C108.685 18.2315 108.739 18.1708 108.779 18.1012C108.819 18.0315 108.845 17.9544 108.854 17.8744L109.183 15.1894C109.201 15.0432 109.165 14.8954 109.081 14.7746C108.998 14.6537 108.873 14.5683 108.732 14.5348C107.395 14.2197 105.536 14.016 103.995 14.016C98.6395 14.016 97.5422 16.061 97.5422 19.1307C97.5422 22.5062 98.1617 23.6406 102.267 24.6521C104.969 25.3101 104.969 25.799 104.969 26.6096C104.969 27.6741 104.879 28.0424 103.109 28.0424C101.685 28.0424 100.037 27.8182 98.5866 27.427C98.5079 27.4058 98.4258 27.4014 98.3454 27.4139C98.2649 27.4264 98.1879 27.4556 98.1192 27.4997C98.0503 27.5437 97.9913 27.6016 97.9457 27.6699C97.9002 27.7381 97.8691 27.8152 97.8545 27.8962L97.3941 30.4439C97.3683 30.5861 97.3944 30.7329 97.4677 30.857C97.5409 30.9811 97.6563 31.0741 97.7922 31.1186C99.3738 31.6378 101.644 31.9998 103.314 31.9998C108.499 31.9998 109.562 29.8037 109.562 26.506C109.562 22.8648 108.923 22.19 104.296 20.9513L104.297 20.9515ZM115.754 14.361H112.271C112.115 14.361 111.965 14.4238 111.855 14.5355C111.744 14.6473 111.682 14.7989 111.682 14.9571V31.0593C111.682 31.2175 111.744 31.3692 111.854 31.4811C111.965 31.5929 112.115 31.6558 112.271 31.6558H115.754C115.91 31.6558 116.06 31.5929 116.171 31.4811C116.281 31.3692 116.343 31.2175 116.343 31.0593V14.9567C116.343 14.6272 116.079 14.3606 115.754 14.3606V14.361ZM127.133 25.3146V27.3892C126.555 27.7003 125.509 28.146 124.251 28.146C123.166 28.146 122.835 27.8112 122.835 26.7126C122.835 25.6462 123.04 25.3145 124.319 25.3145H127.133V25.3146ZM124.796 14.0162C123.033 14.0162 120.887 14.2974 119.33 14.7331C119.19 14.772 119.069 14.8619 118.991 14.9854C118.913 15.109 118.882 15.2575 118.905 15.4024L119.313 17.9599C119.338 18.1194 119.427 18.2614 119.558 18.3538C119.688 18.4466 119.851 18.4814 120.008 18.45C121.456 18.1652 122.951 18.008 124.217 18.008C126.731 18.008 127.133 18.5448 127.133 20.2679V21.7704H123.4C119.832 21.7704 118.31 23.2591 118.31 26.7478C118.31 30.0857 119.979 32 122.889 32C124.572 32 126.258 31.5274 127.674 30.6632L127.823 31.2161C127.857 31.3424 127.932 31.4538 128.034 31.5333C128.137 31.6127 128.263 31.6558 128.392 31.6558H131.205C131.361 31.6558 131.511 31.5929 131.622 31.4811C131.732 31.3692 131.794 31.2175 131.794 31.0593V20.3372C131.794 15.7292 129.898 14.0162 124.796 14.0162ZM144.675 14.0162C142.829 14.0162 140.315 14.66 138.191 15.6684L137.937 14.7893C137.901 14.6656 137.826 14.557 137.724 14.4798C137.622 14.4025 137.498 14.3608 137.371 14.3608H134.792C134.635 14.3608 134.485 14.4236 134.375 14.5354C134.264 14.6471 134.202 14.7987 134.202 14.9569V31.0591C134.202 31.2173 134.264 31.369 134.375 31.4809C134.485 31.5927 134.635 31.6556 134.792 31.6556H138.274C138.43 31.6556 138.58 31.5927 138.691 31.4809C138.802 31.369 138.864 31.2173 138.864 31.0591V19.9072C140.118 19.2615 141.882 18.5941 142.937 18.5941C143.722 18.5941 144.013 18.8891 144.013 19.6823V31.0591C144.013 31.1375 144.028 31.2151 144.058 31.2875C144.088 31.3599 144.131 31.4257 144.186 31.4811C144.241 31.5365 144.306 31.5805 144.377 31.6105C144.449 31.6405 144.525 31.6559 144.603 31.6559H148.085C148.242 31.6559 148.392 31.5931 148.502 31.4812C148.613 31.3694 148.675 31.2177 148.675 31.0595V19.2346C148.675 15.7718 147.329 14.0162 144.675 14.0162H144.675ZM115.567 7.75687H112.084C111.928 7.75687 111.778 7.81971 111.667 7.93156C111.557 8.04342 111.495 8.19513 111.495 8.35332V11.4681C111.495 11.6263 111.557 11.778 111.667 11.8899C111.778 12.0017 111.928 12.0646 112.084 12.0646H115.567C115.723 12.0646 115.873 12.0017 115.984 11.8899C116.094 11.778 116.156 11.6263 116.156 11.4681V8.35332C116.156 8.19513 116.094 8.04342 115.984 7.93156C115.873 7.81971 115.723 7.75687 115.567 7.75687Z" fill="#4F5C65"/>
<mask id="mask0" mask-type="alpha" maskUnits="userSpaceOnUse" x="0" y="0" width="149" height="32">
<path d="M0.0273438 0.0246124H148.675V31.9886H0.0273438" fill="#4F5C65"/>
</mask>
<g mask="url(#mask0)">
<path fill-rule="evenodd" clip-rule="evenodd" d="M28.4585 7.85836C28.347 7.77249 28.2108 7.72593 28.0707 7.72582C27.9939 7.72582 27.9166 7.74021 27.8431 7.76861C26.4642 8.30201 25.0641 8.70702 23.786 9.00828C23.5254 9.06982 23.3149 9.26579 23.2275 9.50059C22.2963 12.081 19.9187 14.5378 17.4241 17.1115C17.3239 17.2077 17.1837 17.3345 16.9554 17.3345C16.7276 17.3345 16.5885 17.2114 16.4867 17.1115C13.9925 14.5378 11.6147 12.0899 10.6835 9.50911C10.5961 9.27431 10.3854 9.07834 10.1252 9.0168C8.84645 8.71535 7.44267 8.29784 6.06548 7.76463C5.99257 7.73645 5.91518 7.72195 5.83713 7.72184C5.69815 7.72146 5.56296 7.76767 5.45268 7.85325C5.36719 7.91936 5.29964 8.00631 5.25634 8.10597C5.21304 8.20563 5.1954 8.31476 5.20506 8.42319C5.41656 10.5689 6.25433 12.6665 7.76685 14.8648C9.18859 16.9314 11.0431 18.8442 12.836 20.6941C16.1395 24.1028 19.2604 27.3223 19.5342 31.0557C19.5461 31.2182 19.6183 31.3702 19.7363 31.4811C19.8544 31.5919 20.0095 31.6535 20.1706 31.6535H24.0517C24.1382 31.6533 24.2238 31.6355 24.3032 31.6009C24.3827 31.5664 24.4543 31.5159 24.514 31.4526C24.5736 31.3892 24.6199 31.3143 24.65 31.2323C24.6802 31.1503 24.6936 31.063 24.6894 30.9756C24.5672 28.4796 23.6387 25.98 21.8508 23.3348C21.4732 22.7785 21.0742 22.2373 20.6548 21.7125C20.4845 21.4972 20.556 21.23 20.6866 21.0952C20.8152 20.9617 20.9449 20.8286 21.075 20.6938C22.8681 18.8438 24.7222 16.931 26.1443 14.8643C27.6566 12.6659 28.4946 10.5806 28.7059 8.43531C28.7271 8.21983 28.6301 7.99091 28.4583 7.85817L28.4585 7.85836ZM34.1129 0.35408C34.0374 0.252091 33.9395 0.16924 33.827 0.112064C33.7144 0.0548878 33.5903 0.0249501 33.4643 0.0246124C33.3333 0.0246124 33.2038 0.0579379 33.0904 0.120612C28.3331 2.75503 22.8185 4.14863 17.1422 4.14996C11.4661 4.14826 5.95131 2.75503 1.19438 0.120423C1.07956 0.0576643 0.95112 0.0247418 0.820607 0.0246124C0.566056 0.0246124 0.323858 0.147689 0.172063 0.353322C-0.053102 0.656281 -0.0600272 1.16449 0.323109 1.46707C2.70578 3.264 5.33215 4.66707 8.12959 5.62632C11.0292 6.62153 14.061 7.12691 17.1411 7.12823H17.1433C20.2236 7.12691 23.2555 6.62153 26.155 5.62632C28.9526 4.66669 31.5788 3.264 33.9644 1.4648C34.345 1.16412 34.3377 0.655902 34.1129 0.35389V0.35408ZM12.7905 23.5978C12.6988 23.5007 12.564 23.4015 12.3375 23.4015C12.0478 23.4015 11.8758 23.6041 11.8108 23.7044C10.1783 26.2175 9.33515 28.5896 9.21854 30.9731C9.21012 31.1489 9.27413 31.3234 9.39448 31.4522C9.45458 31.5154 9.52665 31.5658 9.6064 31.6003C9.68615 31.6348 9.77194 31.6527 9.85866 31.6529H13.7335C14.0666 31.6529 14.3474 31.3891 14.3721 31.0527C14.4563 29.9041 14.8101 28.7525 15.4535 27.5421C15.6766 27.1237 15.5033 26.7304 15.3749 26.5623C14.7363 25.7221 13.9543 24.8259 12.7907 23.5976L12.7905 23.5978ZM16.9591 9.78177C18.1754 9.78177 18.8808 9.70792 19.1288 9.70792C19.4288 9.70792 19.7158 9.95673 19.7158 10.3051C19.7158 10.407 19.692 10.4793 19.6684 10.5437C19.5071 10.98 18.7719 12.5497 17.4033 13.8963C17.2498 14.0472 17.0757 14.0754 16.956 14.0754H16.9541C16.8349 14.0754 16.6608 14.047 16.5075 13.8963C15.1385 12.5497 14.4031 10.98 14.2422 10.5437C14.2184 10.4793 14.1946 10.407 14.1946 10.3051C14.1946 9.95673 14.4818 9.70792 14.782 9.70792C15.03 9.70792 15.7352 9.78177 16.9513 9.78177H16.9591Z" fill="#4F5C65"/>
</g>
</g>
<defs>
<clipPath id="clip0">
<rect width="148.645" height="32" fill="white"/>
</clipPath>
</defs>
</svg>
