<svg width="48" height="48" viewBox="0 0 48 48" fill="none" xmlns="http://www.w3.org/2000/svg">
<path d="M40.3636 29.4545H37.6363V16.7273C38.3612 16.7324 39.0579 16.4467 39.5705 15.9341C40.0831 15.4216 40.3687 14.7249 40.3636 14V9.45455C40.375 8.72779 40.0914 8.02745 39.5774 7.51349C39.0634 6.99954 38.3631 6.71586 37.6363 6.72727H31.2727V5.49091C31.3147 4.97715 31.0644 4.4834 30.6251 4.21362C30.1859 3.94385 29.6323 3.94385 29.193 4.21362C28.7538 4.4834 28.5035 4.97715 28.5454 5.49091V6.72727H19.4545V5.49091C19.4965 4.97715 19.2462 4.4834 18.8069 4.21362C18.3677 3.94385 17.8141 3.94385 17.3749 4.21362C16.9356 4.4834 16.6853 4.97715 16.7273 5.49091V6.72727H10.3636C9.63686 6.71586 8.93652 6.99954 8.42257 7.51349C7.90861 8.02745 7.62494 8.72779 7.63634 9.45455V14C7.63122 14.7249 7.91691 15.4216 8.42949 15.9341C8.94206 16.4467 9.63874 16.7324 10.3636 16.7273V29.4545H7.63634C6.91147 29.4494 6.21479 29.7351 5.70221 30.2477C5.18963 30.7603 4.90394 31.4569 4.90907 32.1818V39.3636C4.9018 40.0942 5.18506 40.7977 5.69654 41.3194C6.20801 41.8411 6.90578 42.1383 7.63634 42.1455H10.3636C10.4191 42.1455 10.4709 42.1273 10.5254 42.1273C10.8945 43.2329 11.9254 43.9817 13.0909 43.9909H34.9091C36.0746 43.9817 37.1055 43.2329 37.4745 42.1273C37.5291 42.1273 37.5809 42.1455 37.6363 42.1455H40.3636C41.0942 42.1383 41.792 41.8411 42.3034 41.3194C42.8149 40.7977 43.0982 40.0942 43.0909 39.3636V32.1818C43.096 31.4569 42.8103 30.7603 42.2978 30.2477C41.7852 29.7351 41.0885 29.4494 40.3636 29.4545ZM34.9091 31.2727H31.2727V27.6364C31.9986 27.6447 32.6971 27.3601 33.2104 26.8468C33.7237 26.3335 34.0084 25.6349 34 24.9091V22.1818C34.0084 21.456 33.7237 20.7574 33.2104 20.2441C32.6971 19.7308 31.9986 19.4462 31.2727 19.4545V16.7273H34.9091V31.2727ZM19.4545 22.1818V24.9091H16.7273V22.1818H19.4545ZM19.4545 27.6364C20.1794 27.6415 20.8761 27.3558 21.3887 26.8432C21.9012 26.3306 22.1869 25.634 22.1818 24.9091V22.1818C22.1869 21.4569 21.9012 20.7603 21.3887 20.2477C20.8761 19.7351 20.1794 19.4494 19.4545 19.4545V16.7273H28.5454V19.4545C27.8196 19.4462 27.121 19.7308 26.6077 20.2441C26.0944 20.7574 25.8098 21.456 25.8182 22.1818V24.9091C25.8098 25.6349 26.0944 26.3335 26.6077 26.8468C27.121 27.3601 27.8196 27.6447 28.5454 27.6364V31.2727H19.4545V27.6364ZM28.5454 24.9091V22.1818H31.2727V24.9091H28.5454ZM37.6363 9.45455V14H31.2727V9.45455H37.6363ZM28.5454 9.45455V14H19.4545V9.45455H28.5454ZM10.3636 9.45455H16.7273V14H10.3636V9.45455ZM16.7273 16.7273V19.4545C16.0024 19.4494 15.3057 19.7351 14.7931 20.2477C14.2805 20.7603 13.9949 21.4569 14 22.1818V24.9091C13.9949 25.634 14.2805 26.3306 14.7931 26.8432C15.3057 27.3558 16.0024 27.6415 16.7273 27.6364V31.2727H13.0909V16.7273H16.7273ZM7.63634 39.4545V32.1818H10.3636V39.4545H7.63634ZM13.0909 41.2727V34H16.7273V41.2727H13.0909ZM19.4545 41.2727V34H28.5454V41.2727H19.4545ZM34.9091 41.2727H31.2727V34H34.9091V41.2727ZM40.3636 39.4545H37.6363V32.1818H40.3636V39.4545Z" fill="#353E44"/>
</svg>
