<svg width="36" height="36" viewBox="0 0 36 36" fill="none" xmlns="http://www.w3.org/2000/svg">
<path fill-rule="evenodd" clip-rule="evenodd" d="M3 9C3 7.80653 3.47411 6.66193 4.31802 5.81802C5.16193 4.97411 6.30653 4.5 7.5 4.5H28.5C29.6935 4.5 30.8381 4.97411 31.682 5.81802C32.5259 6.66193 33 7.80653 33 9V24H34.5V27C34.5 28.1935 34.0259 29.3381 33.182 30.182C32.3381 31.0259 31.1935 31.5 30 31.5H6C4.80653 31.5 3.66193 31.0259 2.81802 30.182C1.97411 29.3381 1.5 28.1935 1.5 27V24H3V9ZM30 9V24H6V9C6 8.60218 6.15804 8.22064 6.43934 7.93934C6.72064 7.65804 7.10218 7.5 7.5 7.5H28.5C28.8978 7.5 29.2794 7.65804 29.5607 7.93934C29.842 8.22064 30 8.60218 30 9ZM6 28.5C5.60218 28.5 5.22064 28.342 4.93934 28.0607C4.65804 27.7794 4.5 27.3978 4.5 27H31.5C31.5 27.3978 31.342 27.7794 31.0607 28.0607C30.7794 28.342 30.3978 28.5 30 28.5H6ZM8.25 9C8.05109 9 7.86032 9.07902 7.71967 9.21967C7.57902 9.36032 7.5 9.55109 7.5 9.75V21.75C7.5 21.9489 7.57902 22.1397 7.71967 22.2803C7.86032 22.421 8.05109 22.5 8.25 22.5H27.75C27.9489 22.5 28.1397 22.421 28.2803 22.2803C28.421 22.1397 28.5 21.9489 28.5 21.75V9.75C28.5 9.55109 28.421 9.36032 28.2803 9.21967C28.1397 9.07902 27.9489 9 27.75 9H8.25Z" fill="#509DE0"/>
</svg>
