<svg width="36" height="36" viewBox="0 0 36 36" fill="none" xmlns="http://www.w3.org/2000/svg">
<path fill-rule="evenodd" clip-rule="evenodd" d="M30.75 6C29.7554 6 28.8016 6.39509 28.0983 7.09835C27.3951 7.80161 27 8.75544 27 9.75V27.75C27 28.7446 27.3951 29.6984 28.0983 30.4017C28.8016 31.1049 29.7554 31.5 30.75 31.5C31.7446 31.5 32.6984 31.1049 33.4017 30.4017C34.1049 29.6984 34.5 28.7446 34.5 27.75V9.75C34.5 8.75544 34.1049 7.80161 33.4017 7.09835C32.6984 6.39509 31.7446 6 30.75 6V6ZM18 15.75C18 14.7554 18.3951 13.8016 19.0983 13.0983C19.8016 12.3951 20.7554 12 21.75 12C22.7446 12 23.6984 12.3951 24.4017 13.0983C25.1049 13.8016 25.5 14.7554 25.5 15.75V27.75C25.5 28.7446 25.1049 29.6984 24.4017 30.4017C23.6984 31.1049 22.7446 31.5 21.75 31.5C20.7554 31.5 19.8016 31.1049 19.0983 30.4017C18.3951 29.6984 18 28.7446 18 27.75V15.75ZM9 21.75C9 20.7554 9.39509 19.8016 10.0983 19.0983C10.8016 18.3951 11.7554 18 12.75 18C13.7446 18 14.6984 18.3951 15.4017 19.0983C16.1049 19.8016 16.5 20.7554 16.5 21.75V27.75C16.5 28.7446 16.1049 29.6984 15.4017 30.4017C14.6984 31.1049 13.7446 31.5 12.75 31.5C11.7554 31.5 10.8016 31.1049 10.0983 30.4017C9.39509 29.6984 9 28.7446 9 27.75V21.75ZM0 27.75C0 26.7554 0.395088 25.8016 1.09835 25.0983C1.80161 24.3951 2.75544 24 3.75 24C4.74456 24 5.69839 24.3951 6.40165 25.0983C7.10491 25.8016 7.5 26.7554 7.5 27.75C7.5 28.7446 7.10491 29.6984 6.40165 30.4017C5.69839 31.1049 4.74456 31.5 3.75 31.5C2.75544 31.5 1.80161 31.1049 1.09835 30.4017C0.395088 29.6984 0 28.7446 0 27.75H0Z" fill="#509DE0"/>
</svg>
