<svg width="36" height="36" viewBox="0 0 36 36" fill="none" xmlns="http://www.w3.org/2000/svg">
<path fill-rule="evenodd" clip-rule="evenodd" d="M24 7.5H12V28.5H24V7.5ZM9 6C9 4.80653 9.47411 3.66193 10.318 2.81802C11.1619 1.97411 12.3065 1.5 13.5 1.5H22.5C23.6935 1.5 24.8381 1.97411 25.682 2.81802C26.5259 3.66193 27 4.80653 27 6V30C27 31.1935 26.5259 32.3381 25.682 33.182C24.8381 34.0259 23.6935 34.5 22.5 34.5H13.5C12.3065 34.5 11.1619 34.0259 10.318 33.182C9.47411 32.3381 9 31.1935 9 30V6Z" fill="#509DE0"/>
</svg>
