<svg width="36" height="36" viewBox="0 0 36 36" fill="none" xmlns="http://www.w3.org/2000/svg">
<path fill-rule="evenodd" clip-rule="evenodd" d="M7.5 6C7.5 5.60218 7.34196 5.22064 7.06066 4.93934C6.77936 4.65804 6.39782 4.5 6 4.5C5.60218 4.5 5.22064 4.65804 4.93934 4.93934C4.65804 5.22064 4.5 5.60218 4.5 6V27C4.5 28.1935 4.97411 29.3381 5.81802 30.182C6.66193 31.0259 7.80653 31.5 9 31.5H27C28.1935 31.5 29.3381 31.0259 30.182 30.182C31.0259 29.3381 31.5 28.1935 31.5 27V6C31.5 5.60218 31.342 5.22064 31.0607 4.93934C30.7794 4.65804 30.3978 4.5 30 4.5C29.6022 4.5 29.2206 4.65804 28.9393 4.93934C28.658 5.22064 28.5 5.60218 28.5 6V7.5H25.5V6C25.5 5.60218 25.342 5.22064 25.0607 4.93934C24.7794 4.65804 24.3978 4.5 24 4.5C23.6022 4.5 23.2206 4.65804 22.9393 4.93934C22.658 5.22064 22.5 5.60218 22.5 6V7.5H19.5V6C19.5 5.60218 19.342 5.22064 19.0607 4.93934C18.7794 4.65804 18.3978 4.5 18 4.5C17.6022 4.5 17.2206 4.65804 16.9393 4.93934C16.658 5.22064 16.5 5.60218 16.5 6V7.5H13.5V6C13.5 5.60218 13.342 5.22064 13.0607 4.93934C12.7794 4.65804 12.3978 4.5 12 4.5C11.6022 4.5 11.2206 4.65804 10.9393 4.93934C10.658 5.22064 10.5 5.60218 10.5 6V7.5H7.5V6ZM24 10.5H28.5V27C28.5 27.3978 28.342 27.7794 28.0607 28.0607C27.7794 28.342 27.3978 28.5 27 28.5H9C8.60218 28.5 8.22064 28.342 7.93934 28.0607C7.65804 27.7794 7.5 27.3978 7.5 27V10.5H24ZM25.152 15.96C25.2837 15.8095 25.384 15.6341 25.4469 15.4443C25.5098 15.2544 25.5341 15.0539 25.5184 14.8545C25.5027 14.6551 25.4473 14.4608 25.3554 14.2832C25.2635 14.1055 25.137 13.9481 24.9833 13.82C24.8297 13.692 24.652 13.5959 24.4606 13.5376C24.2693 13.4792 24.0683 13.4597 23.8693 13.4802C23.6704 13.5007 23.4775 13.5608 23.3021 13.6569C23.1267 13.7531 22.9723 13.8833 22.848 14.04L16.398 21.7785L13.0605 18.4395C12.7776 18.1663 12.3987 18.0151 12.0054 18.0185C11.6121 18.0219 11.2359 18.1797 10.9578 18.4578C10.6797 18.7359 10.5219 19.1121 10.5185 19.5054C10.5151 19.8987 10.6663 20.2776 10.9395 20.5605L15.4395 25.0605C15.5869 25.2078 15.7633 25.3228 15.9576 25.3981C16.1519 25.4734 16.3597 25.5074 16.5679 25.498C16.7761 25.4885 16.98 25.4358 17.1666 25.3432C17.3533 25.2505 17.5186 25.1201 17.652 24.96L25.152 15.96Z" fill="#509DE0"/>
</svg>
