<svg width="36" height="36" viewBox="0 0 36 36" fill="none" xmlns="http://www.w3.org/2000/svg">
<path fill-rule="evenodd" clip-rule="evenodd" d="M35.6999 27.555L35.7014 27.5595C36.1964 28.2045 36.4334 30.348 33.0389 29.967C31.6451 29.8308 30.275 29.5131 28.9634 29.022C27.9383 28.6289 26.9578 28.1281 26.0384 27.528C24.676 28.0763 23.2328 28.3975 21.7664 28.479C20.7199 29.8832 19.3596 31.0234 17.7941 31.8083C16.2286 32.5933 14.5012 33.0014 12.7499 33C11.5683 33.001 10.3939 32.8157 9.26992 32.451C8.60992 32.8335 7.85992 33.207 7.03192 33.5205C5.35192 34.1565 3.95842 34.395 2.95642 34.4655C2.20642 34.521 1.67692 34.482 1.41592 34.452C0.842919 34.386 0.329919 34.059 0.107919 33.51C0.0125831 33.2724 -0.0203743 33.0144 0.0121829 32.7605C0.0447401 32.5066 0.141729 32.2653 0.293919 32.0595C0.671919 31.542 1.01992 31.0005 1.34992 30.4515C1.99192 29.3805 2.62192 28.2255 2.78092 26.9685C2.0775 25.6256 1.65274 24.1544 1.53214 22.6433C1.41154 21.1322 1.59759 19.6123 2.07911 18.1749C2.56063 16.7374 3.3277 15.4121 4.33424 14.2786C5.34078 13.1451 6.56604 12.2266 7.93642 11.5785C8.41621 9.76576 9.26837 8.07288 10.4386 6.60772C11.6088 5.14256 13.0714 3.93725 14.7332 3.06861C16.395 2.19996 18.2195 1.68704 20.0905 1.56252C21.9615 1.43799 23.8379 1.70461 25.6002 2.34537C27.3624 2.98613 28.9719 3.98699 30.3259 5.28415C31.68 6.58131 32.749 8.14633 33.4648 9.87947C34.1805 11.6126 34.5274 13.4759 34.4833 15.3505C34.4391 17.2251 34.005 19.0699 33.2084 20.7675C32.9234 23.3535 34.2239 25.53 35.6984 27.555H35.6999ZM10.4999 15C10.5007 13.4178 10.8591 11.8562 11.5483 10.432C12.2374 9.00773 13.2395 7.75765 14.4797 6.77515C15.7199 5.79265 17.1661 5.10312 18.7102 4.7581C20.2544 4.41307 21.8565 4.42147 23.3969 4.78267C24.9374 5.14387 26.3762 5.84852 27.6061 6.84398C28.8359 7.83943 29.8248 9.09995 30.499 10.5313C31.1732 11.9627 31.5152 13.5279 31.4994 15.1101C31.4836 16.6922 31.1105 18.2503 30.4079 19.668C30.3359 19.8128 30.2878 19.9683 30.2654 20.1285C29.9369 22.491 30.4904 24.645 31.6229 26.7135C29.9847 26.3148 28.4406 25.5988 27.0779 24.606C26.859 24.4472 26.6013 24.3505 26.3319 24.3262C26.0626 24.3019 25.7917 24.3509 25.5479 24.468C23.947 25.2373 22.177 25.588 20.4037 25.4871C18.6304 25.3863 16.9116 24.8372 15.4082 23.8913C13.9048 22.9454 12.666 21.6335 11.8075 20.0785C10.9491 18.5235 10.4992 16.7762 10.4999 15ZM7.50592 15.381C7.59029 18.3651 8.66099 21.2372 10.5507 23.5484C12.4403 25.8595 15.0425 27.4795 17.9504 28.155C16.4815 29.3512 14.6443 30.0029 12.7499 30C11.6549 30 10.6154 29.7885 9.66442 29.4045C9.44179 29.3144 9.2008 29.2791 8.9617 29.3016C8.7226 29.324 8.49239 29.4035 8.29042 29.5335C7.63192 29.958 6.85042 30.381 5.96842 30.7155C5.44686 30.9143 4.91331 31.0801 4.37092 31.212C4.87042 30.3015 5.37592 29.217 5.60692 28.197C5.72242 27.6915 5.78692 27.201 5.81392 26.7405C5.83222 26.4443 5.76227 26.1494 5.61292 25.893C4.88107 24.6351 4.49695 23.2052 4.49992 21.75C4.49992 19.185 5.66992 16.8945 7.50592 15.381Z" fill="#509DE0"/>
</svg>
