<svg width="48" height="48" viewBox="0 0 48 48" fill="none" xmlns="http://www.w3.org/2000/svg">
<path d="M24 4C12.9543 4 4 12.9543 4 24C4 35.0457 12.9543 44 24 44C35.0457 44 44 35.0457 44 24C43.9875 12.9595 35.0405 4.01252 24 4V4ZM24 41.2727C14.4605 41.2727 6.72727 33.5395 6.72727 24C6.72727 14.4605 14.4605 6.72727 24 6.72727C33.5395 6.72727 41.2727 14.4605 41.2727 24C41.2727 28.581 39.4529 32.9744 36.2137 36.2137C32.9744 39.4529 28.581 41.2727 24 41.2727ZM31.5782 13.9545L20.3291 20.1818C20.3063 20.1937 20.2854 20.209 20.2673 20.2273C20.2255 20.2545 20.1864 20.2818 20.1473 20.3091C20.1082 20.3364 20.0618 20.3818 20.0218 20.4182C19.9818 20.4545 19.9573 20.4909 19.9309 20.5273C19.8942 20.5728 19.8617 20.6215 19.8336 20.6727C19.82 20.6909 19.8027 20.7091 19.79 20.7273L13.6527 32.2091C13.4255 32.6319 13.4374 33.1431 13.6839 33.555C13.9305 33.9668 14.3754 34.2187 14.8555 34.2182C15.087 34.2191 15.3149 34.1596 15.5164 34.0455L26.7655 27.8182C26.7881 27.806 26.8089 27.7907 26.8273 27.7727C26.8691 27.7455 26.9082 27.7182 26.9464 27.6909C26.9845 27.6636 27.0373 27.6182 27.0727 27.5818C27.1082 27.5455 27.1373 27.5091 27.1682 27.4727C27.2042 27.427 27.2365 27.3783 27.2645 27.3273C27.2782 27.3091 27.2964 27.2909 27.3082 27.2727L33.4455 15.7909C33.7332 15.2569 33.6337 14.5971 33.2012 14.1718C32.7687 13.7464 32.1073 13.6579 31.5782 13.9545ZM21.3127 23.6636L23.8791 26.3L18.2318 29.4182L21.3127 23.6636ZM25.7782 24.3364L23.2118 21.7L28.8591 18.5818L25.7782 24.3364ZM37.6364 23.0909H34.9091C34.407 23.0909 34 23.4979 34 24C34 24.5021 34.407 24.9091 34.9091 24.9091H37.6364C38.1384 24.9091 38.5455 24.5021 38.5455 24C38.5455 23.4979 38.1384 23.0909 37.6364 23.0909ZM14 24C14 23.4979 13.593 23.0909 13.0909 23.0909H10.3636C9.86156 23.0909 9.45455 23.4979 9.45455 24C9.45455 24.5021 9.86156 24.9091 10.3636 24.9091H13.0909C13.593 24.9091 14 24.5021 14 24ZM24 34C23.4979 34 23.0909 34.407 23.0909 34.9091V37.6364C23.0909 38.1384 23.4979 38.5455 24 38.5455C24.5021 38.5455 24.9091 38.1384 24.9091 37.6364V34.9091C24.9091 34.407 24.5021 34 24 34ZM24 14C24.5021 14 24.9091 13.593 24.9091 13.0909V10.3636C24.9091 9.86156 24.5021 9.45455 24 9.45455C23.4979 9.45455 23.0909 9.86156 23.0909 10.3636V13.0909C23.0909 13.593 23.4979 14 24 14Z" fill="#3E85E4"/>
</svg>
