<svg width="200" height="29" viewBox="0 0 200 29" fill="none" xmlns="http://www.w3.org/2000/svg">
<path d="M64.2034 28.685C58.4029 28.685 52.6023 26.4601 48.1526 22.0898L38.379 12.3163C32.6579 6.59515 23.2817 6.59515 17.5606 12.3163L6.83351 23.0433C5.24432 24.6325 2.78109 24.6325 1.1919 23.0433C-0.397298 21.4541 -0.397298 18.9909 1.1919 17.4017L11.919 6.67462C20.739 -2.1454 35.1212 -2.1454 44.0207 6.67462L53.7942 16.4482C59.5153 22.1693 68.8916 22.1693 74.6127 16.4482L84.3862 6.67462C93.2062 -2.1454 107.588 -2.1454 116.488 6.67462L126.261 16.4482C129.043 19.2292 132.777 20.739 136.671 20.739C140.644 20.739 144.299 19.2292 147.08 16.4482L156.853 6.67462C161.144 2.3838 166.786 0 172.904 0C178.943 0 184.664 2.38379 188.955 6.59516L198.808 16.3687C200.397 17.9579 200.397 20.4211 198.808 22.0103C197.219 23.5995 194.756 23.5995 193.166 22.0103L183.313 12.2368C180.532 9.45571 176.798 7.94597 172.904 7.94597C168.931 7.94597 165.276 9.45571 162.495 12.2368L152.721 22.0103C148.431 26.3012 142.789 28.685 136.671 28.685C130.632 28.685 124.911 26.3012 120.62 22.0898L110.846 12.3163C105.125 6.59515 95.7489 6.59515 90.0278 12.3163L80.2543 22.0103C75.8045 26.4601 70.004 28.685 64.2034 28.685Z" fill="white"/>
</svg>
