<svg width="200" height="109" viewBox="0 0 200 109" fill="none" xmlns="http://www.w3.org/2000/svg">
<path d="M96.8669 108.369C87.7253 108.369 79.0128 104.549 71.588 97.382C64.1631 104.549 55.4507 108.369 46.309 108.369C33.7768 108.369 22.0601 101.073 13.3047 87.8111C4.72103 74.8069 0 57.5966 0 39.3133C0 38.1116 0.944206 37.1674 2.14592 37.1674C3.34764 37.1674 4.29185 38.1116 4.29185 39.3133C4.29185 75.0214 23.1331 104.077 46.309 104.077C54.5065 104.077 62.1459 100.472 68.5837 94.2489C66.9098 92.3605 65.3219 90.2575 63.8197 88.0257C55.236 75.1502 50.515 57.9828 50.515 39.7425C50.515 28.8841 52.7468 18.8412 56.824 11.4163C60.7725 4.16308 66.1373 0 71.545 0C81.6738 0 92.618 15.1931 92.618 39.7425C92.618 58.0257 87.897 75.1502 79.3133 88.0257C77.8111 90.3004 76.2232 92.3605 74.5493 94.2489C81.03 100.472 88.6695 104.077 96.824 104.077C98.0257 104.077 98.9699 105.021 98.9699 106.223C98.9699 107.425 98.0686 108.369 96.8669 108.369ZM71.588 4.29185C63.691 4.29185 54.8927 18.8412 54.8927 39.7425C54.8927 60.7296 61.4592 79.3562 71.6309 91.1159C81.8026 79.3562 88.3691 60.6867 88.3691 39.7425C88.3691 18.8412 79.5279 4.29185 71.588 4.29185Z" fill="#353E44"/>
<path d="M197.94 108.369C188.798 108.369 180.086 104.549 172.661 97.382C165.236 104.549 156.524 108.369 147.382 108.369C146.18 108.369 145.236 107.425 145.236 106.223C145.236 105.021 146.18 104.077 147.382 104.077C155.579 104.077 163.219 100.472 169.657 94.2489C167.983 92.3605 166.395 90.2575 164.893 88.0257C156.309 75.1502 151.588 57.9828 151.588 39.7425C151.588 15.1931 162.532 0 172.661 0C182.747 0 193.648 15.1931 193.648 39.7425C193.648 58.0257 188.927 75.1502 180.343 88.0257C178.841 90.3004 177.253 92.3605 175.579 94.2489C182.06 100.472 189.7 104.077 197.854 104.077C199.056 104.077 200 105.021 200 106.223C200 107.425 199.142 108.369 197.94 108.369ZM172.704 4.29185C164.764 4.29185 155.923 18.8412 155.923 39.7425C155.923 60.7296 162.489 79.3562 172.661 91.1159C182.833 79.3562 189.399 60.6867 189.399 39.7425C189.442 18.8412 180.644 4.29185 172.704 4.29185Z" fill="#353E44"/>
<path d="M147.425 108.369C138.283 108.369 129.571 104.549 122.146 97.382C114.721 104.549 106.009 108.369 96.8669 108.369C95.6652 108.369 94.721 107.425 94.721 106.223C94.721 105.021 95.6652 104.077 96.8669 104.077C105.064 104.077 112.704 100.472 119.142 94.2489C117.468 92.3605 115.88 90.2575 114.378 88.0257C105.794 75.1502 101.073 57.9828 101.073 39.7425C101.073 28.8841 103.305 18.8412 107.382 11.4163C111.33 4.16308 116.695 0 122.103 0C132.232 0 143.176 15.1931 143.176 39.7425C143.176 58.0257 138.455 75.1502 129.871 88.0257C128.369 90.3004 126.781 92.3605 125.107 94.2489C131.588 100.472 139.227 104.077 147.382 104.077C148.584 104.077 149.528 105.021 149.528 106.223C149.528 107.425 148.627 108.369 147.425 108.369ZM122.146 4.29185C114.249 4.29185 105.451 18.8412 105.451 39.7425C105.451 60.7296 112.017 79.3562 122.189 91.1159C132.36 79.3562 138.927 60.6867 138.927 39.7425C138.884 18.8412 130.043 4.29185 122.146 4.29185Z" fill="#353E44"/>
</svg>
