<svg width="200" height="141" viewBox="0 0 200 141" fill="none" xmlns="http://www.w3.org/2000/svg">
<path d="M77.1118 140.427C68.4416 140.427 59.8272 139.145 51.3242 136.552C33.036 130.976 15.7792 119.518 0 102.457L2.03513 100.561C17.4798 117.26 34.3184 128.467 52.1327 133.876C67.9677 138.699 84.2208 138.894 100.418 134.433C109.646 131.896 118.679 127.882 127.265 122.529C135.434 117.428 142.989 111.183 149.763 104.018C163.061 89.9394 172.289 73.2402 175.774 56.9592C178.06 46.3096 177.753 36.3849 174.993 27.6868C173.599 27.9656 172.205 28.1886 170.839 28.3001C163.061 29.0529 155.617 27.3523 150.432 23.6165C145.079 19.7972 142.292 14.2494 142.961 8.81309C143.435 4.96586 145.609 1.92711 148.815 0.644706C151.101 -0.275283 155.924 -1.00012 162.364 4.32467C169.055 9.8446 173.878 16.6191 176.805 24.3693C184.026 22.4178 191.302 18.3475 198.16 12.3815L200 14.4724C192.891 20.6614 185.308 24.9268 177.725 26.9898C180.569 36.1061 180.875 46.4211 178.506 57.5167C174.909 74.2717 165.431 91.4448 151.798 105.886C144.856 113.218 137.106 119.602 128.743 124.843C119.933 130.363 110.65 134.489 101.143 137.082C93.1419 139.312 85.1129 140.427 77.1118 140.427ZM152.3 2.81922C151.436 2.81922 150.627 2.95862 149.875 3.26528C147.644 4.15739 146.111 6.35979 145.749 9.17551C145.553 10.8203 145.414 16.5912 152.077 21.3863C154.279 22.9753 160.468 26.5159 170.588 25.5402C171.759 25.4286 172.902 25.2614 174.073 25.0384C171.313 17.8736 166.797 11.6288 160.608 6.52706C157.653 4.07376 154.781 2.81922 152.3 2.81922Z" fill="#353E44"/>
</svg>
