<svg width="200" height="310" viewBox="0 0 200 310" fill="none" xmlns="http://www.w3.org/2000/svg">
<path d="M133.989 309.812C133.655 309.812 133.238 309.729 132.905 309.645C84.0453 296.305 46.1917 269.457 23.2628 232.187C2.91861 199.086 -4.41866 159.482 2.58508 120.711C9.00518 85.1087 27.0148 53.5919 53.4456 31.8303C82.6279 7.73406 120.148 -3.0217 161.92 0.730303C164.255 0.897058 165.922 2.9815 165.672 5.2327C165.505 7.56728 163.421 9.23484 161.17 8.98471C121.649 5.48284 86.2131 15.5716 58.7818 38.167C33.9352 58.6779 16.9261 88.4438 10.8395 122.129C4.25264 158.898 11.173 196.418 30.4333 227.768C52.1949 263.287 88.4643 288.801 135.156 301.558C137.407 302.141 138.658 304.476 138.074 306.644C137.491 308.645 135.823 309.812 133.989 309.812Z" fill="white"/>
<path d="M195.772 254.866C195.438 254.866 195.021 254.783 194.688 254.699C126.902 236.106 94.3841 196.502 79.126 166.569C78.0421 164.484 78.8758 161.983 80.9603 160.983C83.0447 159.899 85.5461 160.732 86.5466 162.817C101.054 191.249 132.071 228.852 196.939 246.695C199.19 247.279 200.441 249.613 199.857 251.781C199.274 253.615 197.606 254.866 195.772 254.866Z" fill="white"/>
</svg>
