<svg width="48" height="48" viewBox="0 0 48 48" fill="none" xmlns="http://www.w3.org/2000/svg">
<path d="M25.3396 28.8889C23.2694 28.8889 22.9494 31.1733 22.9689 32.3822C23.0169 35.3956 26.6836 38.2667 30.5689 39.2356C31.2628 39.406 31.9963 39.2362 32.5447 38.7782C33.093 38.3202 33.3908 37.6287 33.3467 36.9156C33.3472 36.9064 33.3454 36.8972 33.3414 36.8889C25.8 36.8889 25.3743 29.2178 25.3396 28.8889ZM9.38671 11.2533C9.95735 11.7126 10.7908 11.6295 11.2596 11.0667C11.3938 10.8978 15.504 6.66667 23.5609 6.66667C31.6178 6.66667 34.84 10.0089 34.9672 10.1689C35.4286 10.744 36.2689 10.8361 36.844 10.3747C37.4192 9.9132 37.5113 9.07289 37.0498 8.49778C36.888 8.30222 32.984 4 23.5609 4C14.1378 4 9.34582 9.19111 9.18404 9.38667C8.72776 9.95903 8.81822 10.7922 9.38671 11.2533ZM38.976 16.2044C38.8107 15.8756 34.9245 8.44444 23.5609 8.44444C12.248 8.44444 8.33871 16.3911 8.17782 16.6756C7.8541 17.3108 8.08738 18.0883 8.70733 18.4404C9.32729 18.7925 10.1145 18.5945 10.4943 17.9911C10.5254 17.9378 13.7832 11.1111 23.5609 11.1111C33.2098 11.1111 36.3876 17.1911 36.5218 17.4489C36.7502 17.92 37.2268 18.22 37.7503 18.2222C37.9638 18.224 38.1744 18.172 38.3627 18.0711C39.044 17.7219 39.3174 16.8896 38.976 16.2044ZM23.5609 12.8889C13.9209 12.8889 8.89426 21.8044 8.89426 27.0844C8.89426 35.3778 10.7503 38.4089 11.064 38.72C11.5769 39.2334 12.4077 39.2374 12.9254 38.7289C13.4464 38.2185 13.4642 37.3854 12.9654 36.8533C12.9423 36.8267 11.5618 34.2667 11.5618 27.0844C11.5618 23.6 15.1014 15.5556 23.5618 15.5556C31.3938 15.5556 36.4507 21.1911 36.4507 28.8889C36.4921 30.7014 35.1415 32.2449 33.3396 32.4444C32.5427 32.5359 31.7364 32.3939 31.0187 32.0356C30.3438 31.4601 29.904 30.6565 29.7832 29.7778C29.7832 25.2978 26.9654 22.4444 23.896 22.4444C22.238 22.4954 20.6716 23.2172 19.5556 24.4444C18.3458 25.7333 17.7778 28.2756 17.7778 30.4444C17.7778 40.1778 28.0249 43.7778 28.4605 43.9289C28.5998 43.9741 28.7451 43.9981 28.8916 44C29.5444 44.0012 30.102 43.5295 30.2092 42.8856C30.3164 42.2416 29.9416 41.6148 29.3236 41.4044C28.9618 41.28 20.4454 38.2489 20.4454 30.4444C20.4454 28.9689 20.5929 27.0044 21.3289 26.2222C22.0128 25.5414 22.9289 25.1445 23.8934 25.1111C25.7147 25.1111 27.1129 27.0044 27.1129 29.7778C27.1129 31.36 28.6312 33.2978 29.7796 34.2222C30.8209 34.933 32.0819 35.2483 33.3352 35.1111C36.6328 34.9537 39.1999 32.1892 39.1129 28.8889C39.12 19.7156 32.8685 12.8889 23.5609 12.8889ZM16.0249 29.7511C16.0249 27.2178 15.936 20 23.5609 20C27.0543 20 29.5254 22.5689 30.9049 25.0044C31.5614 26.1993 31.9385 27.5274 32.008 28.8889C32.008 29.6253 32.605 30.2222 33.3414 30.2222C34.0778 30.2222 34.6747 29.6253 34.6747 28.8889C34.6747 28.7822 34.5485 17.3333 23.5636 17.3333C12.9858 17.3333 13.3672 27.9022 13.3672 29.7511C13.3672 29.8933 12.1849 36.2844 19.0649 43.1644C19.5893 43.6607 20.4134 43.6494 20.924 43.139C21.4346 42.6287 21.4462 41.8046 20.9503 41.28C14.8952 35.2267 16.0249 29.9289 16.0249 29.7511Z" fill="#3E85E4"/>
</svg>
