<svg width="48" height="48" viewBox="0 0 48 48" fill="none" xmlns="http://www.w3.org/2000/svg">
<path d="M33.5164 24.6087C35.7191 24.6087 38.1356 23.4261 40.3208 21.2782C44.0225 17.6348 44.7243 13.4261 42.0669 10.8087C41.0257 9.77673 39.6135 9.20647 38.1477 9.22608C35.9425 9.22608 33.5391 10.4 31.3799 12.5304C28.2225 15.6348 27.2495 19.1478 28.6625 21.7565L24.7199 25.6348L19.806 20.8L21.9356 18.6956C22.1811 18.4571 22.3197 18.1293 22.3197 17.7869C22.3197 17.4446 22.1811 17.1168 21.9356 16.8783L14.0791 9.13912C13.565 8.63478 12.7418 8.63478 12.2277 9.13912C11.9821 9.37943 11.8437 9.70855 11.8437 10.0522C11.8437 10.3958 11.9821 10.7249 12.2277 10.9652L19.1582 17.7913L17.9547 18.9739L10.5869 11.7217C10.0728 11.2174 9.24963 11.2174 8.73557 11.7217C8.49047 11.9605 8.35224 12.2882 8.35224 12.6304C8.35224 12.9726 8.49047 13.3003 8.73557 13.5391L16.1034 20.8L14.8991 21.9826L7.09557 14.2956C6.58122 13.7912 5.75775 13.7912 5.2434 14.2956C4.99823 14.5362 4.86011 14.8652 4.86011 15.2087C4.86011 15.5521 4.99823 15.8812 5.2434 16.1217L13.9738 24.713C14.4856 25.223 15.3134 25.223 15.8251 24.713L17.9547 22.6174L22.8686 27.4609L12.4025 37.7652C12.157 38.0038 12.0184 38.3316 12.0184 38.6739C12.0184 39.0163 12.157 39.344 12.4025 39.5826C12.9143 40.0926 13.7421 40.0926 14.2538 39.5826L24.7199 29.2782L34.9808 39.3826C35.4976 39.8811 36.3162 39.8811 36.833 39.3826C37.0781 39.1421 37.2163 38.813 37.2163 38.4696C37.2163 38.1261 37.0781 37.7971 36.833 37.5565L26.5721 27.4609L30.4077 23.6783C31.3244 24.2991 32.4094 24.6238 33.5164 24.6087ZM33.2312 14.3478C34.8112 12.7913 36.6147 11.8087 38.1469 11.8087C38.9202 11.7895 39.6675 12.088 40.2147 12.6348C41.9191 14.313 40.8547 17.1043 38.4686 19.4522C36.8756 21.0261 35.0564 22.0348 33.5121 22.0348C32.7535 22.051 32.0207 21.7593 31.4808 21.2261C29.7817 19.5478 30.846 16.6956 33.233 14.3478H33.2312Z" fill="#3E85E4"/>
</svg>
