<svg width="48" height="48" viewBox="0 0 48 48" fill="none" xmlns="http://www.w3.org/2000/svg">
<path d="M24 4C12.9543 4 4 12.9543 4 24C4 35.0457 12.9543 44 24 44C35.0457 44 44 35.0457 44 24C43.9875 12.9595 35.0405 4.01252 24 4ZM35.2036 10.8636L30.7364 15.3364C30.716 15.3556 30.6977 15.3769 30.6818 15.4C26.7597 12.3198 21.2403 12.3198 17.3182 15.4C17.3023 15.3769 17.284 15.3556 17.2636 15.3364L12.7964 10.8636C19.2473 5.3484 28.7527 5.3484 35.2036 10.8636ZM24 32.1818C19.4813 32.1818 15.8182 28.5187 15.8182 24C15.8182 19.4813 19.4813 15.8182 24 15.8182C28.5187 15.8182 32.1818 19.4813 32.1818 24C32.1818 28.5187 28.5187 32.1818 24 32.1818V32.1818ZM6.72727 24C6.72417 19.8917 8.19326 15.9182 10.8682 12.8L15.3345 17.2636L15.3955 17.3182C12.3228 21.2429 12.3228 26.7571 15.3955 30.6818L15.3345 30.7364L10.8682 35.2C8.19326 32.0818 6.72417 28.1083 6.72727 24V24ZM12.7964 37.1364L17.2636 32.6636C17.284 32.6444 17.3023 32.6231 17.3182 32.6C21.2403 35.6802 26.7597 35.6802 30.6818 32.6C30.6977 32.6231 30.716 32.6444 30.7364 32.6636L35.2036 37.1364C28.7527 42.6516 19.2473 42.6516 12.7964 37.1364ZM37.1318 35.2L32.6655 30.7364L32.6045 30.6818C35.6772 26.7571 35.6772 21.2429 32.6045 17.3182L32.6655 17.2636L37.1318 12.8C42.6529 19.2461 42.6529 28.7539 37.1318 35.2Z" fill="white"/>
</svg>
