<svg width="36" height="36" viewBox="0 0 36 36" fill="none" xmlns="http://www.w3.org/2000/svg">
<path fill-rule="evenodd" clip-rule="evenodd" d="M18 9C18 8.60218 17.842 8.22064 17.5607 7.93934C17.2794 7.65804 16.8978 7.5 16.5 7.5C16.1022 7.5 15.7206 7.65804 15.4393 7.93934C15.158 8.22064 15 8.60218 15 9V24C15 24.3978 15.158 24.7794 15.4393 25.0607C15.7206 25.342 16.1022 25.5 16.5 25.5C16.8978 25.5 17.2794 25.342 17.5607 25.0607C17.842 24.7794 18 24.3978 18 24V9ZM13.5 13.5C13.5 13.1022 13.342 12.7206 13.0607 12.4393C12.7794 12.158 12.3978 12 12 12C11.6022 12 11.2206 12.158 10.9393 12.4393C10.658 12.7206 10.5 13.1022 10.5 13.5V24C10.5 24.3978 10.658 24.7794 10.9393 25.0607C11.2206 25.342 11.6022 25.5 12 25.5C12.3978 25.5 12.7794 25.342 13.0607 25.0607C13.342 24.7794 13.5 24.3978 13.5 24V13.5ZM22.5 13.5C22.5 13.1022 22.342 12.7206 22.0607 12.4393C21.7794 12.158 21.3978 12 21 12C20.6022 12 20.2206 12.158 19.9393 12.4393C19.658 12.7206 19.5 13.1022 19.5 13.5V24C19.5 24.3978 19.658 24.7794 19.9393 25.0607C20.2206 25.342 20.6022 25.5 21 25.5C21.3978 25.5 21.7794 25.342 22.0607 25.0607C22.342 24.7794 22.5 24.3978 22.5 24V13.5ZM27 19.5C27 19.1022 26.842 18.7206 26.5607 18.4393C26.2794 18.158 25.8978 18 25.5 18C25.1022 18 24.7206 18.158 24.4393 18.4393C24.158 18.7206 24 19.1022 24 19.5V24C24 24.3978 24.158 24.7794 24.4393 25.0607C24.7206 25.342 25.1022 25.5 25.5 25.5C25.8978 25.5 26.2794 25.342 26.5607 25.0607C26.842 24.7794 27 24.3978 27 24V19.5ZM9 22.5C9 22.1022 8.84196 21.7206 8.56066 21.4393C8.27936 21.158 7.89782 21 7.5 21C7.10218 21 6.72064 21.158 6.43934 21.4393C6.15804 21.7206 6 22.1022 6 22.5V24C6 24.3978 6.15804 24.7794 6.43934 25.0607C6.72064 25.342 7.10218 25.5 7.5 25.5C7.89782 25.5 8.27936 25.342 8.56066 25.0607C8.84196 24.7794 9 24.3978 9 24V22.5ZM31.5 22.5C31.5 22.1022 31.342 21.7206 31.0607 21.4393C30.7794 21.158 30.3978 21 30 21C29.6022 21 29.2206 21.158 28.9393 21.4393C28.658 21.7206 28.5 22.1022 28.5 22.5V24C28.5 24.3978 28.658 24.7794 28.9393 25.0607C29.2206 25.342 29.6022 25.5 30 25.5C30.3978 25.5 30.7794 25.342 31.0607 25.0607C31.342 24.7794 31.5 24.3978 31.5 24V22.5ZM6 27C5.60218 27 5.22064 27.158 4.93934 27.4393C4.65804 27.7206 4.5 28.1022 4.5 28.5C4.5 28.8978 4.65804 29.2794 4.93934 29.5607C5.22064 29.842 5.60218 30 6 30H31.5C31.8978 30 32.2794 29.842 32.5607 29.5607C32.842 29.2794 33 28.8978 33 28.5C33 28.1022 32.842 27.7206 32.5607 27.4393C32.2794 27.158 31.8978 27 31.5 27H6Z" fill="#509DE0"/>
</svg>
