<svg width="48" height="48" viewBox="0 0 48 48" fill="none" xmlns="http://www.w3.org/2000/svg">
<path d="M41.4956 36.6869L38.4521 33.6174C37.3886 32.5276 35.7269 32.2854 34.3965 33.0261L30.9939 29.7217C31.3469 28.9478 31.6808 28.1739 31.9921 27.4174C33.7931 23.2016 35.0279 18.766 35.6643 14.2261C36.2286 9.26954 35.2452 6.22606 32.7408 5.18258C32.233 4.97076 31.6884 4.86141 31.1382 4.86084C26.913 4.86084 22.3182 11.4782 19.1191 18.2L16.0869 15.2608C16.4795 14.0315 16.1591 12.6858 15.2547 11.7652L12.2113 8.69562C11.7299 8.20573 11.0719 7.92978 10.3852 7.92978C9.69839 7.92978 9.0404 8.20573 8.55908 8.69562L7.34169 9.92171C6.33402 10.9408 6.33402 12.5809 7.34169 13.6L10.3852 16.6695C11.0257 17.324 11.9041 17.6911 12.8199 17.6869C13.3832 17.682 13.9365 17.5387 14.4313 17.2695L17.9852 20.713C17.8826 20.9565 17.7817 21.2 17.6826 21.4434C15.8822 25.6593 14.6477 30.0949 14.0113 34.6348C13.4469 39.5913 14.4304 42.6348 16.9347 43.6782C17.4425 43.8901 17.9872 43.9994 18.5373 44C22.4417 44 26.6608 38.3478 29.8043 32.1826L32.7469 35.0348C32.6372 35.369 32.5786 35.7178 32.573 36.0695C32.5688 36.9886 32.9316 37.8713 33.5808 38.5217L36.6243 41.5913C37.1055 42.0814 37.7635 42.3575 38.4504 42.3575C39.1372 42.3575 39.7953 42.0814 40.2765 41.5913L41.4939 40.3652C42.502 39.3466 42.5028 37.7065 41.4956 36.6869ZM9.17212 11.7652L10.3895 10.5304L12.6686 12.8348C12.3367 12.9085 12.0508 13.1177 11.88 13.4117C11.7092 13.7057 11.6691 14.0577 11.7695 14.3826L9.17212 11.7652ZM31.1399 7.46954C31.3503 7.46675 31.5591 7.50515 31.7547 7.58258C34.3886 8.68693 33.4286 17.1217 29.6095 26.4261C29.4165 26.8956 29.2191 27.3478 29.0199 27.8087L28.3504 27.1565C28.5556 26.7391 28.7243 26.3565 28.8513 26.0434C30.6773 21.5913 30.2921 18.1913 27.8408 17.1652C27.4528 17.0019 27.0357 16.9191 26.6147 16.9217C24.4634 16.9217 22.8356 19 21.8191 20.8174L21.0869 20.113C24.4782 12.6956 28.6234 7.46954 31.1399 7.46954ZM22.7373 25.3217L25.093 27.6087C24.3913 28.6174 23.6756 29.2434 23.1399 29.2434C23.0576 29.2439 22.9763 29.2261 22.9017 29.1913C22.2052 28.9043 22.1791 27.2956 22.7373 25.3217ZM23.7539 22.6956C24.6947 20.8087 25.8408 19.5217 26.6147 19.5217C26.697 19.5214 26.7784 19.5392 26.853 19.5739C27.7304 19.9391 27.5582 22.3913 26.4669 25.0434C26.4391 25.113 26.4078 25.1739 26.3799 25.2434L23.7539 22.6956ZM18.5365 41.3913C18.3252 41.3954 18.1155 41.3539 17.9217 41.2695C15.313 40.1826 16.2365 31.8695 19.9808 22.6521L20.6765 23.3304C20.2048 24.55 19.9032 25.8286 19.7799 27.1304C19.5669 30.1565 21.0252 31.2261 21.913 31.6C22.301 31.7634 22.7181 31.8463 23.1391 31.8434C24.7043 31.8434 25.9956 30.7391 26.9739 29.4348L27.8599 30.2956C24.6208 36.8782 20.8773 41.3913 18.5399 41.3913H18.5365ZM38.4495 39.7565L35.7339 37.0087C35.9462 36.9494 36.1393 36.8355 36.2939 36.6782C36.6036 36.3442 36.7149 35.8719 36.5869 35.4348C36.5982 35.4434 36.613 35.4434 36.6243 35.4521L39.6678 38.5217L38.4495 39.7565Z" fill="#3E85E4"/>
</svg>
