<svg width="1737" height="1725" fill="none" xmlns="http://www.w3.org/2000/svg"><path d="M1110.9 203.43c-105.4-165.1-494.997-264.7-651.097-161.3-156.1 103.4-84 337.8-183 398.6-99 60.9-326.6 263.6-267 505.1 84 340.8-4.1 498.3 123 610.8 183 162 387 29 636.1 99 248.997 70 626.497 128.5 783.097-46.5 117-130.8 70.6-305.3 147-477.7 93-210 12-416.9-225-456.4s-264.1-316.4-363.1-471.6z" fill="#FFC400"/><path d="M1447.1 988.83s21.5-17 32.5-10.5c6.2 3.6 14.1 1.8 18.1-4.1l30.8-46.2c2.6-3.9 3-8.8 1.1-13-1.9-4.1-3.1-10.9 0-21.1 0-.1-69.5 86.9-82.5 94.9zM1024.8 1076.33l77.6-53c11.2-8.4 22.2-6.1 26.2-.7 4.9 6.6 2.7 14.9-7.7 21.1l-31.8 21.1c-5.1 3.4-6.6 10.1-3.6 15.4 3.9 6.8.1 15.5-7.6 17.1l-30 6.3c-10.5 2.2-21.3-2.6-26.6-11.9-3-5.4-1.5-12 3.5-15.4zM1460.7 1008.73c3.2 1 6.6.4 9.4-1.4 7.9-4.7 9.6-11 5.8-16-3-4-11.4-5.8-19.9.6-6.2 4.5-4.5 14.1 2.8 16.3l1.9.5z" fill="#fff"/><path d="M1106.1 1088.53c2.6.8 5.5.4 7.7-1.2l.8-.5c7.9-4.7 9.6-11 5.8-16-3-4-11.4-5.8-19.9.6-6.2 4.5-4.5 14.1 2.8 16.3l2.8.8zM1208.8 1049.83s-32.7 72.7-42 147.3c-9.3 74.7-5.3 114.8-5.3 114.8s-71.1 8.5-100.2-1.5c0 0 37.9-88.4 41.7-132.8l35.2-36.5 70.6-91.3zM1044.2 727.03c-3 3.6-6.4 6.7-10.1 8.3-21.5 9.4-48.198 17.8-71.998 16.8-32.6-1.3-58.1-16.7-84.1-35.8-13.8-10.1-26-20.4-36.4-33.9-7.1-9.2-12.4-18.8-15.7-29.3-27.4-.9-60.5-.8-97.8 1.7-106 7-257 107-302 284s53.5 302 53.5 302c7.5-38 40.5-106 116.5-163s208.8-50.2 208.8-50.2c25.8 63.8 81.8 59.8 134.2 56.8 52.4-3 179.498-100 179.498-100l95.5-60.5c-17.7-30.9-130.4-154.1-169.9-196.9z" fill="#fff"/><path d="M720.402 1002.03h-1.2c-5.8-.1-19.7-1.4-22.7-12.3-2.7-10 6.5-18.5 16.9-22.6 1.7-.7 3.5-1.3 5.3-1.9-1.5-.1-3-.3-4.5-.5-3.7-.4-14.8-1.7-18.1-10.2-2.8-7.2 2.1-15 8.3-19 9.6-6.1 21.6-6.3 31.2-6.4l64.3-.7c1.6 0 3 1.3 3 3s-1.3 3-3 3l-64.3.7c-8.9.1-19.9.2-28 5.4-4.1 2.6-7.6 7.7-6 11.8 1.3 3.4 5.7 5.5 13.2 6.4 9.5 1.1 19.1 1.5 28.7 1.4 2.9-.2 5.9-.3 8.8-.3 1.6 0 2.9 1.3 3 2.9 0 1.6-1.2 3-2.8 3.1-2.9.2-5.7.3-8.6.3-9.7.8-19.3 3-28.3 6.5-7.6 3-15.1 9.2-13.3 15.5 2 7.2 13.5 7.9 17 7.9 9.4.1 19.1-1 28.4-2.1 15.6-1.8 31.7-3.7 47.4-.1 1.6.4 2.6 2 2.3 3.6-.4 1.6-2 2.6-3.6 2.3-14.7-3.3-29.6-1.6-45.4.2-9.1 1-18.6 2.1-28 2.1zM912.902 1091.23c-.5 0-1-.1-1.5-.4-10.8-6.4-18.6-18-21.5-31.8-2.3-11.4-1.3-24.2 2.9-38 3.4-11.1 8.5-17.7 15.5-20.2 8.6-3.1 17.4 1 23.4 5 10 6.8 18 16.3 22.9 27.2 3.5-10 7.8-19.7 12.7-29 2.1-4 4.7-8.4 9.2-10.8 5.6-3 15.6-2.9 25.298 7.5 1.3 1.4 2.5 2.8 3.7 4.4 1.9-3.8 5.5-6.5 10.2-7.5 6.9-1.5 14.7.9 19.3 5.9 7.3 7.9 8.5 18.9 9.2 30.4.1 1.7-1.2 3.1-2.8 3.2-1.6.1-3.1-1.2-3.2-2.8-.6-10.4-1.6-20.2-7.6-26.7-3.2-3.4-8.8-5.1-13.7-4.1-2.3.5-5.3 1.8-6.4 5.2-.4 1.2-.5 2.3-.4 3.6 3 5.6 5.2 11.7 6.2 18 .6 2.1.9 4.4.7 6.7-.1 1.6-1.4 2.8-3 2.8s-2.9-1.3-3-2.9c-.1-1.8-.3-3.5-.6-5.3-.6-2.3-1.6-4.6-2.7-7-1.5-3.4-3-6.8-3.5-10.4-1.9-3.3-4.2-6.4-6.698-9.2-5-5.3-12.5-9.4-18.1-6.3-3 1.6-5 5-6.7 8.4-6.1 11.5-11.1 23.7-14.9 36.1-.4 1.3-1.6 2.1-2.9 2.1-1.3 0-2.5-.9-2.9-2.1-3.8-12.9-12.4-24.6-23.6-32.2-3.9-2.6-11.4-6.7-18-4.4-5.1 1.8-8.9 7.2-11.8 16.3-4 12.8-4.9 24.6-2.8 35 2.4 12 9.4 22.4 18.6 27.9 1.4.8 1.9 2.7 1.1 4.1-.6.8-1.6 1.3-2.6 1.3zM1082.3 932.831c-6.2 0-12.4-.7-18.5-2.1-8.8-2-14.3-5.8-16.3-11.4-2.3-6.3.9-13 5.1-17-21.3 1.9-42.7.8-63.798-3.5-3.9-.8-8.4-1.9-11.6-5.2-5.3-5.5-4.2-14.201-.5-19.601 3.8-5.5 9.8-8.499 15.1-10.699.7-.3 1.4-.601 2.1-.801-5.7-.1-11.5-.199-17.2-.399-16.5-.7-22.2-8.5-22.1-14.9.1-4.3 2.6-7.9 5-10.7 18-21.3 44.898-30.6 70.798-39.7 11.1-3.9 22.6-7.9 33.2-12.8 1.5-.7 3.3 0 4 1.5.7 1.5 0 3.3-1.5 4-10.8 5-22.5 9.1-33.7 13-26.4 9.2-51.298 17.899-68.198 37.899-1.8 2.1-3.6 4.5-3.6 7 0 .9-.1 3.801 4.7 6.201 3 1.5 7.2 2.4 11.6 2.6 13 .5 26.198.599 39.298.299 8.6-1.4 17.4-1.899 26.1-1.199 1.6.1 2.8 1.4 2.8 3s-1.2 2.9-2.8 3c-8.5.6-17 .999-25.5 1.199-7.8 1.3-15.4 3.501-22.698 6.601-4.5 1.9-9.6 4.4-12.5 8.6-2.4 3.4-3.1 8.9-.2 11.9 2 2 5.2 2.8 8.4 3.5 25.898 5.2 52.198 5.599 78.298 1.299 1.5-.3 3 .701 3.4 2.201.4 1.5-.4 3.1-1.9 3.6-4.6 1.6-9.4 3.3-12.9 6.5-2.8 2.5-5.1 6.899-3.7 10.799 1.3 3.5 5.3 6.101 12 7.601 13.6 3.1 27.9 2.4 41.2-1.9 1.6-.5 3.3.4 3.8 1.9.5 1.6-.4 3.299-1.9 3.799-8.3 2.5-17.1 3.901-25.8 3.901zM414.302 973.83c-1.4 0-2.7-1-3-2.5-.3-1.6.8-3.2 2.4-3.5l66.9-11.6c7.4-1.3 15.8-2.7 21.8-7.6 5.2-4.2 8.2-12.6 4.2-17.9-3.1-4.1-9.3-5.2-15.4-6-3.4-.4-6.8-.9-10.3-1.2-12.8 2-25.8 3.3-38.8 3.7-1.4.1-2.7-.9-3-2.3-.3-1.4.4-2.8 1.7-3.4 12.7-5.5 27-5.3 39.9-4 7.6-1.2 15.1-2.7 22.6-4.5 7.2-1.7 15.4-4 21-9.3 4.8-4.6 7.5-12.9 3.5-18.5-2.9-4-8.4-5.7-13.4-6.7-29-6.2-60.2-.8-85.4 14.8-1.4.9-3.3.4-4.1-1-.9-1.4-.4-3.3 1-4.1 26.6-16.4 59.3-22 89.8-15.6 5.8 1.2 12.9 3.4 17 9.1 5.9 8.3 2.5 19.9-4.2 26.3-6.6 6.3-15.7 8.9-23.7 10.8l-5.4 1.2c4.7 1.1 9.1 3.1 12.1 7.1 6.2 8.1 2.3 20.1-5.1 26.1-7.2 5.9-16.8 7.5-24.5 8.9l-66.9 11.6c-.3.1-.5.1-.7.1zM805.303 830.23c-9.7 0-18.6-4.4-23.1-11.6-4.1-6.7-4.8-15.6-1.7-24.5 1.2-3.6 3-6.9 5.1-10-12 4.6-24.2 8.2-36.6 10.8-6.1 1.2-13.1 2.4-20.1.8-8-1.9-14.1-7.5-15.6-14.3-1.6-7.2 1.8-15.1 9.8-22.7 6.6-6.2 14.2-11.3 22.4-15.1-2.1-.2-4.3-.5-6.4-.9-2.4-.4-5.1-1-7.4-2.7-4.3-3.1-6.8-10.4-3.5-17.4 2.6-5.5 7.8-9 11.9-11.5 21.3-12.7 46.9-15.7 69.5-18.4 1.6-.2 3.1 1 3.3 2.6.2 1.6-1 3.1-2.6 3.3-22 2.6-47 5.6-67.2 17.6-3.4 2-7.6 4.9-9.6 9-1.5 3.1-1.4 7.8 1.5 9.9 1.3 1 3.3 1.4 5 1.7 8.9 1.6 17.9 1.7 26.8.3h.3c1.6-.3 3.2.9 3.4 2.5.3 1.6-.9 3.2-2.5 3.4-.1 0-.2 0-.3.1-15.1 2.4-29.5 9.5-40.6 20-4.5 4.2-9.5 10.6-8.1 17.1 1.1 5.2 6.4 8.6 11.1 9.7 5.8 1.3 12.1.3 17.5-.9 17.3-3.6 34.3-9.2 50.6-17 2-1.2 4.2-2.3 6.4-3.1 1.5-.6 3.2.1 3.8 1.6.6 1.5 0 3.2-1.4 3.9l-6 3c-7 4.3-12.4 10.9-15.1 18.7-2.5 7.1-2 14.4 1.1 19.4 4 6.4 13 9.9 21.9 8.5 7.3-1.1 14.8-4.9 23.6-12 18.4-14.9 32.8-35.4 40.6-57.8.5-1.6 2.3-2.4 3.8-1.8 1.6.5 2.4 2.3 1.8 3.8-8.1 23.4-23.2 44.9-42.5 60.5-6.1 4.9-15.4 11.6-26.5 13.3-1.2.1-2.8.2-4.4.2z" fill="#FFC400"/><path d="M1072.19 483.866c12.22-1.567 21.56-7.233 20.86-12.657-.69-5.423-11.16-8.55-23.38-6.983-12.21 1.567-21.55 7.233-20.86 12.656.7 5.424 11.16 8.55 23.38 6.984zM1057 518.83l27.8 28.5s-16.2 8.5-27.5-3-.3-25.5-.3-25.5z" fill="#fff"/><path d="M1072.1 553.33c-5.7 0-11.9-1.7-17-6.9-10.4-10.6-4.8-23.9-.5-29.5.5-.7 1.3-1.1 2.2-1.1.9-.1 1.7.3 2.3.9l27.8 28.5c.7.7 1 1.6.8 2.6-.2.9-.7 1.7-1.6 2.2-3.1 1.6-8.3 3.3-14 3.3zm-14.6-29.7c-2.2 4.2-4.6 11.9 1.9 18.6 3.9 4 9.1 5.7 15.3 5 1.8-.2 3.4-.6 4.8-1l-22-22.6z" fill="#1A1A1A"/><path d="M1196.1 1006.53c15.02 0 27.2-12.312 27.2-27.5s-12.18-27.5-27.2-27.5-27.2 12.312-27.2 27.5 12.18 27.5 27.2 27.5z" fill="#fff"/><path d="M1196.1 985.73a6.7 6.7 0 1 0 0-13.4 6.7 6.7 0 0 0 0 13.4z" fill="#1A1A1A"/><path d="M1196.1 988.73c-5.3 0-9.7-4.4-9.7-9.7 0-5.3 4.3-9.7 9.7-9.7 5.3 0 9.7 4.4 9.7 9.7 0 5.3-4.4 9.7-9.7 9.7zm0-13.5c-2 0-3.7 1.7-3.7 3.7s1.6 3.7 3.7 3.7c2 0 3.7-1.7 3.7-3.7s-1.7-3.7-3.7-3.7z" fill="#1A1A1A"/><path d="M1196.5 974.83c-1.8-.1-3-1.5-3-3.1l.4-10.7c.1-1.7 1.4-3 3.1-2.9 1.7.1 2.9 1.5 2.9 3.1l-.4 10.7c-.1 1.6-1.4 2.9-3 2.9zM894.403 1502.53c-.6 0-1.3-.2-1.8-.6-34.9-27.2-73.4-61.1-114.3-101-1.2-1.2-1.2-3.1-.1-4.2 1.2-1.2 3.1-1.2 4.2-.1 40.8 39.7 79.1 73.6 113.8 100.6 1.3 1 1.5 2.9.5 4.2-.5.7-1.4 1.1-2.3 1.1zM419.402 974.331c-114.9-158.2-191.699-290.4-156.099-316.2 68.8-49.8 226.899 144.4 226.899 144.4s-40.5 62-48 80.9c-8.7 21.7-22.8 90.9-22.8 90.9z" fill="#1A1A1A"/><path d="M419.402 977.33c-.9 0-1.9-.4-2.4-1.2-53.5-73.6-94.8-136.2-122.7-185.9-31.5-56.1-45.7-95.8-42.2-117.7 1.2-7.5 4.4-13.1 9.5-16.8 16.6-12 39.3-11.6 67.5 1.2 21.9 10 47.3 27.7 75.5 52.4 47.8 42 87.6 90.8 88 91.2.8 1 .9 2.4.2 3.5-.4.6-40.4 62-47.8 80.4-8.5 21.3-22.5 89.7-22.6 90.4-.2 1.2-1.1 2.1-2.3 2.3-.3.2-.5.2-.7.2zm-129.6-324.3c-9.1 0-17.5 2.3-24.7 7.6-3.8 2.8-6.1 7-7.1 12.9-4.3 27.3 20 100.4 159.9 293.6 3.8-18 14.3-66.8 21.5-84.8 6.9-17.3 40.2-68.9 47.1-79.6-7.4-8.9-43.6-51.6-86-88.9-33.8-29.7-77.2-60.8-110.7-60.8zM664.602 1473.83c-.2 0-.5 0-.7-.1-59.7-14.7-115.6-41.8-166.1-80.7-40.4-31-77.4-69.5-110.1-114.5-55.6-76.5-79.7-146.1-79.9-146.8-.5-1.6.3-3.3 1.9-3.8 1.6-.5 3.3.3 3.8 1.9.2.7 24.1 69.6 79.2 145.4 32.3 44.4 69 82.5 108.9 113.2 49.8 38.3 104.9 65 163.8 79.5 1.6.4 2.6 2 2.2 3.6-.5 1.4-1.7 2.3-3 2.3zM1418.6 1270.83c-.9 0-1.8-.4-2.4-1.2-1-1.3-.7-3.2.6-4.2 59.5-44.1 101.1-109.3 125.6-156.2 26.6-50.9 39.2-91.8 39.3-92.2.5-1.6 2.2-2.5 3.7-2 1.6.5 2.5 2.2 2 3.7-.1.4-12.9 41.9-39.7 93.3-24.8 47.5-67 113.5-127.4 158.3-.5.3-1.1.5-1.7.5zM1055.3 485.83c3.1.9 6.7 1.4 10.6 1.4 2.2 0 4.4-.2 6.6-.5.3 0 .7-.1 1-.1h.4c.2 0 .4 0 .6-.1.1 0 1.3-.2 3.1-.7 9.6-2.2 16.4-6.8 18-12v-.1c.1-.2.1-.4.1-.6.1-.7.2-1.3.2-2-.1-2.5-1.4-4.6-3.9-6.2-3.8-2.8-10.2-4.3-17.8-4.1-1.6 0-3.3.2-5.1.4-6.3.8-12.1 2.7-16.4 5.3-5 3-7.5 6.8-7 10.7.5 3.9 4 6.9 9.6 8.6zm.6-14.1c3.5-2.1 8.4-3.7 13.6-4.4-1.1 3.5-1.7 8.5 0 13.8-4.7.4-9.2 0-12.6-1-3-.9-5-2.3-5.2-3.6-.1-1.3 1.5-3.2 4.2-4.8zM963.803 510.33l-11.9-12.8c2.1-2 4.1-2.8 4.3-2.9 1.6-.6 2.3-2.4 1.7-3.9-.6-1.5-2.4-2.3-3.9-1.7-5.6 2.2-15.5 10.6-12.3 26.4.2 1.4 1.5 2.4 2.9 2.4.2 0 .4 0 .5-.1 1.7-.3 2.7-1.9 2.4-3.5-1-5-.4-8.8.9-11.7l11 11.8c.6.7 1.4 1 2.2 1 .7 0 1.4-.3 2-.8 1.3-1.1 1.3-3 .2-4.2zM149.702 505.43c-.4 0-.8-.1-1.1-.2-48.8-19.7-74-49-86.6-70.1-13.7-23-15.7-41.1-15.8-41.9-.2-1.6 1-3.1 2.7-3.3 1.7-.2 3.1 1 3.3 2.7 0 .2 2 17.8 15.1 39.8 12.1 20.2 36.4 48.3 83.5 67.3 1.5.6 2.3 2.4 1.7 3.9-.5 1.1-1.6 1.8-2.8 1.8zM886.802 270.83c-.3 0-.7-.1-1-.2-28.7-10.2-48.1-41.3-48.9-42.6-.9-1.4-.4-3.3 1-4.1 1.4-.9 3.3-.4 4.1 1 .2.3 19.1 30.6 45.8 40.1 1.6.6 2.4 2.3 1.8 3.8-.4 1.2-1.6 2-2.8 2zM156.803 76.83c-.8 0-1.6-.3-2.1-.9-1.2-1.2-1.1-3.1.1-4.2 1.2-1.2 29.9-28.7 77.6-37.5 1.6-.3 3.2.8 3.5 2.4.3 1.6-.8 3.2-2.4 3.5-45.8 8.4-74.2 35.6-74.4 35.9-.8.5-1.6.8-2.3.8z" fill="#1A1A1A"/><path d="M1049.1 389.83c-1.3 0-2.5-.8-2.9-2.1-13.2-44.5-84.597-48.8-85.297-48.9-1.7-.1-2.901-1.5-2.801-3.2.1-1.7 1.5-2.9 3.2-2.8.8 0 19.101 1.1 39.598 8 27.5 9.3 45.1 24.9 51.2 45.1.5 1.6-.4 3.3-2 3.7-.4.2-.7.2-1 .2zM119.702 380.93c-1.3 0-2.4-.8-2.8-2.1-11.4-34.6-16.1-68.3-14-100.3 1.7-25.6 7.8-50.1 18-72.9 17.5-38.8 40.9-58.7 41.9-59.6 1.3-1.1 3.2-.9 4.2.4 1.1 1.3.9 3.2-.4 4.2-.1.1-6 5.1-13.8 14.6-7.3 8.8-17.8 23.5-26.6 43.1-9.9 22.1-15.8 45.9-17.4 70.7-2 31.1 2.6 64 13.7 97.8.5 1.6-.3 3.3-1.9 3.8-.2.3-.6.3-.9.3zM862.803 559.83h-.8c-51.1-.4-92-25.1-131.6-48.9-58.3-35.1-118.5-71.5-215.4-36.2-1.6.6-3.3-.2-3.8-1.8s.2-3.3 1.8-3.8c99.5-36.2 161 .9 220.5 36.7 40.7 24.5 79.1 47.7 128.5 48.1h.7c41 0 60.3-28.1 60.5-28.3.9-1.4 2.8-1.7 4.2-.8 1.4.9 1.7 2.8.8 4.2-.8 1.1-21.1 30.8-65.4 30.8z" fill="#FFC400"/><path d="M1600.5 883.63l-22.8-5.7c1.2-4.8.7-8.7.6-8.9-.2-1.6-1.8-2.7-3.4-2.5-1.6.2-2.7 1.8-2.5 3.4 0 0 1 7.1-3.5 12.9-3.4 4.4-9.1 7.1-16.9 8-1.6.2-2.8 1.7-2.6 3.3.2 1.6 1.5 2.7 3 2.7h.3c9.5-1.1 16.6-4.6 21-10.4.7-.9 1.3-1.9 1.8-2.9l23.6 5.9c.2.1.5.1.7.1 1.3 0 2.5-.9 2.9-2.3.4-1.6-.6-3.2-2.2-3.6z" fill="#1A1A1A"/><path d="M1656.3 850.63c-.7-1.5-1.9-2.5-3.4-3-4.6-1.4-11.8 3.2-23.2 10.8-5.6 3.7-16.8 11.2-20.2 11 .7-3.6 9.3-14 15-21 14-17.1 23-28.9 21.2-36.6-.8-3.5-2.8-4.9-4.4-5.4-1.7-.5-3.4-.4-5.1.2.2-.7.2-1.4.2-2-.1-2.1-1-3.3-1.7-4-7.1-6.6-16.2 2.2-32.8 18.3-3.4 3.3-7.2 7.1-11.4 11-4.4 4.1-13.5 12.9-19.4 18.6 3.3-20 2.4-33.7-2.6-39.9-2.4-3-5.1-3.4-6.4-3.4-4 0-5.5 3.9-13.3 34.3-3.5 13.6-7.1 27.8-10.2 35.2-3.1 7.6-29.6 43.8-63.5 80.1-24 25.7-69.3 69.9-102.3 77.1-18 3.9-36.9 1.2-56-8.2-16.5-8-33.6-21.2-50.9-39.1 24.7-26.9 31.1-27.8 32.3-27.7 4.3.6 11.4 4 18.3 7.2 14 6.6 28.6 13.4 34.7 5.9 1.3-1.6 1.7-3.5 1.1-5.5-1.7-6.1-14.8-12.9-27.2-18 14.5 1.2 31.7 2.6 35.8 2.9 2 .2 3.8.3 5.5.3 6.6 0 11.2-1.4 13.5-4.4 2.7-3.1 2-6.4 1.9-6.8-.2-.5-.4-1-.8-1.4-2.5-2.6-6.3-4.8-10.8-6.6 1.2-.8 2.2-1.9 3-3.2.9-1.8 1.5-4.8-.8-9-6.4-11.4-48.2-15.6-68.6-17 4.9-3.1 11.4-7.3 17.7-11.7 25.4-17.4 26.2-21.2 24.5-24.3-.6-1.2-2-2.8-4.8-3.5-7.9-1.9-27.1 5-57.2 20.3 6-19.8 4.9-31.6-3.3-35.2-.8-.4-2.2-.7-3.8 0-2.8 1.2-7.4 5.6-17.5 29.3-4.5 10.7-8.4 21.1-9.6 24.4-5.6 3.1-11.3 6.4-17.4 9.9-5.7 3.3-11.5 6.7-17.1 10.1-10-14.5-25.2-33.7-42.6-54.4-.1-.4-.3-.7-.6-1-.6-.7-3.1-3.5-6.9-7.9-21.4-25.2-45.1-51.8-65.6-74.5-39.1-43.2-74.4-80.6-82.1-88.7-.1-.1-.2-.3-.3-.4l22.3-91.6 3.8-15.3c4.3.7 8.6 1 12.8 1 13.7 0 26.5-3.6 38-10.6 20.3-12.6 27.8-38.4 22-74.6 3.2 1.6 6.1 2.1 8.5 2.1 1.1 0 2.2-.1 3-.3 6.1-1.1 10.8-5.2 12.7-8.8 1.9-3.7 1.5-8.7-1.1-12.3-1.7-2.4-5.9-6.1-14.5-4.5-10.8 2.1-15.5-6.1-16.7-8.7 0-.2-.1-.4-.1-.7-9.5-28.8-24.8-57.9-41-78.3 0-5-.5-9.9-1.4-14.6-4.2-21.1-20-47.4-71.597-52.7-116.2-12-161-79-190.5-123.4-2.2-3.2-4.3-6.3-6.3-9.3-29.5-43.2-78.8-115.5-238.7-105.3-66.3 4.2-101.1-12-134.9-27.6-22.6-10.5-44-20.5-73.1-23.1-32.5-2.9-70 3.7-118.1 20.9-47.5 17-89.3 46.1-120.9 84.2-29.4 35.4-49.4 77.5-57.7 121.6-6.8 36-5.4 72.3 4 104.7 10.1 34.6 28.5 63.7 54.7 86.6 43 37.5 94.6 58.2 157.6 63.3 55.4 4.5 112.1-3.2 167-10.7 25.7-3.5 49.9-6.8 73.7-8.9 73.5-6.3 116.1 16.8 161.3 41.3 33.2 18 67.6 36.7 116.9 46.7 16.7 3.4 32 4.8 45.8 4.8 37.4 0 64.4-10.5 81.9-21 12.4-7.3 21.5-15.3 27.6-21.7l-36.7 110c-2.7-.6-50.1-10.4-112.7-9.4-37.6.7-73.4 5.2-106.2 13.3-41.1 10.2-77.7 26.2-108.8 47.6-69.4 47.8-124.5 124.7-151 211-14 45.7-19.7 92.2-16.7 138.2 3.2 49.7 16.4 97.5 39.3 142.1 22.9 44.5 49.9 82.6 80.3 113.2 28.2 28.3 59.6 50.4 93.3 65.7 36.9 16.8 76.2 25.2 116.3 25.2 13.1 0 26.3-.9 39.5-2.7l71.1 66.4c.4.4.9.7 1.5.8.2 0 1.3.2 3.1.2 8.4 0 32.4-4.2 52.7-47.1 13.9-29.4 26.7-30.6 41.4-32.1 9.9-1 21-2.1 33.1-11.5 16.797-13 13.5-30.6 10.8-44.8-2.6-13.9-3.7-22.7 5.897-27.8 24.8-13.1 62.3-32.9 65.5-83.6 11.8-11.6 23-23.1 33.4-34.2 0 .5-.1.9-.1 1.4-1.4 5.9-2.9 11.8-4.4 17.7-3.2 12.2-6.7 24.1-10.6 35.8-3.8 11-7.8 22-11.5 31.8-17.3 43.9-39.4 83.6-66 118.4-31.697 41.5-69.797 76.4-113.397 103.6-.4.2-.8.5-1 .9-.7.5-1.2 1.3-1.2 2.2 0 1 .4 2 1.2 2.6 69.8 54.3 125.397 81.6 166.097 81.6 15.8 0 29.3-4.1 40.7-12.4 8.7-6.5 13.8-16.3 15.1-29.2 4-40.4-31.1-110-85.4-169.9 11.8-17.7 22.6-36.5 32.3-56.3 15.8 2 31.7 2.9 47.7 2.9 30.8 0 61.7-3.7 92.6-10.8 63.7-15.1 124.3-45.4 179.9-90.3 105.4-85.1 195.6-253.8 225.3-309.2 4.8-8.9 8.6-16 9.5-17.1 2.2-2.9 8.5-7.5 15.2-12.3 17.7-12.7 28.1-20.9 25-28.2zm-377.4 2.1c4.6 3 3.7 15.4-2.5 33.3-5.8 3-12 6.4-18.5 10 9.3-24.5 17.7-40.8 21-43.3zm-43.5 63c56.6-32.8 94.7-50.4 104.4-48h.1c-4.2 5.3-26.8 21-47.1 33.5-1.4.8-1.9 2.7-1 4.1.4.7 1.1 1.2 1.9 1.4.2.1.4.1.7.1.2 0 17.1.8 34.7 3.1 31 4.1 37 9.4 38.2 11.4.6 1 1.2 2.4.7 3.3-.7 1.3-3.6 2.3-5.4 2.5-.5.1-1 .3-1.4.5-25-6.5-61.4-5.5-63.4-5.4-1.7.1-3 1.4-2.9 3.1.1 1.6 1.5 3 3.1 2.9 17.4-.5 64.6.7 77.9 12.3-.1.3-.2.6-.5.9-.8.9-3.8 3-14 2-7.2-.8-55.4-4.5-57.4-4.7-1.6-.1-3.1 1.1-3.2 2.8 0 .7.2 1.3.5 1.9.4.6.9 1 1.6 1.2.2 0 11.3 3.7 22.4 8.5 19.5 8.4 21.2 12.5 21.3 13-3.1 3.9-17.8-3-27.5-7.6-7.6-3.5-14.8-6.9-20-7.7-5.2-.7-15.5 3.8-49.8 43.1-8.5-3.7-16.3-8.6-23.1-14.5v-.5c0-14.3-9.7-26.3-22.9-29.6-2.7-5.5-4.1-9.7-4.7-11.9 12-7.1 24.3-14.5 36.8-21.7zm-15.1 63.3c0 13.5-10.9 24.5-24.2 24.5-13.4 0-24.2-11-24.2-24.5 0-2.2.3-4.4.9-6.5.4-.6.6-1.2.6-1.9 3.4-9.4 12.3-16.1 22.7-16.1 13.3 0 24.2 11 24.2 24.5zm-117.1-149.6c1.3-1.6 2.8-2.4 4.6-2.6 10.6-1 41.7 24.8 59.3 41.8 17.8 21.1 33.1 40.4 43.2 54.9-36.4 21.8-69.6 43.1-89 56.2-3.7-44.6-12-84.5-22-118.8-.9-7.2-1.6-24.7 3.9-31.5zm-197.497-166.8l-2.8 8.3c-.5 1.6.3 3.3 1.9 3.8.3.2.6.2.9.2 1.2 0 2.4-.8 2.8-2.1l46.6-139.5c.5-1.6-.3-3.3-1.9-3.8-.3-.1-.5-.1-.8-.1-8.2-1.3-13.8-5.4-16.1-11.9-2.9-7.9-.5-18.7 5.7-25.7 2.4-2.7 7.4-7.1 13.9-5.6 11.7 2.6 15.8 12.4 17.1 20.1.6 3.3 2.7 6.2 5.7 7.6 3 1.5 6.5 1.4 9.4-.2 22.797-12.4 44.597-34.4 59.697-60.3 10.6-18.2 16.9-36.4 18.6-53.1 14 19.3 27 44.9 35.5 70.3 0 .2.1.4.1.7 2.1 5.8 9.7 16.1 23.8 13.4 4.1-.8 7-.1 8.6 2.1 1.3 1.9 1.4 4.5.6 5.9-1 1.9-4.1 5-8.5 5.8-4.1.8-8.2-.7-12.4-4.3-1.2-1.1-3.1-1-4.2.3-.4.4-.6.9-.7 1.4-.2.5-.3 1.2-.2 1.8 9.1 46.5-4.8 66-18.1 74.3-39.2 24.3-81.3-4.3-81.7-4.6-1.4-1-3.3-.7-4.2.7-.8 1.2-.8 2.7.1 3.7 1.7 2.6 21 33.2 16.9 76.3v.1l-11.1 45.5v.1c0 .2-.1.3-.1.5v.2c0 .2 0 .4.1.6v.1c.1.5.4 1 .7 1.4l.7.7c2.7 3.2 11.7 14.8 23.5 33.9-34.3 18.9-68.397 23.8-101.197 14.3-59.4-17.1-98.1-76.2-107.3-91.6 42.8 1.7 73.3 7.7 78.4 8.7zm-85.4-9c1.8 3.3 11.9 20.9 29.4 40.9 17.6 20.1 46.4 46.3 83.3 56.9 11.5 3.3 23.1 5 34.8 5 23.4 0 47.197-6.6 71.197-20.1 3.4 5.7 7 12 10.7 18.9-3.8 2.6-19.1 12.2-42.5 17.9-24.897 6-64.297 8.6-110.897-13.4-43.8-20.6-68.9-49.2-82.3-69.6-10.9-16.7-16-30.7-17.8-36.6 8.4-.1 16.4-.1 24.1.1zm-363.5 543.3c-22.5-43.8-35.5-90.9-38.6-139.7-2.9-45.3 2.7-91.1 16.5-136.1 22.9-74.6 67.4-141.9 124.1-189.2 18.6 27.3 2.1 97.4 30.3 94.1 31-3.7 1.9-48 21.5-114.2 2-7.5 8.2-14.9 10.6-20.5 21.1-10.3 44.1-18.6 68.8-24.7 30.9-7.7 64.6-12 100.1-13 1.5 5.1 6.5 20.6 18.9 39.6 13.7 21.1 39.7 50.7 84.9 72 29.2 13.7 55.7 18.2 77.8 18.2 14.5 0 27.2-1.9 37.297-4.6 23.4-5.6 38.7-14.9 43.6-18.2 1.9 3.7 3.9 7.5 5.8 11.4 11.3 22.9 24 53.1 34.8 89.8.1.4.2.8.2 1.1.1.4.2.8.4 1.1 10 34.6 18.2 74.7 21.7 119.7-1.4.9-2.7 1.8-3.8 2.6-4.3 3-9.3 6.6-14.6 10.4-25.7 18.5-64.6 46.4-106.797 65.6-32.4 14.7-62.1 22.1-88.7 22.1-14.3 0-27.7-2.1-40.2-6.4-37.2-12.8-57.7-42.5-60.8-88.2-2.3-34.6 6.7-65.8 6.8-66.1.5-1.6-.4-3.2-2-3.7s-3.2.4-3.7 2c-.4 1.3-9.4 32.4-7 68 .8 12.4 3 23.8 6.4 34.1-9.5-.5-41.3-1.6-80.1 4.1-42.8 6.2-102.9 22-146.9 62.3-62 56.8-89.2 125.7-95.8 144.5-7.5-12.1-14.7-24.8-21.5-38.1zm538.2 81.6c-9.7 8.1-20.1 16.6-31 25.1-44.9 34.9-86.1 60.3-121.9 75.6-8.3 3.3-16.4 6.1-24.3 8.2-64.9 17.6-130.8 12.7-190.3-14.3-33-15-63.8-36.7-91.5-64.5-14-14-27.2-29.7-39.7-46.9.7-3.1 4.5-19.2 15.8-43.5 11.7-25.1 33.9-64.4 73.4-108.5 39.2-43.8 96.4-63 137.4-71.5 42.3-8.7 76.6-8 80.4-7.9 4.6 11.6 11 21.7 19.1 30.1-22.8 23.8-91.6 20-86.8 48.1 6.5 28.6 44 12.2 109.5-9.5 18.2-6 36.3-8.4 52.9-8.7 1.3 0 2.5.1 3.8.1 27.4 0 58-7.6 91-22.7 42.797-19.5 81.897-47.6 107.797-66.2 5.3-3.8 10.2-7.3 14.5-10.3 9.6-6.6 26.7-18 47.8-31.4.9 2.6 2.2 6.4 4.1 10.9-.7 2.6-1.1 5.4-1.1 8.3 0 15.9 12.2 29 27.6 30.4 9.1 8.1 19.2 13.2 30.2 15.2-25.8 31.8-51.1 65.6-65.5 84.9-27.8 37.5-91.5 107.9-163.197 169zm126.797-4.9c-19.6-15.5-18.6-59.4-16.8-81.2.3-1.6.5-3 .8-4.5.7-3.2 1.5-6.4 2.2-9.5 23.6-25.5 42.7-48.3 55.2-65.2 9.3-12.5 23.1-31.1 38.8-51.3-5.5 12.1-12.1 28-18.5 47.6-12.2 37.4-25.6 94.6-26 165.6-15.1 5.8-27.1 5.3-35.7-1.5zm523.1-412.9c-4.6 4.3-11 8.9-17.2 13.4-7.3 5.3-13.6 9.9-16.4 13.4-1.2 1.5-3.8 6.3-10.1 18-29.5 55.1-119.3 223-223.8 307.3-55 44.3-114.7 74.3-177.5 89.1-11.8 2.8-23.7 5-35.5 6.7l-.9-24.5c-.8-74.3 13-134 25.5-172.5 15.2-46.8 31.8-73.3 32-73.6.2-.3.3-.5.4-.8 8-10 16.1-19.9 24-29.3 6.2-7.3 11.6-13.6 16.5-18.9 13.8 14.2 27.5 25.5 41 33.7-25.3 9.3-59.3 11.8-56.2 30.6 5.7 25 38.5 10.6 95.8-8.3 8.7-2.9 17.4-4.8 25.9-6 0 0-.5 0-1.3-.1 2.4-.3 4.7-.7 7-1.2 32.9-7.1 75.5-46.8 105.4-78.9 33.3-35.7 61-72.9 64.7-81.9 3.2-7.9 6.9-22.2 10.4-36.1 2.9-11.3 6.4-25.1 8.4-29.3.3.2.5.5.8.8 2.1 2.7 6.5 12.7-.7 46.2-.4 1.7.7 3.3 2.3 3.6 1.7.4 3.3-.7 3.6-2.3.1-.5.2-.9.3-1.3.3-.1.5-.3.7-.5.1-.2 18-17.5 24.6-23.7 4.2-3.9 8.1-7.7 11.5-11 11.4-11 21.2-20.5 24.4-18.4 0 .7-.6 3.9-7.9 13.3-6.4 8.3-16.5 19.7-30.9 34.6-1.1 1.2-1.1 3.1.1 4.2 1.2 1.1 3.1 1.1 4.2-.1 14.7-15.3 28.6-30.5 35.6-41.2.4-.1.9-.3 1.3-.6 2-1.7 5.3-3.4 6.4-3 .1 0 .3.3.5 1 1.3 5.5-11.5 21.1-20 31.5-11 13.4-17.1 21.2-16.4 26.2.2 1.4.9 2.6 2.1 3.4 5.3 3.5 13.8-1.8 27.4-10.9 5.5-3.7 14.7-9.8 17.7-10-.1.8-.9 3-5.7 7.4z" fill="#1A1A1A"/><path d="M1006.9 1392.63c26.6-34.8 48.6-74.5 66-118.4 3.7-9.8 7.7-20.8 11.5-31.8 3.8-11.7 7.4-23.6 10.6-35.8 1.5-5.9 3-11.8 4.4-17.7 0-.5.1-1 .1-1.4-10.4 11.1-21.6 22.5-33.4 34.2-3.2 50.7-40.7 70.5-65.5 83.6-9.598 5.1-8.498 13.9-5.898 27.8 2.7 14.2 5.998 31.8-10.8 44.8-12.1 9.4-23.2 10.5-33.1 11.5-14.7 1.5-27.5 2.7-41.4 32.1-17.6 37.3-38.1 45.3-48.6 46.8 11.5 9.8 22.8 19 33.6 27.5 43.2-27.2 81-62 112.498-103.2z" fill="#fff"/><path d="M738.102 1335.83c-16.5 0-32.3-2.6-46.3-7.7-2.2-.8-4.2-1.6-6.1-2.4-10.8-4.6-14-18.5-6.3-27.4 5-5.8 13.1-7.7 20.2-4.7 1.7.8 3.7 1.5 5.8 2.3 15.1 5.1 32.4 6.3 51.3 3.7 9.6-1.4 18.4 5.3 19.8 14.9 1.4 9.6-5.3 18.4-14.9 19.8-8 1-15.9 1.5-23.5 1.5zM1288.1 1238.83c-7.4 0-14.3-4.7-16.7-12.1-3-9.2 2.1-19 11.2-22 .5-.2 27.7-9.4 50-31.7 6.8-6.8 17.9-6.8 24.7 0 6.8 6.8 6.8 17.9 0 24.7-28.7 28.7-62.6 39.8-64 40.3-1.6.5-3.4.8-5.2.8z" fill="#1A1A1A"/><path d="M431.702 789.03c-.9 0-1.8-.4-2.4-1.2-47.1-64.8-117-109.8-117.7-110.2-1.4-.9-1.8-2.7-.9-4.1.9-1.4 2.7-1.8 4.1-.9.7.5 71.5 46.1 119.3 111.8 1 1.3.7 3.2-.7 4.2-.5.2-1.1.4-1.7.4z" fill="#fff"/><path d="M199.602 785.53c19.275 0 34.9-15.625 34.9-34.9 0-19.274-15.625-34.9-34.9-34.9s-34.9 15.626-34.9 34.9c0 19.275 15.625 34.9 34.9 34.9z" fill="#1A1A1A"/><path d="M199.602 789.93c-21.6 0-39.2-17.6-39.2-39.2s17.6-39.2 39.2-39.2 39.2 17.6 39.2 39.2-17.6 39.2-39.2 39.2zm0-69.8c-16.8 0-30.5 13.7-30.5 30.5s13.7 30.5 30.5 30.5 30.5-13.7 30.5-30.5-13.7-30.5-30.5-30.5zM428.203 704.331c8.339 0 15.1-6.761 15.1-15.1 0-8.34-6.761-15.1-15.1-15.1-8.34 0-15.1 6.76-15.1 15.1 0 8.339 6.76 15.1 15.1 15.1z" fill="#1A1A1A"/><path d="M428.203 706.23c-9.4 0-17-7.6-17-17s7.6-17 17-17 17 7.6 17 17-7.7 17-17 17zm0-30.2c-7.3 0-13.2 5.9-13.2 13.2 0 7.3 5.9 13.2 13.2 13.2 7.3 0 13.2-5.9 13.2-13.2 0-7.3-6-13.2-13.2-13.2zM1234.8 1260.63c-7.8 0-14.9-5.2-16.9-13.1-2.4-9.4 3.2-18.9 12.5-21.3l7.1-1.8c9.4-2.4 18.9 3.2 21.3 12.5 2.4 9.4-3.2 18.9-12.5 21.3l-7.1 1.8c-1.5.5-3 .6-4.4.6z" fill="#1A1A1A"/><path d="M527.103 159.83c12.702 0 23-10.297 23-23 0-12.702-10.298-23-23-23-12.703 0-23 10.298-23 23 0 12.703 10.297 23 23 23zM583.202 127.53c6.241 0 11.3-5.059 11.3-11.3 0-6.241-5.059-11.3-11.3-11.3-6.24 0-11.3 5.059-11.3 11.3 0 6.241 5.06 11.3 11.3 11.3z" fill="#FFC400"/><path d="M574.202 1466.93c-23-.6-50.5-10.3-81.8-28.7-23.2-13.6-39.999-27.3-40.099-27.4-1.3-1-1.501-2.9-.401-4.2 1-1.3 2.9-1.5 4.2-.4.7.5 65.801 53.4 118.201 54.8 1.7 0 2.999 1.4 2.899 3.1 0 1.6-1.4 2.8-3 2.8z" fill="#1A1A1A"/><path d="M1046 1436.53c-13.5-17-26.6-31.1-34.7-39.6l-3.7 4.8c21 21.7 75.7 82.3 76.5 123.2 0 1.6 1.4 2.9 3 2.9 1.7 0 3-1.4 2.9-3-.4-22.2-15.2-51.9-44-88.3zM1687.4 147.129c-9-8.3-30-13.099-47.3-2.099-17.3 11-36.3 25.2-56.8 49.9 0 0-41.3-24.801-64.9-61.801-23.6-37-30.9-47.8-45.9-81.4 0 0-26.1 69-.9 130 0 0-89.6-49.799-114.8-73.699 0 0-9.6 41.799 1.9 84.799l33.8 5.8-26.2 12s15.1 35.7 49.4 56.1 65.8 18.6 65.8 18.6l-116.2 77s-27 12.601-19.9 22.201c7.2 9.5 32.5 38.599 75.7 24.599l70.9-68.7s53.7-2.1 77.4-6.7c23.7-4.7 41.3-20.9 52.8-40.6 11.4-19.7 22.1-39.699 21.8-53.699-.3-14 10.1-40.001 18.8-43.301 8.7-3.3 29-6.999 31-25.599s-6.4-23.401-6.4-23.401z" fill="#fff"/><path d="M1421.4 457.629l212-19.6 3.8 121-212 18.6-3.8-120z" fill="#FFC400"/><path d="M1592.2 441.83l-170.8 15.8 2 64c69.9 3.6 137.6-50.6 168.8-79.8z" fill="#fff"/><path d="M1638.2 561.829c.1 0 .3-.1.4-.2h.1c.3-.1.5-.3.8-.5.7-.7 1-1.7.8-2.6l-3.8-120c.1-.4 0-.8-.1-1.2-.1-.6-.5-1.2-.9-1.6-.1-.1-.2-.1-.3-.2l-91.4-87c-1.2-1.1-2.9-1.1-4.1-.1l-119.9 106.7c-.1.1-.2.2-.4.3l-.2.2c-.5.6-.8 1.3-.8 2.1l3.8 120v.3c0 .4.2.7.4 1l.1.1c.1.1.1.2.2.3.2.2.3.4.5.6.4.3.8.5 1.3.5.2 0 .3.1.5.1h.3l212-18.6h.4c.1-.1.2-.2.3-.2zm-116.5-43.7c-4.8-3.3-18.8-12.8-34.3-21.9-.8-.4-1.5-.9-2.3-1.3l-54.8-35 193-17.9-101.6 76.1zm-95.6-7.1c.1-.3.1-.6.1-.9l-.2-5.1c0-2.6.1-5.9.5-9.3.6-4.9 2.4-13.2 7.5-14.1 9-1.6 27.6 6.9 45.7 17.1l-51.9 70.2-1.7-57.9zm58.8-9.2l35.2 22.5c.5.3 1 .5 1.6.5.6 0 1.2-.2 1.7-.5l40.3-30.3 66.5 62.5-198.7 17.5 53.4-72.2zm84.3-10.8l18.3-14c1.3-.9 2.7-1.9 4.1-2.8 15.5-10.1 27.6-14.3 33.9-11.9 3.2 1.1 5.1 4.1 5.8 9 0 .2.1.3.1.5l2.5 80.1-64.7-60.9zm-27.7-136.3l85 80.9-196.1 18.2 111.1-99.1zM1667.1 155.83c-5.1 0-9.2 4.1-9.2 9.2s4.1 9.2 9.2 9.2 9.2-4.1 9.2-9.2-4.1-9.2-9.2-9.2z" fill="#1A1A1A"/><path d="M1716.4 179.73l-19.8-17.8c-.6-5.5-2.6-10.5-5.9-14.6-7.8-9.7-21.8-13.3-39.5-10.3-24 4.2-52.3 33.1-70.2 54.4l-4.1-2.4c-16.5-11.6-71.1-55.3-102.4-140.6-.4-1.2-1.5-2-2.8-2-1.3 0-2.4.8-2.8 2-.3.8-6.8 19.4-10.4 45.2-3 22.3-4.2 53.9 6.2 82.2-55.3-30.7-105.3-69.2-106.1-69.8-.8-.7-1.8-.8-2.8-.5-.9.3-1.7 1.1-1.9 2.1-.4 1.6-9.5 40.2 1.9 86.2.3 1.1 1.2 2 2.4 2.2l25.6 4.2-18.6 7.8c-1.5.6-2.2 2.2-1.7 3.7 6 17.5 22.4 36.3 35.2 46.5 26.3 20.7 52.6 28 73.6 29.7l-126 83.9c-4.6 3-6.1 9.1-3.4 13.9 8.7 15.7 24.5 25.6 45.5 28.8 5.4.8 10.4 1.1 14.7 1.1 7.1 0 12.3-.7 13.9-1 .5 0 1.1-.1 1.6-.4l4.2-2.7c28.4-17.7 52.2-40.7 71-68.3 1.9 0 3.8 0 6 .1 11 0 25-.4 39.5-1.8l-.7 4.5c-4.9 0-8.8-1.8-8.9-1.9-1.5-.8-3.3-.2-4 1.3-.8 1.5-.2 3.3 1.3 4 .2.1 3.2 1.5 7.5 2.2-7.1 2.6-14.1-.7-14.5-.9-1.5-.8-3.3-.2-4 1.3-.8 1.5-.2 3.3 1.3 4 .3.2 5.2 2.6 11.5 2.6 4.7 0 10.1-1.3 14.8-5.8.5-.4.8-.9.9-1.5l9.2-9.7c.6-.6 1.1-1.4 1.5-2.2 15.5-2.6 30.2-6.7 40.5-13.4 35-22.3 48.2-72.6 57-105.8 2.6-10.1 6.5-15.6 10.9-19.1.3-.1.4-.2.4-.2.4-.2.7-.5 1-.8 3.2-2.1 6.7-3.4 10.2-4.7 6.9-2.6 14-5.2 18.2-14.2l20.5 3.8h.5c1.1 0 2.1-.7 2.8-1.6.5-1.4.2-2.8-.8-3.7zm-243.5-.1c-12.6-28.5-11.4-62.1-8.3-85.2 2.1-15.2 5.3-28.1 7.6-35.9 19.6 49.3 46.5 83.7 66 104.2 8.2 8.6 15.8 15.5 22.1 20.8-5.5 10.7-15.7 16.5-30.2 16.8-10.8.3-20.3-2.6-21.5-2.9-11.7-5-23.7-10.9-35.5-17.2 0-.2-.1-.4-.2-.6zm215.4-2c-3.1 7.6-8.4 9.6-15.2 12.1-3.8 1.4-8 3-12.1 5.8-.7.3-1.4.6-2.1 1-6.6 3.3-26.6 13.4-40.6 22-12.3 7.7-12.6 14.8-11.6 18.4 1.1 4 4.6 7.1 8.3 7.2 2.6.1 5.9-.6 9.9-2.1 2.7-1.1 5.5-.7 7.9.9 2.3 1.6 3.7 4.1 3.7 6.9V254.23c-8.8 25.8-21.9 52.4-44 66.6-13.3 8.5-37 13.8-68.8 15.7-22.2 1.2-41.3.3-44.4.1-.6-.1-1.1-.1-1.7.1-.1 0-.2.1-.3.1-.5.2-.9.6-1.2 1.1l-12.7 14.8-47.9 55.8c-7.2 1-49.9 5.3-67.3-25.9-1.1-2-.5-4.7 1.5-6l77.5-51.7c2.4 4.2 5.9 6.8 10.6 7.7 1.3.3 2.7.4 4.2.4 27.7 0 79.9-46.7 87.4-53.5.1 0 .1 0 .1-.1 1.5-.7 2.2-2.5 1.5-4-.2-.4-.5-.8-.9-1.1-.9-.8-2.3-1-3.4-.4-.5.3-1.1.5-1.7.8-2.1.8-5.9 2.1-11 3.4-12.7 2.8-28 3.6-31.7 3.8-.5-.1-.9-.1-1.4 0-19.7-.3-46.3-5.5-73.3-25l22.1-4.6c1.6-.4 2.6-2 2.3-3.6-.4-1.6-2-2.6-3.6-2.3l-27.1 5.7c-3.6-3-7.5-6.7-11.3-10.8l55.9-13c1.6-.4 2.6-2 2.2-3.6-.4-1.6-2-2.6-3.6-2.2l-59 13.7c-6.2-7.5-11.8-15.9-15.2-24.1l25.7-10.7c1.2-.5 2-1.8 1.8-3.1-.2-1.3-1.2-2.4-2.5-2.6l-34-5.6c-8.1-34.8-4.3-65.6-2.4-76.9 10.1 7.6 38.9 28.8 73.1 49.9 29.8 18.4 56.3 32.3 79.2 41.7 29.7 12.6 46.5 13.9 52.4 14h.3c.6 0 1.1.1 1.7.1 1.4 0 2.6-.9 3-2.2 5.5-7.6 50.2-68.2 83.6-74 15.5-2.7 27.5.1 33.8 8.1 5.5 7 6.3 17.2 2.3 26.8z" fill="#1A1A1A"/></svg>