<svg width="676" height="813" fill="none" xmlns="http://www.w3.org/2000/svg"><path d="M662.66 95.38s-30.82-29.64-88.69-58.14C514.7 8.05 491.73 2.59 491.73 2.59s-23.48 5.39-61.28 19.78c0 0-41.43 15.37-67 30-3 1.57-5.88 3.15-8.68 4.69-3.26 1.79-6.35 3.52-9.14 5.09-6.67 3.77-11.52 6.61-12.43 7.14-9.83 6-15.4 9.82-15.4 9.82s-4.79 145.77-4.79 250.2c0 104.43 4.79 233.23 4.79 233.23s14.72 15.2 62.36 43.17c1.55.91 3.12 1.81 4.69 2.71 9.51 5.59 24 12.79 28.7 15.06 33.64 16.42 65.71 28.4 73.42 31.21 3.11 1.17 3.49.21 3.49.21 8.62-2.2 48.58-13 98-35.89 55.92-25.89 74.21-40.25 74.21-40.25s6-167.61 6-244.24-6.01-239.14-6.01-239.14z" fill="#00ACDC"/><path d="M487.95 477.66c-.233-19.733-.39-39.467-.47-59.2-.28-39.46.3-78.93.82-118.41l.95-59.21 1-59.23a1.81 1.81 0 0 0-3.61-.1c-.85 19.73-1.49 39.47-2.17 59.21-.68 19.74-1.13 39.49-1.61 59.23-.48 19.74-.79 39.5-1 59.25-.21 19.75-.38 39.52-.31 59.28.333 39.52.963 79.023 1.89 118.51l1.58 59.22c.64 19.51 1.22 39 2 58.53v.69a1.74 1.74 0 0 0 3.47-.1V655l-1.69-118.07-.85-59.27zM413.04 140.93a669.596 669.596 0 0 0 21.16 10.19 976.856 976.856 0 0 0 19.31 8.57c6.51 2.7 13 5.39 19.62 7.86a1.74 1.74 0 0 0 1.34-3.2c-6.36-3-12.73-5.88-19-8.94-6.27-3.06-12.64-6-18.91-9.16-12.54-6.24-25-12.59-37.34-19.22-12.34-6.63-24.65-13.44-36.71-20.45a605.628 605.628 0 0 1-18-10.85c-6-3.66-11.79-7.51-17.53-11.46a1.81 1.81 0 0 0-2.16 2.9c5.5 4.46 11.27 8.54 17.07 12.58 5.8 4.04 11.77 7.78 17.76 11.51 8.16 5.08 16.47 9.9 24.86 14.58-1.11 38.44-4 146.92-4 224.48 0 85.53 3.54 228.6 4.3 258.15 9.34 5.31 19.09 10.37 28.7 15.06-.42-16.38-4.4-171.56-4.4-262.19.02-74.98 2.74-178.88 3.93-220.41zM528.81 65.82l20.36-9.32c6.75-3.19 13.53-6.31 20.25-9.57a1.81 1.81 0 0 0-1.45-3.31c-6.95 2.76-13.82 5.66-20.74 8.48l-20.66 8.72a845.109 845.109 0 0 1-10.09 4.32c-10.34 4.44-20.65 9-31 13.48-13.65 6-27.3 12.09-40.87 18.32l-20.35 9.34-1.06.5c-6.4 3-12.82 6-19.19 9.08a1.733 1.733 0 0 0 1.4 3.17c6.94-2.75 13.82-5.64 20.74-8.46l1.42-.57 19.25-8.12c13.76-5.8 27.43-11.78 41.11-17.76 11.74-5.19 23.47-10.39 35.16-15.69l5.72-2.61zM657.73 99.84a1.81 1.81 0 0 0-2.49-.57c-5.84 3.66-12 7-18.16 10.2a307.993 307.993 0 0 1-8.08 4.13 525.98 525.98 0 0 1-7.51 3.69c-1.06.51-2.1 1-3.16 1.54l-10.33 4.9c-7.29 3.46-26.4 12.16-50.31 22.74a1884.184 1884.184 0 0 1-15.92 6.76 631.84 631.84 0 0 1-19.49 7.67 290.67 290.67 0 0 1-17 5.9l-2.8.89a1.733 1.733 0 0 0 .89 3.35c1.37-.3 2.73-.64 4.09-1l2.36-.61c4.7-1.25 9.35-2.67 14-4.12 6.7-2.22 13.34-4.61 19.93-7.09a513.16 513.16 0 0 0 18.42-7.37c5.67-2.34 40.85-17.87 49.31-22.45 3.113-1.54 6.21-3.103 9.29-4.69 3.46-1.81 6.92-3.62 10.36-5.48l.62-.34c1.88-1.007 3.75-2.037 5.61-3.09l1.57-.88 1.91-1.11c.79-.46 1.58-.92 2.36-1.39l1.8-1.09c.83-.5 1.66-1 2.48-1.53l1.67-1.05c.91-.59 1.82-1.18 2.72-1.78l1.39-.92c1.35-.93 2.7-1.86 4-2.83a1.82 1.82 0 0 0 .47-2.38zM546.88 464.07l74.42-36.15v-6.67l-74.42 36.15v6.67zM608.97 419.37l32.64-15.86v-6.67l-32.64 15.86v6.67zM546.88 449.53l53.91-26.19v-6.67l-53.91 26.19v6.67zM617.52 400.67l24.09-11.7v-6.67L617.52 394v6.67zM571.45 416.38v6.67l37.98-18.45h-.1v-6.62l-37.88 18.4zM546.88 428.31v6.67l16.39-7.96v-6.66l-16.39 7.95zM557.81 232.9s28.17-12.14 65.08-32.19c12.82-7 15.73-13.39 14.54-27.23a24.289 24.289 0 0 0-1-5.2 6.9 6.9 0 0 0-5.57-4.71 22.124 22.124 0 0 0-5.2-.16 6.58 6.58 0 0 0-1 .1c-7.35 1.26-36.5 15.14-54.51 23.57-34.42 16.09-43.44 23.84-43.41 43.39a32.128 32.128 0 0 0 .43 5.47 5.74 5.74 0 0 0 5.61 4.81c6.13 0 13.49-2.63 20.19-5.7 1.6-.72 3.2-1.44 4.84-2.15z" fill="#10294C"/><path d="M544.22 249.45a50.473 50.473 0 0 0 9.1-2c2.92-.95 5.76-2.07 8.53-3.27 2.77-1.2 5.4-2.3 8.14-3.41 5.47-2.21 11-4.46 16.47-6.79 5.47-2.33 10.91-4.86 16.29-7.47a239.646 239.646 0 0 0 31.15-18 50.426 50.426 0 0 0 7.18-6 21.925 21.925 0 0 0 5.13-8.46 27.845 27.845 0 0 0 1-9.55c-.06-1.56-.21-3.06-.38-4.6a26.675 26.675 0 0 0-1.07-4.66 1.731 1.731 0 1 0-3.33.95c.315 1.336.506 2.699.57 4.07.06 1.41.13 2.87.08 4.27a23.478 23.478 0 0 1-1.33 8c-1.75 4.88-6.19 8.36-11 11.56-4.81 3.2-9.92 6.15-15.06 9-5.14 2.85-10.36 5.52-15.65 8.09-10.55 5.25-21.37 9.79-32.28 14.59-2.72 1.22-5.44 2.44-8.14 3.75s-5.26 2.44-7.94 3.45a45.41 45.41 0 0 1-8.12 2.35 18.432 18.432 0 0 1-7.91-.12h-.07a1.81 1.81 0 0 0-1.11 3.44c1.57.562 3.208.915 4.87 1.05 1.631.06 3.263-.02 4.88-.24zM511.19 122.71a.41.41 0 0 1-.38-.43.42.42 0 0 1 .25-.35l1.58-.61c-2.08-1.49-4.23-2.85-6.42-4.16-2.19-1.31-4.57-2.66-6.89-3.93a142.01 142.01 0 0 0-7.06-3.61c-2.39-1.14-4.79-2.26-7.28-3.22a1.19 1.19 0 0 0-1.37.41 1.17 1.17 0 0 0 .27 1.63c2.16 1.56 4.39 3 6.66 4.35 2.27 1.35 4.56 2.67 6.88 3.95 2.32 1.28 4.66 2.49 7 3.64s4.78 2.26 7.27 3.23a1.21 1.21 0 0 0 1.42-.42c.068-.104.119-.219.15-.34l-2.11-.13.03-.01zM514.51 110.89a.42.42 0 0 1-.38-.44.441.441 0 0 1 .26-.35c.45-.19.92-.36 1.39-.53a110.755 110.755 0 0 0-5.76-3.7c-2.31-1.4-4.66-2.71-7-4s-4.76-2.52-7.2-3.69c-2.44-1.17-4.88-2.3-7.42-3.29a1.17 1.17 0 0 0-1.1 2c2.21 1.58 4.49 3 6.8 4.42 2.31 1.42 4.66 2.73 7 4s4.76 2.54 7.19 3.71c2.43 1.17 4.88 2.32 7.41 3.31a1.231 1.231 0 0 0 1.43-.43 1.22 1.22 0 0 0 .21-.9l-2.79-.18-.04.07zM528.72 102.65a.41.41 0 0 1-.41-.4.42.42 0 0 1 .23-.37l.76-.35c-1.91-1.31-3.85-2.55-5.82-3.74-2.32-1.4-4.69-2.72-7.06-4-2.37-1.28-4.79-2.53-7.23-3.7-2.44-1.17-4.9-2.31-7.44-3.3a1.17 1.17 0 0 0-1.11 2c2.22 1.59 4.51 3 6.83 4.45 2.32 1.45 4.67 2.73 7 4s4.78 2.54 7.22 3.72c2.44 1.18 4.89 2.33 7.43 3.32a1.201 1.201 0 1 0 1.51-1.68h-2l.09.05zM418.57 69.2a.422.422 0 0 1-.41-.16l-1.73-2.28c-.29-.12-.57-.25-.86-.36a1.17 1.17 0 0 0-1.1 2c2.16 1.56 4.4 3 6.66 4.35 2.26 1.35 4.56 2.67 6.88 3.95 2.32 1.28 4.66 2.49 7.05 3.64 2.39 1.15 4.78 2.26 7.27 3.23a1.23 1.23 0 0 0 1.42-.42 1.21 1.21 0 0 0-.27-1.7c-2.16-1.56-4.41-3-6.67-4.33s-4.58-2.66-6.89-3.93c-2.31-1.27-4.68-2.47-7.07-3.62a107.015 107.015 0 0 0-4.18-1.91c.08.34.16.68.23 1a.42.42 0 0 1-.33.54zM433.57 65.39a.422.422 0 0 1-.41-.16c-.73-1-1.44-1.91-2.15-2.83l-.23-.1a1.17 1.17 0 0 0-1.1 2c2.2 1.58 4.49 3 6.8 4.42 2.31 1.42 4.65 2.73 7 4 2.35 1.27 4.76 2.54 7.19 3.71 2.43 1.17 4.88 2.32 7.41 3.31a1.23 1.23 0 0 0 1.43-.43 1.22 1.22 0 0 0-.28-1.69c-2.21-1.58-4.5-3-6.81-4.41-2.31-1.41-4.67-2.71-7-4s-4.77-2.52-7.2-3.69c-1.52-.74-3.06-1.443-4.62-2.11.11.48.22 1 .32 1.44a.42.42 0 0 1-.35.54zM443.32 56.44a.41.41 0 0 1-.4-.15l-1.6-2.11a.996.996 0 0 0-.21.2 1.16 1.16 0 0 0 .27 1.63c2.21 1.59 4.5 3 6.82 4.44 2.32 1.44 4.68 2.74 7 4 2.32 1.26 4.77 2.55 7.21 3.73 2.44 1.18 4.9 2.33 7.44 3.32a1.22 1.22 0 0 0 1.15-2.12c-2.22-1.58-4.52-3-6.84-4.42-2.32-1.42-4.68-2.72-7.06-4-2.38-1.28-4.78-2.53-7.23-3.7-2.17-1.06-4.37-2-6.63-3 .13.55.26 1.11.37 1.66a.41.41 0 0 1-.269.514l-.021.006z" fill="#10294C"/><path d="M392.14 25.73c-5.49 8.47-6.34 18.54-2.49 25 1 .73 2.12 1.52 3.21 2.41a31.9 31.9 0 0 0 17.81 7l-.33-.34c-.44-.48-.93-.92-1.39-1.37-.46-.45-.93-.91-1.42-1.33-.49-.42-1-.85-1.52-1.22l-1.26-.86c-5.63-3.94 2.1-9.46 5-6.16.1.13.2.25.29.38.82 1.23 1.56 2.52 2.35 3.73.41.59.79 1.21 1.15 1.84.36.63.75 1.23 1.08 1.87.57 1.14 1.12 2.28 1.61 3.44a33.547 33.547 0 0 0 10.63-2.58L425.37 56c-.44-.48-.93-.92-1.39-1.37-.46-.45-.93-.91-1.42-1.33-.49-.42-1-.85-1.52-1.22l-1.26-.86c-5.63-3.94 2.1-9.46 5-6.16.1.13.2.25.29.38.83 1.23 1.56 2.52 2.35 3.73.41.59.79 1.21 1.15 1.84.36.63.75 1.23 1.08 1.87.4.813.79 1.623 1.17 2.43a9.39 9.39 0 0 0 1.73-1.62 21.198 21.198 0 0 0 3.39-5.77l-.85-.86c-.44-.49-.93-.92-1.39-1.38-.46-.46-.93-.91-1.43-1.33a17.848 17.848 0 0 0-1.51-1.22l-1.26-.86c-5.63-3.94 2.1-9.46 5-6.16.1.13.2.25.29.38.72 1.09 1.38 2.2 2.07 3.28-.78-5.73-4.42-11.25-9.48-16.23a67.022 67.022 0 0 0-6.55-5.62c-1.31-1-2.6-1.92-3.88-2.81-14.18-3.67-22.49 7.04-24.81 10.62zM343.82 55.47a31.199 31.199 0 0 0 10.93 1.64c4.23-2.32 8.73-4.75 13.16-7.05-8-3.67-13.23-13.08-14.55-22.56-1.08-7.78.35-16.2 5-22.62-17.88 8.54-24 26-25.71 40.62 2.12 5.65 7.05 8.5 11.17 9.97z" fill="#FDB813"/><path d="M359.3 26.67c1.35 9.71 7.46 19.32 16.51 19 .338-.017.677.027 1 .13a11.12 11.12 0 0 1 5.06.73c-1.44-7.51.3-16.39 5.26-24.06 4.14-6.39 10.87-12.12 19.48-13.69-12.14-6.34-22.76-8.22-31.47-7.9a2.852 2.852 0 0 1-.56.2c-13.46 3.25-16.63 15.82-15.28 25.59zM341.84 61.13a26.405 26.405 0 0 1-9.8-5.87 85.527 85.527 0 0 0 1 14.18l.17-.1c.91-.53 5.76-3.37 12.43-7.14a34.07 34.07 0 0 1-3.8-1.07z" fill="#FDB813"/><path d="M413.57 54.81c-.36-.63-.74-1.25-1.15-1.84-.79-1.21-1.53-2.5-2.35-3.73-.09-.13-.19-.25-.29-.38-2.92-3.3-10.65 2.22-5 6.16l1.26.86c.54.37 1 .8 1.52 1.22.52.42 1 .87 1.42 1.33.42.46 1 .89 1.39 1.37l.33.34c.81.82 1.63 1.65 2.38 2.55a51.132 51.132 0 0 1 3.36 4.06l1.73 2.28a.422.422 0 0 0 .41.16.42.42 0 0 0 .32-.48c-.07-.35-.15-.69-.23-1a40.71 40.71 0 0 0-2.19-7.1l-.21-.47c-.49-1.16-1-2.3-1.61-3.44-.35-.7-.74-1.26-1.09-1.89zM428.57 51c-.36-.63-.74-1.25-1.15-1.84-.79-1.21-1.52-2.5-2.35-3.73-.09-.13-.19-.25-.29-.38-2.92-3.3-10.65 2.22-5 6.16l1.26.86c.54.37 1 .8 1.52 1.22.52.42 1 .87 1.42 1.33.42.46 1 .89 1.39 1.37l1.51 1.55c.41.44.82.88 1.2 1.34a45.396 45.396 0 0 1 2.94 3.51c.71.92 1.42 1.87 2.15 2.83a.422.422 0 0 0 .41.16.42.42 0 0 0 .32-.48c-.1-.48-.21-1-.32-1.44a40.812 40.812 0 0 0-2.1-6.69c-.2-.51-.43-1-.65-1.48-.38-.813-.77-1.623-1.17-2.43-.32-.63-.71-1.24-1.09-1.86zM434.57 36.1c-2.92-3.3-10.65 2.22-5 6.16l1.26.86c.525.38 1.029.786 1.51 1.22.5.42 1 .87 1.43 1.33.43.46 1 .89 1.39 1.38l.85.86c.64.65 1.27 1.31 1.86 2a53.295 53.295 0 0 1 3.49 4.23l1.6 2.11a.41.41 0 0 0 .73-.33c-.11-.55-.24-1.11-.37-1.66a40.532 40.532 0 0 0-2.06-6.47c-.52-1.34-1.17-2.61-1.81-3.91-.33-.64-.72-1.24-1.08-1.87-.36-.63-.74-1.25-1.15-1.84-.09-.15-.18-.3-.28-.45-.69-1.08-1.35-2.19-2.07-3.28a.972.972 0 0 1-.3-.34z" fill="#fff"/><path d="M345.57 62.2c2.79-1.57 5.88-3.3 9.14-5.09a31.199 31.199 0 0 1-10.93-1.64c-4.12-1.44-9-4.32-11.17-10a91.222 91.222 0 0 0-.61 9.76 26.405 26.405 0 0 0 9.8 5.87 34.02 34.02 0 0 0 3.77 1.1zM353.36 27.5c1.32 9.48 6.52 18.89 14.55 22.56 2.78-1.44 5.53-2.84 8.17-4.12.23-.063.464-.11.7-.14a2.826 2.826 0 0 0-1-.13c-9 .32-15.16-9.29-16.51-19-1.35-9.71 1.82-22.34 15.25-25.59.193-.047.381-.114.56-.2-3.549.13-7.074.65-10.51 1.55a22.784 22.784 0 0 0-3.61 1.29c-.89.37-1.76.76-2.6 1.16-4.65 6.42-6.08 14.84-5 22.62zM387.1 22.47c-5 7.67-6.7 16.55-5.26 24.06a32.701 32.701 0 0 1 7.81 4.19c-3.85-6.45-3-16.52 2.49-25 2.32-3.58 10.63-14.29 24.85-10.63a96.974 96.974 0 0 0-10.42-6.31c-8.6 1.57-15.33 7.3-19.47 13.69z" fill="#10294C"/><path d="M527.77 118.65c-.72 0-1.44 0-2.17.05s-1.43.05-2.15.13c-1.44.18-2.86.35-4.26.64a41.582 41.582 0 0 0-6.55 1.85l-1.58.61a.42.42 0 0 0-.25.35.41.41 0 0 0 .38.43l2.11.13a56.13 56.13 0 0 1 6 .62c1.31.15 2.62.42 3.9.67.64.1 1.28.27 1.91.4.63.13 1.27.28 1.9.46.63.18 1.24.35 1.85.6l1.8.73c.694.299 1.418.523 2.16.67a20.856 20.856 0 0 1-3.33-8.39c-.57.03-1.15.05-1.72.05zM531.09 106.82c-.72 0-1.44 0-2.16.06-.72.06-1.44.05-2.16.12-1.44.19-2.86.35-4.26.64a40.535 40.535 0 0 0-6.73 1.93c-.47.17-.94.34-1.39.53a.441.441 0 0 0-.26.35.42.42 0 0 0 .38.44l2.79.18c1.8.13 3.57.27 5.31.57 1.32.15 2.62.43 3.9.68.64.1 1.28.27 1.92.4.41.08.82.18 1.22.28a18.138 18.138 0 0 1 2.64-6.21l-1.2.03zM542.83 97.69c-.71.1-1.43.15-2.14.27-1.42.28-2.83.54-4.21.93a41.332 41.332 0 0 0-7.18 2.64l-.76.35a.42.42 0 0 0-.23.37.41.41 0 0 0 .41.4h2c1.67 0 3.31 0 4.94.12a22.442 22.442 0 0 1 8.29-5.19l-1.12.11z" fill="#fff"/><path d="M599.9 155c-11.29 1.79-23.41 8.55-26.78 19.8.543 3.6.767 7.241.67 10.88 0 1.18-.08 2.37-.17 3.57 2.86-1 7.32-1.91 14.32-2.51 11.72-1 29.14-.65 39.45 2.48a115.798 115.798 0 0 0-1.75-25.79c-.09-.48-.19-1-.28-1.44-5.11-6.79-16.1-8.48-25.46-6.99zM550.42 109.87a33.14 33.14 0 0 1 18.7-12.34c-8.41-2.18-17.65-2.74-25.22.05a22.442 22.442 0 0 0-8.29 5.19l-.09.09a25.33 25.33 0 0 0-3.21 3.93 18.138 18.138 0 0 0-2.64 6.21 16.074 16.074 0 0 0-.17 5.61 20.856 20.856 0 0 0 3.33 8.39 36.351 36.351 0 0 0 10.23 10c-1.49-8.81 1.06-19 7.36-27.13z" fill="#FDB813"/><path d="M561.04 149.68c2.93-13.09 12.62-22.64 22-27.66a37.151 37.151 0 0 1 19.16-4.78 80.28 80.28 0 0 0-17.47-13.38c-16.31-4.62-26.06 5.2-29.52 9.68-6.62 8.58-8.37 20.07-4.42 27.94a54.69 54.69 0 0 1 6.91 5c1.14 1.04 2.28 2.1 3.34 3.2z" fill="#FDB813"/><path d="M608.88 124.93c-6.08-3-14.64-2.14-23 2.38-8.84 4.75-18.87 15-19.65 28.86a44.14 44.14 0 0 1 4.63 9.37c6.37-9.71 18.14-14.9 28.15-16.48 9.22-1.46 17.63-.23 23.92 3.18a87.36 87.36 0 0 0-11.44-23.79c-.87-1.21-1.73-2.37-2.61-3.52zM627 195.34c-7.1-2.58-22.76-3.84-37.32-2.74-12 .9-16.09 2.87-16.68 3.56-.08.09-.18.17-.27.26a89.228 89.228 0 0 1-5.54 18.91 210.38 210.38 0 0 0 22.5 3.62 284.327 284.327 0 0 0 33.2-18.24c1.41-.93 2.69-1.82 3.87-2.69.1-.91.16-1.79.24-2.68zM564.74 220.76a104.29 104.29 0 0 1-6.93 12.14c5.22-2.28 10.76-4.56 16.49-7l.74-.32 2.8-1.21 1-.44.6-.27a138.604 138.604 0 0 1-14.7-2.9z" fill="#FDB813"/><path d="M555.17 113.54c3.46-4.48 13.21-14.3 29.52-9.68-.78-.44-1.57-.88-2.36-1.29a63.47 63.47 0 0 0-13.21-5 33.14 33.14 0 0 0-18.7 12.34c-6.3 8.17-8.87 18.32-7.36 27.12a40.587 40.587 0 0 0 3.88 2.3c1.32.7 2.58 1.43 3.81 2.19-3.95-7.91-2.18-19.4 4.42-27.98zM585.84 127.31c8.4-4.52 17-5.34 23-2.38-.3-.39-.6-.79-.91-1.17a79.121 79.121 0 0 0-5.81-6.52A37.149 37.149 0 0 0 583 122c-9.34 5-19 14.57-22 27.66.38.4.74.81 1.1 1.22a44.223 44.223 0 0 1 4 5.27c.87-13.83 10.9-24.09 19.74-28.84zM598.97 149.06c-10 1.58-21.78 6.77-28.15 16.48a49.641 49.641 0 0 1 2.18 8.37c.05.29.08.58.12.87 3.37-11.25 15.49-18 26.78-19.8 9.36-1.47 20.35.22 25.46 7a91.495 91.495 0 0 0-2.47-9.73c-6.32-3.42-14.7-4.65-23.92-3.19zM573 196.16c.59-.69 4.72-2.66 16.68-3.56 14.56-1.1 30.22.16 37.32 2.74.17-2.08.31-4.13.39-6.14-10.31-3.13-27.73-3.49-39.45-2.48-7 .6-11.46 1.54-14.32 2.51a75.44 75.44 0 0 1-.89 7.19c.09-.09.19-.17.27-.26zM564.74 220.76a138.548 138.548 0 0 0 14.71 2.89c1-.45 2-.9 3.08-1.37 2.42-1.09 4.81-2.21 7.16-3.33a210.38 210.38 0 0 1-22.5-3.62 87.106 87.106 0 0 1-2.45 5.43z" fill="#10294C"/><path d="M635.02 666.41c-14.26-7.63-25.8-14.94-29.88-17.59v-.45a438.393 438.393 0 0 0 2.66-49.59 428.456 428.456 0 0 0-2.66-49.31s33.18-19.43 53-85.4h-1.57c1-.35 1.58-.51 1.58-.51l-9-5.18s-35.79 11.16-107.54 42c-40.81-24.32-95.52-56.3-144.38-82.74-92.66-50.1-144.36-72.88-144.36-72.88s-38 11.12-118.08 47.18S3.2 454.66 3.2 454.66 0 468.88 0 517.13s3.2 62.48 3.2 62.48 67.13 44.81 155.38 92c86 46 195.3 98.41 195.3 98.41s13.59 9.08 31.46 18.64c17.41 9.31 45.55 23.93 45.55 23.93s62.82-21.83 135.95-54.68 108.73-57.72 108.73-57.72v-11.85s-23.15-12.62-40.55-21.93z" fill="#FDB813"/><path d="M665.57 694.78c-15.2 9.45-47.9 28.45-98.77 51.3-73.13 32.85-135.95 54.67-135.95 54.67s-28.14-14.62-45.55-23.93c-7.24-3.87-14-7.67-19.45-10.82-7.07-4.07-12-7.07-13.06-7.72l-.2.07c.67 7.82 1.25 11.69 1.25 11.69s13.59 9.08 31.46 18.64c17.41 9.31 45.55 23.93 45.55 23.93s62.82-21.83 135.95-54.68 108.77-57.74 108.77-57.74v-11.85s-3.31 2.31-10 6.44zM486.85 524.71c-65.29 29.89-87.4 43.57-87.4 43.57a210.727 210.727 0 0 1-2.49 9.06c-14.23 47.6-38.47 67-42.5 70l-.29.2a.543.543 0 0 1-.11.08l-.08.05h-.06a124.96 124.96 0 0 0-1.8 15s15.38-8.74 31-31.44c9.48-13.76 19.06-32.65 25.37-57.84 0 0 4.11-2.54 14-7.82 12.79-6.83 35.25-18.24 71-34.67a2606.18 2606.18 0 0 1 32.08-14.46c8.7-3.853 16.967-7.463 24.8-10.83 47.94-20.64 79.86-32.49 95.8-38.09 5.07-1.78 8.52-2.93 10.37-3.53 1-.35 1.58-.51 1.58-.51l-9-5.18s-35.79 11.16-107.54 42c-7.9 3.387-16.233 7.027-25 10.92-10.79 4.9-20.67 9.35-29.73 13.49z" fill="#10294C"/><path d="M486.85 524.71c-11.51-6.88-27.93-16.53-42.48-24.4-19.8-10.72-32.87-16.94-37.8-19.23a6.05 6.05 0 0 0-4.56-.22c-7.47 2.61-31.52 11.17-50.07 19.53-14.45 6.51-36 16.15-49.23 22.1a6.09 6.09 0 0 0-.22 11c9.1 4.51 22.64 11.4 37.53 19.52 21 11.48 38.73 22.45 45.37 26.64a6.08 6.08 0 0 0 5.83.36l5.78-2.69a229.76 229.76 0 0 0 2.49-9.06c1.19-4.69 22.08-13.66 87.36-43.55z" fill="#fff"/><path d="M127.5 550.39c-5.31-2.12-86.23-46.72-90.63-49.39a1.698 1.698 0 0 0-.88-.27 1.4 1.4 0 0 0-.62.14 2.7 2.7 0 0 0-1.43 2c-1.52 8.08-1.89 17-1.53 36.84.32 18 .51 20 1.48 27.69.94 7.42 2.38 8.32 6.23 10.75 4.17 2.62 77.31 46.13 83.77 48.86a1.9 1.9 0 0 0 2.65-1.65c.11-2.23-.05-5.64-.26-9.95-.32-6.53-.75-15.47-.48-26.17.32-12.34 1.44-22.4 2.18-29 .4-3.65.72-6.53.72-8.07a1.89 1.89 0 0 0-1.2-1.78zm-66.81-7l7.38-10.72a6.18 6.18 0 0 1 11.07 1.94L83.69 552a6.17 6.17 0 0 1-9 6.93l-11.94-6.74a6.18 6.18 0 0 1-2-8.88l-.06.08zM50.1 517.95c4.14 0 7.5 6 7.5 13.48s-3.36 13.48-7.5 13.48c-4.14 0-7.49-6-7.49-13.48s3.36-13.52 7.49-13.52v.04zm-9.86 29.43l51.65 29.17v6.89l-51.65-29.17v-6.89zm9 27l-9-5.1v-6.89l9 5.1v6.89zm53.14 30l-47.25-26.65v-6.88l47.66 26.87-.41 6.66zm18.19-4.79l-22.78-12.87v-6.88l23.18 13.09-.4 6.66z" fill="#FDB813"/><path d="M65.69 547l11.94 6.74a.14.14 0 0 0 .19 0c.09-.07.08-.11.06-.18l-4.55-17.46a.15.15 0 0 0-.14-.13h-.05a.121.121 0 0 0-.12.08l-7.39 10.72a.18.18 0 0 0 0 .14.196.196 0 0 0 .06.09z" fill="#FDB813"/><path d="M353.57 747c.14-6.17.15-12.33.15-18.49V710v-18.42c0-6.15.12-12.3 0-18.49a1.82 1.82 0 0 0-3.61-.25c-.94 6.15-1.55 12.33-2 18.54-.21 3.1-.32 6.21-.43 9.32-.11 3.11-.08 6.23-.06 9.33.06 6.2.23 12.4.61 18.6.38 6.2.9 12.38 1.78 18.54a1.782 1.782 0 0 0 3.56-.17zM341.29 637.74c-13-8.47-26.1-16.69-39.25-24.89-13.15-8.2-26.47-16.15-39.74-24.09-26.61-15.86-53.58-31.13-80.72-46.09-27.24-14.75-54.62-29.26-82.25-43.26a4718.207 4718.207 0 0 0-41.59-20.72c-13.94-6.75-27.88-13.5-41.94-20a1.81 1.81 0 0 0-1.58 3.25c13.81 7 27.63 13.93 41.38 21 13.75 7.07 27.52 14.12 41.23 21.3 13.71 7.18 27.41 14.33 41.06 21.61a4220.63 4220.63 0 0 1 40.82 22.05c13.57 7.43 27.11 14.86 40.59 22.45 13.48 7.59 26.86 15.33 40.28 23 13.42 7.67 26.74 15.54 40 23.45 13.26 7.91 26.57 15.83 39.82 23.82a1.74 1.74 0 0 0 1.85-2.94l.04.06zM385.57 749.89c3.24-1.2 6.46-2.43 9.64-3.8 3.18-1.37 6.34-2.77 9.4-4.43a1.75 1.75 0 0 0-1.17-3.25c-3.42.69-6.75 1.61-10 2.6s-6.57 2.09-9.82 3.23c-3.25 1.14-6.45 2.4-9.63 3.75-3.18 1.35-6.33 2.75-9.4 4.4a1.82 1.82 0 0 0 1.23 3.39c3.41-.69 6.74-1.62 10-2.63 3.26-1.01 6.47-2.1 9.75-3.26zM566.4 671.57a83.241 83.241 0 0 0 8.76-3.49c2.86-1.28 5.65-2.71 8.41-4.18 2.76-1.47 5.47-3.06 8.12-4.74a81.62 81.62 0 0 0 7.72-5.44 1.75 1.75 0 0 0-1.71-3c-3 1.09-5.81 2.37-8.63 3.7-2.82 1.33-5.58 2.76-8.33 4.21-2.75 1.45-5.46 3-8.13 4.6-2.67 1.6-5.32 3.26-7.86 5.14a1.83 1.83 0 0 0 1.65 3.21v-.01zM387.57 644.13a26.118 26.118 0 0 0 4.74-1.37 45.235 45.235 0 0 0 8.58-4.46 26.61 26.61 0 0 0 3.85-3.09 1.82 1.82 0 0 0-1.59-3.07c-1.626.296-3.22.748-4.76 1.35a42.295 42.295 0 0 0-4.46 2 44.192 44.192 0 0 0-4.21 2.44 25.036 25.036 0 0 0-3.88 3.07 1.88 1.88 0 0 0 1.64 3.2l.09-.07zM548.57 569.9l-1 .42c-17.44 7-39.71 16.21-67.93 28.41-28.51 12.33-51.1 22.83-68.84 31.55-.88 9.84-1.78 25.74-1.78 49.59 0 27.26 1.17 46.33 2.15 57.48 21.93-8.28 48.27-18.67 76-30.55 23-9.86 43.34-19.37 60.35-27.74 1-7 3.32-25.81 3.32-56.09a413.561 413.561 0 0 0-2.59-47.15l2.32-.82c5.35-1.83 10.66-3.76 16-5.7 5.34-1.94 10.59-4 15.84-6.07 5.25-2.07 10.5-4.24 15.65-6.46a1.74 1.74 0 0 0-1.08-3.3c-5.61 1.3-11 3-16.43 4.67s-10.75 3.61-16.08 5.54c-5.33 1.93-10.67 4.03-15.9 6.22z" fill="#10294C"/><path d="M556.37 676.17a1.81 1.81 0 0 0 2.1-1.46 232.998 232.998 0 0 0 3-24c.61-8 .89-16.07.94-24.11.05-8.04-.19-16.08-.7-24.1-.51-8.02-1.31-16-2.49-24a1.74 1.74 0 0 0-3.461.31c.22 8 .4 15.963.54 23.89.11 8 .19 15.91.11 23.86 0 4-.047 7.977-.14 11.93 0 4-.19 7.94-.29 11.91-.28 7.95-.6 15.89-1.08 23.84a1.82 1.82 0 0 0 1.471 1.93z" fill="#10294C"/><path d="M371 592.38l6.78-3.11-38.72-21.32-6.78 3.11L371 592.38zM332.53 564.35l-50.71-27.92-6.78 3.11 50.71 27.93 6.78-3.12zM278.52 550.39l-12.32-6.79-6.78 3.12 12.32 6.78 6.78-3.11zM292.41 573.83l-41.85-23.04-6.78 3.11 41.85 23.04 6.78-3.11zM310.05 590.39l6.78-3.11-17.89-9.85-6.78 3.11 17.89 9.85zM333.07 587.28l22.3 12.28 6.78-3.11-22.3-12.28-6.78 3.11zM333.32 580.57l-48.26-26.58-6.79 3.12 48.27 26.57 6.78-3.11zM129.73 544.81c-4.18-1.66-83.37-45.07-89.74-48.94a7.511 7.511 0 0 0-7.06-.48 8.67 8.67 0 0 0-4.88 6.4c-1.6 8.54-2 17.78-1.63 38.05.33 18.31.53 20.39 1.53 28.34 1.17 9.26 3.63 11.71 9 15.08 3.92 2.46 77.36 46.23 84.63 49.31a7.9 7.9 0 0 0 11-6.88c.13-2.52 0-6.06-.26-10.54-.31-6.43-.74-15.25-.47-25.73.31-12.09 1.41-22 2.14-28.54.44-4 .76-6.86.76-8.74a7.89 7.89 0 0 0-5.02-7.33zm-1.75 15.41c-.74 6.65-1.86 16.71-2.18 29-.27 10.7.16 19.64.48 26.17.21 4.31.37 7.72.26 9.95a1.9 1.9 0 0 1-2.65 1.65c-6.46-2.73-79.6-46.24-83.77-48.86-3.85-2.43-5.29-3.33-6.23-10.75-1-7.68-1.16-9.7-1.48-27.69-.36-19.81 0-28.76 1.53-36.84a2.7 2.7 0 0 1 1.43-2 1.4 1.4 0 0 1 .62-.14c.313.007.617.101.88.27 4.4 2.67 85.32 47.27 90.63 49.39a1.89 1.89 0 0 1 1.2 1.76c0 1.56-.32 4.44-.72 8.09z" fill="#F04E23"/><path d="M40.24 569.24l9.03 5.1v-6.89l-9.03-5.1v6.89zM55.16 577.65l47.26 26.65.4-6.66-47.66-26.87v6.88zM91.89 576.51l-51.65-29.17v6.89l51.65 29.17v-6.89zM97.78 586.72l22.78 12.87.4-6.66-23.18-13.09v6.88zM50.1 544.87c4.14 0 7.5-6 7.5-13.48s-3.36-13.48-7.5-13.48c-4.14 0-7.49 6-7.49 13.48s3.36 13.48 7.49 13.48zM62.74 552.23L74.68 559a6.17 6.17 0 0 0 9-6.93l-4.55-17.47a6.18 6.18 0 0 0-11.07-1.94l-7.38 10.72a6.18 6.18 0 0 0 2 8.88l.06-.03zm2.89-5.48L73.02 536a.121.121 0 0 1 .12-.08h.05a.15.15 0 0 1 .14.13l4.55 17.46c0 .07 0 .11-.06.18a.14.14 0 0 1-.19 0L65.69 547a.2.2 0 0 1-.08-.12.179.179 0 0 1 .02-.13z" fill="#F04E23"/><path d="M437.95 650.25c-1.765 11.805 6.375 22.805 18.18 24.57 11.805 1.765 22.805-6.375 24.57-18.18-20.3-21.32-42.75-6.39-42.75-6.39zM525.02 615.48s-24 4.61-23.2 32.76c8.015 6.627 19.884 5.502 26.511-2.512.322-.39.629-.793.919-1.208 6.361-9.306 4.522-21.935-4.23-29.04z" fill="#00ACDC"/><path d="M456.42 652.36a4.933 4.933 0 0 0-.64 1.65 5.203 5.203 0 0 0 0 1.68c.088.613.291 1.203.6 1.74.231.391.499.76.8 1.1a6.062 6.062 0 0 0-1.44 2 5.338 5.338 0 0 0-.42 1.88 5.855 5.855 0 0 0 .21 1.82c.18.615.472 1.191.86 1.7.293.372.628.707 1 1l.4.31c-.15.19-.32.41-.5.68a4.998 4.998 0 0 0-.6 1.43 3.919 3.919 0 0 0 0 1.48 1.691 1.691 0 0 0 1.77 1.43h.15a7.902 7.902 0 0 0 4-2.42c.07-.08.13-.18.2-.27.07-.09.18-.21.26-.32.08-.11 0 0 0 0v-.07c.311-.514.527-1.08.64-1.67a5.203 5.203 0 0 0 0-1.68 5.002 5.002 0 0 0-.6-1.76 7.063 7.063 0 0 0-.83-1.13 5.884 5.884 0 0 0 1.39-1.94 5.338 5.338 0 0 0 .42-1.88 5.478 5.478 0 0 0-.2-1.81 5.387 5.387 0 0 0-.86-1.71 6.223 6.223 0 0 0-1-1 5.803 5.803 0 0 0-.46-.35c.15-.2.32-.42.51-.71a4.55 4.55 0 0 0 .59-1.4c.09-.483.09-.977 0-1.46a1.734 1.734 0 0 0-.4-.84 1.698 1.698 0 0 0-1.24-.57 1.603 1.603 0 0 0-.54.09 6.937 6.937 0 0 0-3.58 2.3c-.09.09-.18.2-.27.31a1.715 1.715 0 0 0-.17.21c.1.04 0 .1-.05.18zM521.43 633.87c.301-.337.569-.702.8-1.09a4.992 4.992 0 0 0 .6-1.75 5.142 5.142 0 0 0 0-1.67 4.834 4.834 0 0 0-.64-1.65 2.023 2.023 0 0 0-.16-.22 1.715 1.715 0 0 0-.17-.21 2.948 2.948 0 0 0-.27-.32 6.998 6.998 0 0 0-3.58-2.29 1.42 1.42 0 0 0-.54-.09h-.05a1.698 1.698 0 0 0-1.24.57 1.762 1.762 0 0 0-.4.85 4.015 4.015 0 0 0 0 1.45c.117.497.316.97.59 1.4.19.29.36.52.51.71-.11.08-.25.18-.46.35a5.988 5.988 0 0 0-1 1 5.387 5.387 0 0 0-.86 1.71 5.478 5.478 0 0 0-.2 1.81c.024.644.166 1.278.42 1.87a5.92 5.92 0 0 0 1.39 2 6.213 6.213 0 0 0-.83 1.13 4.91 4.91 0 0 0-.6 1.76 5.26 5.26 0 0 0 0 1.68c.115.59.331 1.155.64 1.67v.11l.26.33c.07.08.13.18.2.26a8.002 8.002 0 0 0 4.05 2.43h.15a1.73 1.73 0 0 0 1.41-.63c.19-.233.314-.513.36-.81a3.919 3.919 0 0 0 0-1.48 4.807 4.807 0 0 0-.6-1.42 8.468 8.468 0 0 0-.5-.69l.4-.31a6.39 6.39 0 0 0 1-1c.388-.513.68-1.092.86-1.71a5.855 5.855 0 0 0 .21-1.82 5.237 5.237 0 0 0-.42-1.87 6.01 6.01 0 0 0-1.33-2.06z" fill="#10294C"/><path d="M447.57 515.21l-59.37 9.16 1.67-15.16-21.86-2.42-4.84 43.7 87.75-13.54-3.35-21.74z" fill="#00ACDC"/><path d="M638.03 237.05c-6.74 3.84-87.15 41.72-94.32 44.37a7.07 7.07 0 0 0-4.61 6.42c-.37 13-.53 103.7-.11 121.5a7.06 7.06 0 0 0 9.64 6.4c10-3.92 90-42.93 96.17-46.54a6.998 6.998 0 0 0 3.5-5.85c.46-13.56.9-102.08.29-120.39a7.07 7.07 0 0 0-10.56-5.91z" fill="#fff"/><path d="M584.07 335.69l-13.25-15.17-17.32 15.13 36.37 41.65 43.24-91.64-20.8-9.81-28.24 59.84z" fill="#F04E23"/><path d="M201.36 427.45c.3-5.93-.19-19.51.26-37.2.49-19.18 1.91-28.49 1.9-33.2a4.899 4.899 0 0 0-3.09-4.54c-4.93-2-60.08-31.76-64.69-34.56-3.15-1.91-6.76.29-7.44 3.92-1.63 8.69-1.92 18.49-1.58 37.44.33 18.3.54 20.32 1.51 28 1 8.27 2.93 10 7.61 12.91 4.2 2.65 51.83 28.57 58.7 31.47a4.91 4.91 0 0 0 6.82-4.24z" fill="#fff"/><path d="M157.34 373.41l-6.07-9.37-14.27 9.25 17.08 26.33 38.64-35.85-11.56-12.46-23.82 22.1z" fill="#FDB813"/><path d="M372.48 354.14c-6.92-30.87-22.68-53.76-28-60.48 0 0-20.57-19.78-59.19-38.8-8.8-4.34-16.4-7.88-22.9-10.78-8.49-3.81-19.44-7.28-28.71-9.89a18.119 18.119 0 0 0-9.61-.05l-18 4.86c-4.46 1.5-9.45 3.27-14.92 5.33-5.47 2.06-11.44 4.42-17.8 7.09-7.78 3.27-15.05 6.66-21.65 10a335.482 335.482 0 0 0-37.35 21.45C94.7 307.01 86.8 337.33 86.69 337.8l7.28 7s9.93-8.29 17.46-12.43v.32c-.16 8.87-.26 19.25-.26 31.41 0 69.69 3.19 77.84 3.19 77.84s9.83 10.14 41.62 28.8 72.45 33.12 72.45 33.12 29.24-7 66.56-24.24c37.32-17.24 49.58-26.9 49.58-26.9s3.94-27.3 4-77.66c0 0 .25-2.48.25-6.31 19.16-9.84 22.99-13.75 23.66-14.61z" fill="#F04E23"/><path d="M372.48 354.14c-.67.85-4.53 4.8-24 14.75-7.39 3.79-17 8.44-29.57 14.12-50.44 22.8-62.41 22-62.41 22-7.13-32.45-21.77-52.57-26.54-58.47v-.09a1.732 1.732 0 1 0-3.45-.32c-1.64 12.27-2.46 24.55-3 36.84-.54 12.29-.81 24.58-.9 36.87-.09 12.29.06 24.58.46 36.87s1.05 24.59 2.43 36.86a1.81 1.81 0 0 0 3.61-.25c-.19-6.1-.37-12.21-.4-18.33-.03-6.12-.11-12.24-.14-18.36v-18.34l.05-18.37c0-12.25.15-24.49.32-36.73.1-6.12.2-12.24.37-18.35 0-1.38.08-2.75.12-4.12 6.47 9.76 16.21 28.09 21.62 52.72 0 0 13 .76 63.42-22.05 15.1-6.84 26.1-12.19 34.1-16.33 18.54-9.65 20.6-12.71 20.6-12.71l3.49-7.64c-.09-.19-.09-.38-.18-.57zM226.01 306.29c4.92 2.47 9.6 4.74 14 6.82-5.85-2.79-11.04-5.35-14-6.82zM112.44 302.81a168.283 168.283 0 0 0-12.95 25.82 147.443 147.443 0 0 0-5.5 16.13 174.701 174.701 0 0 1 17.45-12.11c.07-4.16.16-8 .26-11.49.21-7.42.47-13.45.74-18.35zM220.41 339.6c-8.34-4-16.64-8.047-24.9-12.14-4.12-2.08-8.26-4.12-12.35-6.25s-8.21-4.22-12.27-6.4c-4.06-2.18-8.14-4.34-12.19-6.55-4.05-2.21-8.06-4.47-12.08-6.72s-8-4.59-11.95-7c-3.95-2.41-7.86-4.78-11.75-7.25a1.73 1.73 0 0 0-2 2.821 232.488 232.488 0 0 0 23 16c7.91 4.94 16 9.53 24.23 13.92 8.23 4.39 16.58 8.49 25.07 12.31 8.49 3.82 17.1 7.37 25.88 10.51a1.802 1.802 0 1 0 1.38-3.33l-.07.079z" fill="#10294C"/><path d="M151.51 429.06l-.09-.01 36.79 20.73.4-6.66-36.69-20.67-.41 6.61zM143.99 417.98L124 406.72v6.89l19.58 11.03.41-6.66zM124 428.62l26.97 15.2.41-6.66L124 421.73v6.89zM196.13 454.25l8.39 4.72v-6.89l-7.98-4.49-.41 6.66zM158.9 448.28l16.75 9.44v-6.88l-16.34-9.21-.41 6.65z" fill="#FDB813"/><path d="M310.1 439.49a3 3 0 0 0 3.44.73l3.08-1.35v12a2.999 2.999 0 0 0 4.21 2.74l7.6-3.34a2.998 2.998 0 0 0 1.79-2.75v-14.64l5.5-2.42a2.998 2.998 0 0 0 1.76-2.29 3 3 0 0 0-1-2.71l-11.09-9.79a3 3 0 0 0-4.6.77L309.72 436a3 3 0 0 0 .38 3.49zM341.8 296.31a1.74 1.74 0 0 0-2.38-.59h-.05c-3.91 2.35-8 4.55-12.16 6.61-4.16 2.06-8.33 4.1-12.54 6.1l-9.49 4.43a300.632 300.632 0 0 0-39-25.68 266.874 266.874 0 0 0-35.4-17.68c-26.25-12.12-37.45-15.36-39.31-15.86a514.627 514.627 0 0 0-12.86 5.2c-6.74 2.83-13.1 5.76-19 8.63a378.005 378.005 0 0 0 32.87 20.81c3.647 2.1 7.59 4.31 11.83 6.63 7.52 4.12 14.74 7.88 21.53 11.28 4.7 2.38 21.66 10.42 28.25 13.35 8.34 3.71 14.78 6.35 18.6 7.87-3 1.31-6 2.62-9.07 3.89-4.29 1.79-8.59 3.55-12.92 5.22s-8.69 3.26-13.07 4.71a1.81 1.81 0 0 0 1 3.48 193.387 193.387 0 0 0 27.1-8.31c4.42-1.63 8.77-3.42 13.12-5.21s8.64-3.72 12.93-5.63c8.54-3.89 17-7.92 25.37-12.29 8.37-4.37 16.58-8.94 24.27-14.71a1.75 1.75 0 0 0 .38-2.25z" fill="#10294C"/><path d="M306.62 302.54a217.085 217.085 0 0 0-24-18c-4.17-2.75-8.46-5.34-12.77-7.88-.75-.43-1.51-.84-2.27-1.27-6-3.33-36.74-18.32-44.13-21.31-7.14-3-14.38-5.76-21.78-8.14a1.81 1.81 0 0 0-1.28 3.38c4.51 2 9 3.95 13.5 6.07s8.95 4.19 13.42 6.32l1 .48c14.69 7 32.35 16 38.74 19.6a452.892 452.892 0 0 1 12.69 7.34c8.43 5.09 16.71 10.44 24.75 16.15a1.74 1.74 0 0 0 2.14-2.73l-.01-.01z" fill="#10294C"/><path d="M153.97 152.54c5 7.79 13.75 12.12 24 11.94 10.25-.18 20.12-5.17 24.33-12.36a4.069 4.069 0 0 1 1.7-1.57 56.943 56.943 0 0 1 1.95-8.79 42.276 42.276 0 0 1-12.73 1.87 52.004 52.004 0 0 1-24.45-6.1 32.51 32.51 0 0 1-12.89-12 108.71 108.71 0 0 0-3.11 22.28c-.04 1.173-.06 2.343-.06 3.51.509.304.94.721 1.26 1.22z" fill="#FDB813"/><path d="M172.57 130.51c11.92 6.51 28.3 6.93 36.51.95a3.918 3.918 0 0 1 1.59-.68c.56-1 1.15-2 1.77-2.91a49.68 49.68 0 0 1 9.13-10.46l-.22-.26c-21.59 5.41-48.1-19.65-38.83-39.19l-.35-.34a104.729 104.729 0 0 0-16.88 23.3 106.793 106.793 0 0 0-4.8 10.38c.198.526.287 1.088.26 1.65-.58 9.33 7.19 15.05 11.82 17.56zM191.18 194.17c8.67-4.43 14.31-12.33 14.48-20.21a51.912 51.912 0 0 1-2-11c-6.43 5.77-15.67 9.35-25.48 9.55h-.86a35.851 35.851 0 0 1-23.85-8.51 100.324 100.324 0 0 0 7.54 28 28.571 28.571 0 0 0 30.17 2.17z" fill="#FDB813"/><path d="M188.45 225.83c8.22 2.65 16.2.73 21.9-5.29 6.58-6.94 8.44-17.67 4.74-27.34a3.999 3.999 0 0 1-.14-2.38 43.424 43.424 0 0 1-4.09-5.46 35.915 35.915 0 0 1-16 15.93 37.724 37.724 0 0 1-17.2 4.23 35.663 35.663 0 0 1-10.44-1.58 91.547 91.547 0 0 0 8.76 12 88.643 88.643 0 0 0 10.05 9.9 3.998 3.998 0 0 1 2.42-.01z" fill="#FDB813"/><path d="M212.23 243.16a4.01 4.01 0 0 1 1.56.2c7.62 2.59 17.34-.24 23.63-6.88 3.41-3.6 8.47-11.28 4.07-22.28a3.83 3.83 0 0 1-.28-1.39 114.878 114.878 0 0 0-5.41-5c-2.83-2.45-5.74-4.74-8.7-6.89-.78-.57-1.58-1.14-2.38-1.7a33.471 33.471 0 0 1-8.56 26.84 28.13 28.13 0 0 1-17.43 8.75l1 .6c1.21.65 2.27 1.21 3.38 1.85 1.11.64 2 1.15 2.95 1.75 1.14.7 2.27 1.42 3.36 2.16 1.09.74 1.9 1.31 2.81 1.99zM243.23 242a33.455 33.455 0 0 1-21.29 10.2c.52.62 1 1.24 1.49 1.88a40.272 40.272 0 0 1 3 4.53c.354.112.691.274 1 .48 6.68 4.62 19.41 4.45 27.81-.37 3.54-2 7.66-5.73 7.19-11.8a4 4 0 0 1 .34-1.89l-.36-.93a83.888 83.888 0 0 0-10.84-19.48l-.41-.54a27.929 27.929 0 0 1-7.93 17.92zM259.24 265.64a38.538 38.538 0 0 1-18.89 4.8 36.648 36.648 0 0 1-9.65-1.26c0 .11.05.24.07.35.22.94.41 1.88.56 2.84.576 3.992.653 8.039.23 12.05 2.52 5.9 10 9.57 16.68 10.55 6 .9 13.4-.06 17.38-5 .2-.9.38-1.81.55-2.73.34-1.787.627-3.6.86-5.44.26-2.1.43-4.24.53-6.4.09-1.83.12-3.67.08-5.53a75.247 75.247 0 0 0-1-10.53 24.482 24.482 0 0 1-7.4 6.3zM262.24 301.66a29.295 29.295 0 0 1-9.84 1.63 36.575 36.575 0 0 1-5.34-.4 33.868 33.868 0 0 1-17.49-7.89 90.403 90.403 0 0 1-1.79 5.91 76.71 76.71 0 0 1-2 5.32l.15.07c3 1.47 8.15 4 14 6.82 4.54 2.16 9.48 4.47 14.08 6.5 1.13-2 2.23-4.12 3.27-6.26a118.673 118.673 0 0 0 4.96-11.7z" fill="#FDB813"/><path d="M221.32 117.15l.22.26a49.435 49.435 0 0 1 8-5.72c.68-.39 1.4-.84 2.06-1.29 13-9 13-24.68 4-37.7-9-13.02-23.52-18.43-36.54-9.45l-.73.5a105.647 105.647 0 0 0-16.26 13.87l.35.34c-9.2 19.54 17.31 44.6 38.9 39.19zM229.57 295a33.86 33.86 0 0 0 17.45 7.9c1.768.264 3.553.397 5.34.4a29.295 29.295 0 0 0 9.84-1.63c1-2.84 1.9-5.74 2.67-8.74.25-1 .49-2 .71-3-4 5-11.34 5.93-17.38 5-6.64-1-14.16-4.65-16.68-10.55a69.22 69.22 0 0 1-.18 1.65 70.342 70.342 0 0 1-1.77 8.97zM255.26 258.7c-8.4 4.82-21.13 5-27.81.37a3.955 3.955 0 0 0-1-.48 35.57 35.57 0 0 1 1.83 3.58 38.654 38.654 0 0 1 2.41 7 36.648 36.648 0 0 0 9.65 1.26 38.538 38.538 0 0 0 18.89-4.8 24.482 24.482 0 0 0 7.39-6.33 73.824 73.824 0 0 0-3.51-13.44l-.33-.86a4 4 0 0 0-.34 1.89c.48 6.11-3.64 9.77-7.18 11.81zM237.42 236.48c-6.29 6.64-16 9.47-23.63 6.88a4.01 4.01 0 0 0-1.56-.2 62.2 62.2 0 0 1 7.88 7c.64.68 1.24 1.37 1.83 2.06A33.45 33.45 0 0 0 243.23 242a27.927 27.927 0 0 0 7.92-17.9 100.94 100.94 0 0 0-9.94-11.27c.006.477.101.948.28 1.39 4.4 10.98-.66 18.66-4.07 22.26zM216.16 226.05a33.471 33.471 0 0 0 8.56-26.84l-2-1.41-1.27-.93-1.23-1a43.437 43.437 0 0 1-5.23-5.09 4.007 4.007 0 0 0 .14 2.38c3.7 9.67 1.84 20.4-4.74 27.34-5.7 6-13.68 7.94-21.9 5.29a4.006 4.006 0 0 0-2.46 0 89.039 89.039 0 0 0 8.54 6.38l2.59 1.64 1.61.94a28.13 28.13 0 0 0 17.39-8.7zM194.82 201.29a35.915 35.915 0 0 0 16-15.93 45.796 45.796 0 0 1-4.51-9.25c-.25-.7-.47-1.43-.69-2.15-.17 7.88-5.81 15.78-14.48 20.21a28.569 28.569 0 0 1-30.17-2.1c.45 1.05.92 2.1 1.42 3.14a92.154 92.154 0 0 0 4.75 8.73 35.663 35.663 0 0 0 10.44 1.58 37.732 37.732 0 0 0 17.24-4.23zM178.14 172.48c9.81-.2 19.05-3.78 25.48-9.55a57.107 57.107 0 0 1 .28-11.69c0-.23.07-.46.11-.69a4.069 4.069 0 0 0-1.7 1.57c-4.21 7.19-14 12.15-24.33 12.36-10.33.21-19-4.15-24-11.94a3.825 3.825 0 0 0-1.25-1.22 104.34 104.34 0 0 0 .74 12.68 35.85 35.85 0 0 0 23.81 8.44l.86.04zM168.78 137.53a52.004 52.004 0 0 0 24.45 6.1c4.314.03 8.607-.601 12.73-1.87a55.432 55.432 0 0 1 4.75-11 3.918 3.918 0 0 0-1.59.68c-8.21 6-24.59 5.56-36.51-.95-4.67-2.55-12.44-8.23-11.89-17.56a4.124 4.124 0 0 0-.26-1.65 108.033 108.033 0 0 0-4.57 14.23 32.506 32.506 0 0 0 12.89 12.02z" fill="#10294C"/></svg>