<svg width="1842" height="1833" fill="none" xmlns="http://www.w3.org/2000/svg"><path d="M1784.88 893.601c-219.8 521.299-285.8 938.499-797.503 938.499-511.7 0-926.5-414.8-926.5-926.499 0-511.7 417-717.6 907-864.8 669.203-201 1018.103 381.6 817.003 852.8z" fill="#FFC400"/><path d="M1329.58 29.101c0 10.8-4.3 18.2-13.3 18.2s-13-8.1-13-18c0-10.1 4.3-18.1 13.3-18.1 9.4.1 13 8.4 13 17.9zm-18.1.2c-.1 8 1.9 11.8 5 11.8 3.2 0 4.9-4 4.9-11.9 0-7.7-1.7-11.8-4.9-11.8-3 0-5 3.8-5 11.9zM1314.28 72.701l-6.8 3.2-1.3-6.1 9.2-4.3h6.8v34.9h-7.9v-27.7zM1329.58 136.401c0 10.8-4.3 18.2-13.3 18.2s-13-8.1-13-18c0-10.1 4.3-18.1 13.3-18.1 9.4.1 13 8.4 13 17.9zm-18.1.2c-.1 8 1.9 11.8 5 11.8 3.2 0 4.9-4 4.9-11.9 0-7.7-1.7-11.8-4.9-11.8-3 0-5 3.8-5 11.9zM1329.58 190.101c0 10.8-4.3 18.2-13.3 18.2s-13-8.1-13-18c0-10.1 4.3-18.1 13.3-18.1 9.4 0 13 8.3 13 17.9zm-18.1.2c-.1 8 1.9 11.8 5 11.8 3.2 0 4.9-4 4.9-11.9 0-7.7-1.7-11.8-4.9-11.8-3 0-5 3.8-5 11.9zM1314.28 233.701l-6.8 3.2-1.3-6.1 9.2-4.3h6.8v34.9h-7.9v-27.7zM1314.28 287.302l-6.8 3.2-1.3-6.1 9.2-4.3h6.8v34.9h-7.9v-27.7zM1314.28 341.001l-6.8 3.2-1.3-6.1 9.2-4.3h6.8v34.9h-7.9v-27.7zM1314.28 394.601l-6.8 3.2-1.3-6.1 9.2-4.3h6.8v34.9h-7.9v-27.7zM1329.58 458.301c0 10.8-4.3 18.2-13.3 18.2s-13-8.1-13-18c0-10.1 4.3-18.1 13.3-18.1 9.4 0 13 8.3 13 17.9zm-18.1.2c-.1 8 1.9 11.8 5 11.8 3.2 0 4.9-4 4.9-11.9 0-7.7-1.7-11.8-4.9-11.8-3 0-5 3.8-5 11.9zM1329.58 511.901c0 10.8-4.3 18.2-13.3 18.2s-13-8.1-13-18c0-10.1 4.3-18.1 13.3-18.1 9.4.1 13 8.4 13 17.9zm-18.1.3c-.1 8 1.9 11.8 5 11.8 3.2 0 4.9-4 4.9-11.9 0-7.7-1.7-11.8-4.9-11.8-3-.1-5 3.8-5 11.9zM1329.58 565.601c0 10.8-4.3 18.2-13.3 18.2s-13-8.1-13-18c0-10.1 4.3-18.1 13.3-18.1 9.4 0 13 8.3 13 17.9zm-18.1.2c-.1 8 1.9 11.8 5 11.8 3.2 0 4.9-4 4.9-11.9 0-7.7-1.7-11.8-4.9-11.8-3 0-5 3.8-5 11.9zM1314.28 609.201l-6.8 3.2-1.3-6.1 9.2-4.3h6.8v34.9h-7.9v-27.7zM1354.78 19.101l-6.8 3.2-1.3-6.1 9.2-4.3h6.8v34.9h-7.9v-27.7zM1354.78 72.701l-6.8 3.2-1.3-6.1 9.2-4.3h6.8v34.9h-7.9v-27.7zM1370.08 136.401c0 10.8-4.3 18.2-13.3 18.2s-13-8.1-13-18c0-10.1 4.3-18.1 13.3-18.1 9.4.1 13 8.4 13 17.9zm-18.1.2c-.1 8 1.9 11.8 5 11.8 3.2 0 4.9-4 4.9-11.9 0-7.7-1.7-11.8-4.9-11.8-3 0-5 3.8-5 11.9zM1354.78 180.001l-6.8 3.2-1.3-6.1 9.2-4.3h6.8v34.9h-7.9v-27.7zM1370.08 243.701c0 10.8-4.3 18.2-13.3 18.2s-13-8.1-13-18c0-10.1 4.3-18.1 13.3-18.1 9.4 0 13 8.4 13 17.9zm-18.1.2c-.1 8 1.9 11.8 5 11.8 3.2 0 4.9-4 4.9-11.9 0-7.7-1.7-11.8-4.9-11.8-3 0-5 3.8-5 11.9zM1370.08 297.401c0 10.8-4.3 18.2-13.3 18.2s-13-8.1-13-18c0-10.1 4.3-18.1 13.3-18.1 9.4 0 13 8.3 13 17.9zm-18.1.2c-.1 8 1.9 11.8 5 11.8 3.2 0 4.9-4 4.9-11.9 0-7.7-1.7-11.8-4.9-11.8-3 0-5 3.8-5 11.9zM1370.08 351.002c0 10.8-4.3 18.2-13.3 18.2s-13-8.1-13-18c0-10.1 4.3-18.1 13.3-18.1 9.4 0 13 8.4 13 17.9zm-18.1.2c-.1 8 1.9 11.8 5 11.8 3.2 0 4.9-4 4.9-11.9 0-7.7-1.7-11.8-4.9-11.8-3 0-5 3.8-5 11.9zM1354.78 394.601l-6.8 3.2-1.3-6.1 9.2-4.3h6.8v34.9h-7.9v-27.7zM1370.08 458.301c0 10.8-4.3 18.2-13.3 18.2s-13-8.1-13-18c0-10.1 4.3-18.1 13.3-18.1 9.4 0 13 8.3 13 17.9zm-18.1.2c-.1 8 1.9 11.8 5 11.8 3.2 0 4.9-4 4.9-11.9 0-7.7-1.7-11.8-4.9-11.8-3 0-5 3.8-5 11.9zM1354.78 501.901l-6.8 3.2-1.3-6.1 9.2-4.3h6.8v34.8h-7.9v-27.6zM1354.78 555.601l-6.8 3.2-1.3-6.1 9.2-4.3h6.8v34.9h-7.9v-27.7zM1354.78 609.201l-6.8 3.2-1.3-6.1 9.2-4.3h6.8v34.9h-7.9v-27.7zM1410.58 29.101c0 10.8-4.3 18.2-13.3 18.2s-13-8.1-13-18c0-10.1 4.3-18.1 13.3-18.1 9.4.1 13 8.4 13 17.9zm-18.1.2c-.1 8 1.9 11.8 5 11.8 3.2 0 4.9-4 4.9-11.9 0-7.7-1.7-11.8-4.9-11.8-3 0-5 3.8-5 11.9zM1410.58 82.801c0 10.8-4.3 18.2-13.3 18.2s-13-8.1-13-18c0-10.1 4.3-18.1 13.3-18.1 9.4 0 13 8.3 13 17.9zm-18.1.2c-.1 8 1.9 11.8 5 11.8 3.2 0 4.9-4 4.9-11.9 0-7.7-1.7-11.8-4.9-11.8-3 0-5 3.8-5 11.9zM1395.28 126.401l-6.8 3.2-1.3-6.1 9.2-4.3h6.8v34.9h-7.9v-27.7zM1410.58 190.101c0 10.8-4.3 18.2-13.3 18.2s-13-8.1-13-18c0-10.1 4.3-18.1 13.3-18.1 9.4 0 13 8.3 13 17.9zm-18.1.2c-.1 8 1.9 11.8 5 11.8 3.2 0 4.9-4 4.9-11.9 0-7.7-1.7-11.8-4.9-11.8-3 0-5 3.8-5 11.9zM1410.58 243.701c0 10.8-4.3 18.2-13.3 18.2s-13-8.1-13-18c0-10.1 4.3-18.1 13.3-18.1 9.4 0 13 8.4 13 17.9zm-18.1.2c-.1 8 1.9 11.8 5 11.8 3.2 0 4.9-4 4.9-11.9 0-7.7-1.7-11.8-4.9-11.8-3 0-5 3.8-5 11.9zM1451.08 29.101c0 10.8-4.3 18.2-13.3 18.2s-13-8.1-13-18c0-10.1 4.3-18.1 13.3-18.1 9.4.1 13 8.4 13 17.9zm-18.1.2c-.1 8 1.9 11.8 5 11.8 3.2 0 4.9-4 4.9-11.9 0-7.7-1.7-11.8-4.9-11.8-3 0-5 3.8-5 11.9zM1451.08 82.801c0 10.8-4.3 18.2-13.3 18.2s-13-8.1-13-18c0-10.1 4.3-18.1 13.3-18.1 9.4 0 13 8.3 13 17.9zm-18.1.2c-.1 8 1.9 11.8 5 11.8 3.2 0 4.9-4 4.9-11.9 0-7.7-1.7-11.8-4.9-11.8-3 0-5 3.8-5 11.9zM1451.08 136.401c0 10.8-4.3 18.2-13.3 18.2s-13-8.1-13-18c0-10.1 4.3-18.1 13.3-18.1 9.4.1 13 8.4 13 17.9zm-18.1.2c-.1 8 1.9 11.8 5 11.8 3.2 0 4.9-4 4.9-11.9 0-7.7-1.7-11.8-4.9-11.8-3 0-5 3.8-5 11.9zM1435.78 180.001l-6.8 3.2-1.3-6.1 9.2-4.3h6.8v34.9h-7.9v-27.7zM1476.28 19.101l-6.8 3.2-1.3-6.1 9.2-4.3h6.8v34.9h-7.9v-27.7zM1476.28 72.701l-6.8 3.2-1.3-6.1 9.2-4.3h6.8v34.9h-7.9v-27.7zM1476.28 126.401l-6.8 3.2-1.3-6.1 9.2-4.3h6.8v34.9h-7.9v-27.7zM1491.58 190.101c0 10.8-4.3 18.2-13.3 18.2s-13-8.1-13-18c0-10.1 4.3-18.1 13.3-18.1 9.4 0 13 8.3 13 17.9zm-18.1.2c-.1 8 1.9 11.8 5 11.8 3.2 0 4.9-4 4.9-11.9 0-7.7-1.7-11.8-4.9-11.8-3 0-5 3.8-5 11.9zM1516.78 19.101l-6.8 3.2-1.3-6.1 9.2-4.3h6.8v34.9h-7.9v-27.7zM1532.08 82.801c0 10.8-4.3 18.2-13.3 18.2s-13-8.1-13-18c0-10.1 4.3-18.1 13.3-18.1 9.3 0 13 8.3 13 17.9zm-18.1.2c-.1 8 1.9 11.8 5 11.8 3.2 0 4.9-4 4.9-11.9 0-7.7-1.7-11.8-4.9-11.8-3 0-5 3.8-5 11.9zM1532.08 136.401c0 10.8-4.3 18.2-13.3 18.2s-13-8.1-13-18c0-10.1 4.3-18.1 13.3-18.1 9.3.1 13 8.4 13 17.9zm-18.1.2c-.1 8 1.9 11.8 5 11.8 3.2 0 4.9-4 4.9-11.9 0-7.7-1.7-11.8-4.9-11.8-3 0-5 3.8-5 11.9zM1516.78 180.001l-6.8 3.2-1.3-6.1 9.2-4.3h6.8v34.9h-7.9v-27.7zM1572.58 29.101c0 10.8-4.3 18.2-13.3 18.2s-13-8.1-13-18c0-10.1 4.3-18.1 13.3-18.1 9.3.1 13 8.4 13 17.9zm-18.1.2c-.1 8 1.9 11.8 5 11.8 3.2 0 4.9-4 4.9-11.9 0-7.7-1.7-11.8-4.9-11.8-3 0-5 3.8-5 11.9zM1557.28 72.701l-6.8 3.2-1.3-6.1 9.2-4.3h6.8v34.9h-7.9v-27.7zM1572.58 136.401c0 10.8-4.3 18.2-13.3 18.2s-13-8.1-13-18c0-10.1 4.3-18.1 13.3-18.1 9.3.1 13 8.4 13 17.9zm-18.1.2c-.1 8 1.9 11.8 5 11.8 3.2 0 4.9-4 4.9-11.9 0-7.7-1.7-11.8-4.9-11.8-3 0-5 3.8-5 11.9zM1572.58 190.101c0 10.8-4.3 18.2-13.3 18.2s-13-8.1-13-18c0-10.1 4.3-18.1 13.3-18.1 9.3 0 13 8.3 13 17.9zm-18.1.2c-.1 8 1.9 11.8 5 11.8 3.2 0 4.9-4 4.9-11.9 0-7.7-1.7-11.8-4.9-11.8-3 0-5 3.8-5 11.9zM1597.68 19.101l-6.8 3.2-1.3-6.1 9.2-4.3h6.8v34.9h-7.9v-27.7zM1597.68 72.701l-6.8 3.2-1.3-6.1 9.2-4.3h6.8v34.9h-7.9v-27.7zM1597.68 126.401l-6.8 3.2-1.3-6.1 9.2-4.3h6.8v34.9h-7.9v-27.7zM1613.08 190.101c0 10.8-4.3 18.2-13.3 18.2s-13-8.1-13-18c0-10.1 4.3-18.1 13.3-18.1 9.3 0 13 8.3 13 17.9zm-18.1.2c-.1 8 1.9 11.8 5 11.8 3.2 0 4.9-4 4.9-11.9 0-7.7-1.7-11.8-4.9-11.8-3 0-5 3.8-5 11.9zM1638.18 19.101l-6.8 3.2-1.3-6.1 9.2-4.3h6.8v34.9h-7.9v-27.7zM1638.18 72.701l-6.8 3.2-1.3-6.1 9.2-4.3h6.8v34.9h-7.9v-27.7zM1653.58 136.401c0 10.8-4.3 18.2-13.3 18.2s-13-8.1-13-18c0-10.1 4.3-18.1 13.3-18.1 9.3.1 13 8.4 13 17.9zm-18.1.2c-.1 8 1.9 11.8 5 11.8 3.2 0 4.9-4 4.9-11.9 0-7.7-1.7-11.8-4.9-11.8-3 0-5 3.8-5 11.9zM1638.18 180.001l-6.8 3.2-1.3-6.1 9.2-4.3h6.8v34.9h-7.9v-27.7zM1653.58 243.701c0 10.8-4.3 18.2-13.3 18.2s-13-8.1-13-18c0-10.1 4.3-18.1 13.3-18.1 9.3 0 13 8.4 13 17.9zm-18.1.2c-.1 8 1.9 11.8 5 11.8 3.2 0 4.9-4 4.9-11.9 0-7.7-1.7-11.8-4.9-11.8-3 0-5 3.8-5 11.9zM1653.58 297.401c0 10.8-4.3 18.2-13.3 18.2s-13-8.1-13-18c0-10.1 4.3-18.1 13.3-18.1 9.3 0 13 8.3 13 17.9zm-18.1.2c-.1 8 1.9 11.8 5 11.8 3.2 0 4.9-4 4.9-11.9 0-7.7-1.7-11.8-4.9-11.8-3 0-5 3.8-5 11.9zM1694.08 29.101c0 10.8-4.3 18.2-13.3 18.2s-13-8.1-13-18c0-10.1 4.3-18.1 13.3-18.1 9.3.1 13 8.4 13 17.9zm-18.1.2c-.1 8 1.9 11.8 5 11.8s4.9-4 4.9-11.9c0-7.7-1.7-11.8-4.9-11.8-3 0-5 3.8-5 11.9zM1678.68 72.701l-6.8 3.2-1.3-6.1 9.2-4.3h6.8v34.9h-7.9v-27.7zM1678.68 126.401l-6.8 3.2-1.3-6.1 9.2-4.3h6.8v34.9h-7.9v-27.7zM1694.08 190.101c0 10.8-4.3 18.2-13.3 18.2s-13-8.1-13-18c0-10.1 4.3-18.1 13.3-18.1 9.3 0 13 8.3 13 17.9zm-18.1.2c-.1 8 1.9 11.8 5 11.8s4.9-4 4.9-11.9c0-7.7-1.7-11.8-4.9-11.8-3 0-5 3.8-5 11.9zM1694.08 243.701c0 10.8-4.3 18.2-13.3 18.2s-13-8.1-13-18c0-10.1 4.3-18.1 13.3-18.1 9.3 0 13 8.4 13 17.9zm-18.1.2c-.1 8 1.9 11.8 5 11.8s4.9-4 4.9-11.9c0-7.7-1.7-11.8-4.9-11.8-3 0-5 3.8-5 11.9zM1678.68 287.302l-6.8 3.2-1.3-6.1 9.2-4.3h6.8v34.9h-7.9v-27.7zM1678.68 341.001l-6.8 3.2-1.3-6.1 9.2-4.3h6.8v34.9h-7.9v-27.7zM1678.68 394.601l-6.8 3.2-1.3-6.1 9.2-4.3h6.8v34.9h-7.9v-27.7zM1694.08 458.301c0 10.8-4.3 18.2-13.3 18.2s-13-8.1-13-18c0-10.1 4.3-18.1 13.3-18.1 9.3 0 13 8.3 13 17.9zm-18.1.2c-.1 8 1.9 11.8 5 11.8s4.9-4 4.9-11.9c0-7.7-1.7-11.8-4.9-11.8-3 0-5 3.8-5 11.9zM1678.68 501.901l-6.8 3.2-1.3-6.1 9.2-4.3h6.8v34.8h-7.9v-27.6zM1694.08 565.601c0 10.8-4.3 18.2-13.3 18.2s-13-8.1-13-18c0-10.1 4.3-18.1 13.3-18.1 9.3 0 13 8.3 13 17.9zm-18.1.2c-.1 8 1.9 11.8 5 11.8s4.9-4 4.9-11.9c0-7.7-1.7-11.8-4.9-11.8-3 0-5 3.8-5 11.9zM1678.68 609.201l-6.8 3.2-1.3-6.1 9.2-4.3h6.8v34.9h-7.9v-27.7zM1734.58 29.101c0 10.8-4.3 18.2-13.3 18.2s-13-8.1-13-18c0-10.1 4.3-18.1 13.3-18.1 9.3.1 13 8.4 13 17.9zm-18.1.2c-.1 8 1.9 11.8 5 11.8 3.2 0 4.9-4 4.9-11.9 0-7.7-1.7-11.8-4.9-11.8-3 0-5 3.8-5 11.9zM1719.18 72.701l-6.8 3.2-1.3-6.1 9.2-4.3h6.8v34.9h-7.9v-27.7zM1719.18 126.401l-6.8 3.2-1.3-6.1 9.2-4.3h6.8v34.9h-7.9v-27.7zM1719.18 180.001l-6.8 3.2-1.3-6.1 9.2-4.3h6.8v34.9h-7.9v-27.7zM1734.58 243.701c0 10.8-4.3 18.2-13.3 18.2s-13-8.1-13-18c0-10.1 4.3-18.1 13.3-18.1 9.3 0 13 8.4 13 17.9zm-18.1.2c-.1 8 1.9 11.8 5 11.8 3.2 0 4.9-4 4.9-11.9 0-7.7-1.7-11.8-4.9-11.8-3 0-5 3.8-5 11.9zM1719.18 287.302l-6.8 3.2-1.3-6.1 9.2-4.3h6.8v34.9h-7.9v-27.7zM1734.58 351.002c0 10.8-4.3 18.2-13.3 18.2s-13-8.1-13-18c0-10.1 4.3-18.1 13.3-18.1 9.3 0 13 8.4 13 17.9zm-18.1.2c-.1 8 1.9 11.8 5 11.8 3.2 0 4.9-4 4.9-11.9 0-7.7-1.7-11.8-4.9-11.8-3 0-5 3.8-5 11.9zM1734.58 404.601c0 10.8-4.3 18.2-13.3 18.2s-13-8.1-13-18c0-10.1 4.3-18.1 13.3-18.1 9.3.1 13 8.4 13 17.9zm-18.1.3c-.1 8 1.9 11.8 5 11.8 3.2 0 4.9-4 4.9-11.9 0-7.7-1.7-11.8-4.9-11.8-3 0-5 3.8-5 11.9zM1734.58 458.301c0 10.8-4.3 18.2-13.3 18.2s-13-8.1-13-18c0-10.1 4.3-18.1 13.3-18.1 9.3 0 13 8.3 13 17.9zm-18.1.2c-.1 8 1.9 11.8 5 11.8 3.2 0 4.9-4 4.9-11.9 0-7.7-1.7-11.8-4.9-11.8-3 0-5 3.8-5 11.9zM1719.18 501.901l-6.8 3.2-1.3-6.1 9.2-4.3h6.8v34.8h-7.9v-27.6zM1719.18 555.601l-6.8 3.2-1.3-6.1 9.2-4.3h6.8v34.9h-7.9v-27.7zM1734.58 619.201c0 10.8-4.3 18.2-13.3 18.2s-13-8.1-13-18c0-10.1 4.3-18.1 13.3-18.1 9.3.1 13 8.4 13 17.9zm-18.1.2c-.1 8 1.9 11.8 5 11.8 3.2 0 4.9-4 4.9-11.9 0-7.7-1.7-11.8-4.9-11.8-3 0-5 3.8-5 11.9zM1759.68 19.101l-6.8 3.2-1.3-6.1 9.2-4.3h6.8v34.9h-7.9v-27.7zM1759.68 72.701l-6.8 3.2-1.3-6.1 9.2-4.3h6.8v34.9h-7.9v-27.7zM1775.08 136.401c0 10.8-4.3 18.2-13.3 18.2s-13-8.1-13-18c0-10.1 4.3-18.1 13.3-18.1 9.3.1 13 8.4 13 17.9zm-18.1.2c-.1 8 1.9 11.8 5 11.8 3.2 0 4.9-4 4.9-11.9 0-7.7-1.7-11.8-4.9-11.8-3 0-5.1 3.8-5 11.9zM1759.68 180.001l-6.8 3.2-1.3-6.1 9.2-4.3h6.8v34.9h-7.9v-27.7zM1775.08 243.701c0 10.8-4.3 18.2-13.3 18.2s-13-8.1-13-18c0-10.1 4.3-18.1 13.3-18.1 9.3 0 13 8.4 13 17.9zm-18.1.2c-.1 8 1.9 11.8 5 11.8 3.2 0 4.9-4 4.9-11.9 0-7.7-1.7-11.8-4.9-11.8-3 0-5.1 3.8-5 11.9zM1775.08 297.401c0 10.8-4.3 18.2-13.3 18.2s-13-8.1-13-18c0-10.1 4.3-18.1 13.3-18.1 9.3 0 13 8.3 13 17.9zm-18.1.2c-.1 8 1.9 11.8 5 11.8 3.2 0 4.9-4 4.9-11.9 0-7.7-1.7-11.8-4.9-11.8-3 0-5.1 3.8-5 11.9zM1759.68 341.002l-6.8 3.2-1.3-6.1 9.2-4.3h6.8v34.9h-7.9v-27.7zM1759.68 394.601l-6.8 3.2-1.3-6.1 9.2-4.3h6.8v34.9h-7.9v-27.7zM1759.68 448.302l-6.8 3.2-1.3-6.1 9.2-4.3h6.8v34.9h-7.9v-27.7zM1759.68 501.901l-6.8 3.2-1.3-6.1 9.2-4.3h6.8v34.8h-7.9v-27.6zM1775.08 565.601c0 10.8-4.3 18.2-13.3 18.2s-13-8.1-13-18c0-10.1 4.3-18.1 13.3-18.1 9.3 0 13 8.3 13 17.9zm-18.1.2c-.1 8 1.9 11.8 5 11.8 3.2 0 4.9-4 4.9-11.9 0-7.7-1.7-11.8-4.9-11.8-3 0-5.1 3.8-5 11.9zM1775.08 619.202c0 10.8-4.3 18.2-13.3 18.2s-13-8.1-13-18c0-10.1 4.3-18.1 13.3-18.1 9.3.1 13 8.4 13 17.9zm-18.1.2c-.1 8 1.9 11.8 5 11.8 3.2 0 4.9-4 4.9-11.9 0-7.7-1.7-11.8-4.9-11.8-3 0-5.1 3.8-5 11.9zM1815.58 29.101c0 10.8-4.3 18.2-13.3 18.2s-13-8.1-13-18c0-10.1 4.3-18.1 13.3-18.1 9.3.1 13 8.4 13 17.9zm-18.1.2c-.1 8 1.9 11.8 5 11.8 3.2 0 4.9-4 4.9-11.9 0-7.7-1.7-11.8-4.9-11.8-3 0-5.1 3.8-5 11.9zM1800.18 72.701l-6.8 3.2-1.3-6.1 9.2-4.3h6.8v34.9h-7.9v-27.7zM1800.18 126.401l-6.8 3.2-1.3-6.1 9.2-4.3h6.8v34.9h-7.9v-27.7zM1800.18 180.001l-6.8 3.2-1.3-6.1 9.2-4.3h6.8v34.9h-7.9v-27.7zM1815.58 243.701c0 10.8-4.3 18.2-13.3 18.2s-13-8.1-13-18c0-10.1 4.3-18.1 13.3-18.1 9.3 0 13 8.4 13 17.9zm-18.1.2c-.1 8 1.9 11.8 5 11.8 3.2 0 4.9-4 4.9-11.9 0-7.7-1.7-11.8-4.9-11.8-3 0-5.1 3.8-5 11.9zM1815.58 297.401c0 10.8-4.3 18.2-13.3 18.2s-13-8.1-13-18c0-10.1 4.3-18.1 13.3-18.1 9.3 0 13 8.3 13 17.9zm-18.1.2c-.1 8 1.9 11.8 5 11.8 3.2 0 4.9-4 4.9-11.9 0-7.7-1.7-11.8-4.9-11.8-3 0-5.1 3.8-5 11.9zM1800.18 341.001l-6.8 3.2-1.3-6.1 9.2-4.3h6.8v34.9h-7.9v-27.7zM1815.58 404.601c0 10.8-4.3 18.2-13.3 18.2s-13-8.1-13-18c0-10.1 4.3-18.1 13.3-18.1 9.3.1 13 8.4 13 17.9zm-18.1.3c-.1 8 1.9 11.8 5 11.8 3.2 0 4.9-4 4.9-11.9 0-7.7-1.7-11.8-4.9-11.8-3 0-5.1 3.8-5 11.9zM1815.58 458.301c0 10.8-4.3 18.2-13.3 18.2s-13-8.1-13-18c0-10.1 4.3-18.1 13.3-18.1 9.3 0 13 8.3 13 17.9zm-18.1.2c-.1 8 1.9 11.8 5 11.8 3.2 0 4.9-4 4.9-11.9 0-7.7-1.7-11.8-4.9-11.8-3 0-5.1 3.8-5 11.9zM1815.58 511.901c0 10.8-4.3 18.2-13.3 18.2s-13-8.1-13-18c0-10.1 4.3-18.1 13.3-18.1 9.3.1 13 8.4 13 17.9zm-18.1.3c-.1 8 1.9 11.8 5 11.8 3.2 0 4.9-4 4.9-11.9 0-7.7-1.7-11.8-4.9-11.8-3-.1-5.1 3.8-5 11.9zM1800.18 555.601l-6.8 3.2-1.3-6.1 9.2-4.3h6.8v34.9h-7.9v-27.7zM1800.18 609.201l-6.8 3.2-1.3-6.1 9.2-4.3h6.8v34.9h-7.9v-27.7z" fill="#1A1A1A"/><path d="M283.477 579.1s-114.3-47.999-106-64.699c6.3-12.6 49.4 10.299 70.1 22.199 6.3 3.6 14.4 2 18.8-3.8 3.8-5 10.5-7 16.4-4.8l42.3 15.1-31.7 60-9.9-24zM213.177 667.1l-38.1 41.9c-10.3 11.3-23.9 19.1-38.9 22.2l-99.1 19.9-34-173.3 62.3-11.8c32-6.2 64.6 7 83.2 33.7 9.4 13.5 25.7 20.5 42 18l17.4-2.6 5.2 52z" fill="#fff"/><path d="M1379.68 1509.8c-24.6-17.5-61-35.9-108.2-54.8-96.9-38.8-228.6-75.2-370.803-102.5-142.1-27.4-277.7-42.4-382.001-42.4h-.399c-50.8 0-91.5 3.6-120.8 10.7-31.1 7.5-48.3 18.9-51.2 33.7-2.8 14.8 9 31.7 35.1 50.3 24.6 17.5 61 35.9 108.2 54.8 96.9 38.8 228.6 75.2 370.8 102.5 142.103 27.4 277.703 42.4 382.003 42.4h.4c50.8 0 91.5-3.6 120.8-10.7 31.1-7.5 48.3-18.9 51.2-33.7 2.8-14.8-9-31.7-35.1-50.3z" fill="#1A1A1A"/><path d="M524.477 1469.8s62.2 31.3 312 81.9c71.9 14.6 174.103 31.8 280.503 41.9 0 0-14.5-99.5-6.5-183.5l9-35.8 24-75.2 61-134 17-13.9s48.4 21.9 71.7 23.9c0 0 41.3-50.7 54.7-125.3 13.3-74.699 6.2-140.799 6.2-140.799l-88.2-64.5s-84.3-68.7-152.3-97.3c-68-28.6-177.003-50-301.703-26.7-139.2 26.1-240 82-296.7 126.7-56.7 44.7-86.7 82-86.7 82s10 78.699 33.3 134.699c23.3 56 71 114.2 71 114.2l89.7-50.2s-3.3 73.3-10.7 113.3c-7.4 40-31.2 166.3-87.3 228.6z" fill="#fff"/><path d="M1116.98 1372.5c-.2 0-.4 0-.6-.1-7.3-1.4-13.8-5.1-18.2-10.5-2.5-3.1-4.5-6.6-6.3-10-3-5.4-5.7-10.5-10.5-13.1-4.3-2.4-10-2.3-14.9-2.3-2 0-5.3.3-9.2.6-23.2 1.9-46.2 2.8-50.5-8.8-3.5-9.5 8-23 34-40.1 13.3-8.8 56.8-30.2 79.4-21.8 6.5 2.4 10.8 7.1 12.7 13.8 1.3 4.7.4 9.3-.4 13.8-.8 3.9-1.5 7.7-.6 11 .7 2.5 2.2 4.8 5.2 7.6 1.2 1.1 1.2 3 .1 4.2-1.1 1.2-3 1.2-4.2.1-2.5-2.4-5.5-5.7-6.8-10.3-1.3-4.7-.4-9.3.5-13.7.8-4 1.5-7.7.6-11-1.4-4.8-4.3-8-9-9.8-19.1-7.1-60.1 12-74 21.2-26 17.1-33.4 28.3-31.6 33.1 3 8.3 32 5.9 44.3 4.9 4.1-.3 7.4-.6 9.7-.6 5.4 0 12.1-.1 17.8 3 6.3 3.5 9.7 9.6 12.9 15.5 1.8 3.3 3.5 6.4 5.7 9.1 3.5 4.3 8.7 7.2 14.7 8.4 1.6.3 2.7 1.9 2.4 3.5-.5 1.3-1.7 2.3-3.2 2.3zM767.677 1451.3c-.2 0-.4 0-.6-.1-1.6-.3-2.7-1.9-2.4-3.5 2.3-11.7 5.8-23.5 9.3-34.9 8-26.8 15.6-52 9.3-77.5-.7-2.6-1.6-5.6-3.5-7-.8-.6-3-2.3-7.8.2-2.9 1.5-6.2 4.4-8.9 7.8-8.1 10.2-15.8 20.8-23.2 31.6-3.9 7.8-8.7 15.2-14.3 21.8-1 1.2-2.8 1.4-4.1.5-1.3-.9-1.6-2.7-.8-4 4.5-7.2 9.1-14.3 13.9-21.4 3.5-7.1 6.2-14.5 8-22.2 1.1-4.8 2.1-10.3.4-15.2-1.4-3.9-5.4-7.7-9.6-7.1-2.8.4-5.3 2.6-7.7 4.8-19.4 17.9-35.2 39-46.9 62.7-.7 1.4-2.3 2-3.8 1.5-1.4-.6-2.2-2.1-1.8-3.6 1.4-4.7 2.8-9.5 2.3-14.2-.4-3.7-2.6-8.2-6.6-9.4-3.6-1-8 .7-13.2 5.3-10.5 9.2-18.3 21.2-22.7 34.5-.5 1.6-2.2 2.4-3.8 1.9-1.6-.5-2.4-2.2-1.9-3.8 4.7-14.3 13.1-27.1 24.4-37.1 6.8-6 13.1-8.2 18.8-6.5 6.5 1.9 10 8.4 10.8 14.1 10.9-18.4 24.4-35 40.2-49.6 3-2.7 6.5-5.7 11-6.3 7.6-1.1 14 4.9 16.1 11.1 2.2 6.3 1.1 12.9-.2 18.5-.2.7-.3 1.4-.5 2.2 3.4-4.6 6.9-9.2 10.4-13.6 10.2-13 19.9-13 25-9.1 3.5 2.6 4.8 6.7 5.7 10.4 6.7 27.1-1.5 54.3-9.4 80.7-3.4 11.3-6.9 22.9-9.1 34.4-.1 1.1-1.4 2.1-2.8 2.1zM542.577 937.501c-8 0-16.3-4-21.5-10.1-8-9.4-10.3-22.001-11.4-33.101-1.6-15.9-1.7-31.999 0-47.899.2-1.6 1.6-2.9 3.3-2.7 1.6.2 2.8 1.6 2.7 3.3-1.6 15.5-1.6 31.2 0 46.7 1.1 10.2 3.1 21.7 10 29.8 6.1 7.2 18.3 11 25.9 5 3.2-2.5 5.3-6.4 6.8-9.8 7.4-16.2 9-35 5-52.4-2.6-3.1-3.4-7.2-4.2-10.9-.3-1.5-.6-2.901-1-4.301-.8-1.7-1.6-3.399-2.6-5.099-.7-1.4-.3-3.001.9-3.901 1.3-.9 3-.6 4 .5 1.6 1.9 2.6 4.101 3.3 6.301 2.1 4.6 3.8 9.5 5 14.4l.3.299c2.4 1.8 6.3 1.501 9.2-.599 3.4-2.5 4.9-6.7 5.6-9.8 1.6-7.1 0-15.1-4.4-21.9-4.4-6.8-11-11.5-18.2-13-1.6-.3-2.7-1.9-2.3-3.5.3-1.6 1.9-2.7 3.5-2.3 8.7 1.8 16.7 7.499 22 15.599 5.3 8.1 7.2 17.701 5.3 26.401-.9 4.1-3 9.7-7.9 13.4-3.4 2.6-7.8 3.499-11.6 2.699 2.8 17.1.7 35.001-6.5 50.7-1.8 3.901-4.3 8.701-8.6 12.101-3.7 2.8-8.1 4.1-12.6 4.1zM681.077 1159.1h-2.9c-19.5-.2-39.1-1.9-58.3-4.9-1.6-.3-2.8-1.8-2.5-3.4.3-1.6 1.8-2.8 3.4-2.5 18.9 3 38.2 4.6 57.4 4.8 9.3.1 19.9-.1 29-4.2 7.7-3.5 15.5-11.2 15.6-20.7 0-5.2-2.4-10.8-6.7-15.9-8.7-10.2-22.9-15.4-36.2-13.3-1.6.2-3.1-.8-3.4-2.4-.3-1.6.7-3.1 2.3-3.5 14.3-3.3 29.2-6.8 43-12.2 5.5-2.2 11.7-5 16.2-9.5s6.7-10.5 5.7-15.6c-1.9-9.6-13.9-14.3-18.9-15.9-28.5-8.8-59.5-1.9-86.9 4.3-1.6.4-3.2-.7-3.6-2.3-.4-1.6.7-3.2 2.3-3.6 26.7-6 59.9-13.4 90-4.2 7.6 2.3 20.6 8.1 23 20.4 1.4 7-1.4 15-7.3 21-5.3 5.3-12.2 8.5-18.3 10.9-8.2 3.2-16.7 5.8-25.2 8 8.4 2.5 16.2 7.3 21.9 14 5.3 6.2 8.2 13.2 8.1 19.8 0 8.8-6 20.3-19.1 26.2-9.2 4.1-19.4 4.7-28.6 4.7zM1163.48 1218.1h-.5c-41.7-6.7-68.5-35.6-83.6-58.8-19.2-29.4-26.8-59.1-28.3-72-.9-7.9-.9-22.2 9.4-29.3 5.9-4.1 14.3-4.7 22.1-1.7 7 2.7 12.7 7.8 17.3 12.4 6.3 6.2 12 13 17.5 19.9-1.1-8.7.2-17.8 4-25.7 2.5-5.2 7.1-12 14.9-15.4 11.2-4.8 23.9 0 31.6 7 8.3 7.5 13.1 17.8 17 26.9 7.6 17.9 14 36.5 19 55.3.4 1.6-.5 3.2-2.1 3.7-1.6.4-3.2-.5-3.7-2.1-4.9-18.5-11.1-36.9-18.7-54.5-3.6-8.5-8.1-18.2-15.5-24.8-6.3-5.7-16.5-9.7-25.2-5.9-4.7 2.1-9 6.5-11.8 12.5-5.8 12.1-4.9 27.2 2.4 38.5.9 1.4.5 3.2-.8 4.1-1.3.9-3.1.6-4.1-.7-8.8-11.8-17.9-24-28.5-34.5-4.2-4.1-9.3-8.7-15.2-11-6-2.3-12.3-1.9-16.5 1-8 5.6-7.5 18.4-6.9 23.7 1.9 16.1 11.2 44.7 27.4 69.4 14.5 22.1 40 49.8 79.5 56.1 1.6.3 2.8 1.8 2.5 3.4-.4 1.5-1.7 2.5-3.2 2.5zM767.877 864.301c-2.4 0-4.7-.5-6.8-1.4-6.8-3-11.1-10.4-12.4-21.4-1.1-9-.6-18.1 1.2-27-1.5 1.6-3 3.1-4.6 4.6-1.7 1.6-3.8 3.5-6.6 4.4-6.4 2.1-13.2-2.2-16-7.6-2.8-5.4-2.6-11.6-2.1-16.4 2.5-24.7 15.3-47.1 26.6-66.8.8-1.4 2.7-1.9 4.1-1.1 1.4.8 1.9 2.7 1.1 4.1-11 19.2-23.5 41.1-25.8 64.4-.4 4-.6 9.1 1.5 13 1.6 3.1 5.5 5.7 8.8 4.6 1.6-.5 3.1-1.8 4.3-3 6.6-6.2 12-13.3 16.2-21.3 0-.1.1-.2.1-.3.8-1.5 2.6-2 4-1.3 1.5.8 2 2.6 1.3 4 0 .1-.1.2-.1.3-7.1 13.6-9.9 29.4-8.1 44.6.7 6.1 2.9 14 8.9 16.7 4.9 2.2 10.8 0 14.4-3.1 4.5-3.8 7.4-9.5 9.7-14.6 7.4-16 13-33.1 16.5-50.8.2-2.4.7-4.7 1.3-7 .4-1.5 2-2.5 3.5-2.1 1.6.3 2.6 1.9 2.3 3.4l-1.2 6.6c-.7 8.1 1.4 16.5 6 23.3 4.3 6.2 10.3 10.2 16.3 10.7 7.5.6 15.7-4.6 19.9-12.5 3.5-6.6 4.9-14.8 4.4-26.1-1-23.7-8.9-47.5-22.2-67-.9-1.4-.6-3.2.8-4.2 1.4-.9 3.2-.6 4.2.8 14 20.5 22.2 45.4 23.2 70.2.3 7.8.1 19.3-5.1 29.2-5.4 10.2-15.7 16.5-25.7 15.7-7.8-.6-15.4-5.5-20.7-13.3-2.1-3.1-3.8-6.5-5-10.1-3.4 12.4-7.8 24.3-13.1 35.8-2.6 5.6-5.9 12-11.3 16.6-4 3.5-9.1 5.4-13.8 5.4zM944.777 1065.3c-5.9 0-12.3-3.1-18.7-9-6.6-6.2-12.2-13.5-16.5-21.4-.1 2.2-.3 4.3-.5 6.5-.3 2.4-.7 5.1-2.2 7.6-3.6 5.8-11.5 6.8-17.1 4.6-5.6-2.3-9.5-7.2-12.2-11.2-11.8-17.3-19.3-39.7-22.8-68.399-1.5-12.2 7-22.9 24.6-31 14.8-6.8 35.5-11.4 55.5-12.2 9.8-.4 33.5-.4 42 8.8 5.3 5.7 12.499 14.6 14.899 25.6 2.4 11.3-1.4 22.8-9.5 28.6-.4.3-.899.6-1.399 1-7.4 5.199-24.7 17.199-20.3 33.599 1.6 6 3.3 12.9 2.1 20-1.4 8.1-6.6 14.5-13.3 16.5-1.5.1-3 .4-4.6.4zm-37.2-52.8c3.3 14.9 11.3 28.9 22.5 39.3 4.5 4.2 11.2 8.8 17.5 7 5.1-1.5 8.2-6.9 9-11.7 1-5.8-.5-12-1.9-17.4-5.6-20.5 14.899-34.699 22.599-40.099.5-.3.901-.7 1.301-.9 6.1-4.4 9-13.6 7.1-22.4-1.6-7.3-5.801-14.5-13.401-22.8-9.6-10.5-58.899-9.7-90.499 4.8-10.5 4.8-22.6 13-21.2 24.8 3.4 27.699 10.5 49.199 21.8 65.699 2.3 3.3 5.4 7.3 9.5 9 3.2 1.3 7.9.9 9.8-2.2.9-1.4 1.2-3.4 1.4-5.1 1-8.9.6-17.9-1.4-26.7 0-.1 0-.2-.1-.3-.4-1.6.7-3.2 2.3-3.6 1.6-.4 3.2.7 3.6 2.3.1.1.1.2.1.3zM795.976 1267.8c-2.4 0-4.9-.3-7.3-1-6.1-1.8-10.5-6.4-11.4-11.8-.9-5.7 2-11.6 8.5-17 4.5-3.8 9.5-6.9 14.9-9.2-.7-.1-1.4-.3-2.1-.5-1.9-.5-3.9-1.1-5.6-2.4-4.4-3.5-4.3-9.8-2-13.9s6.3-6.6 9.6-8.3c13.8-7.2 30.9-10.6 52.3-10.6 18.6 0 33.9 6 41.1 16.1 4.6 6.4 5.5 14.1 2.7 22.3-8 23.2-89.4 35.2-92.8 35.7-2.5.3-5.1.6-7.9.6zm24-37.9c-11 1.1-21.8 5.6-30.3 12.8-2.7 2.3-7.2 6.8-6.4 11.5.6 3.5 4 6.1 7.2 7 4 1.2 8.6.7 12.6.1 9-1.3 29.2-5 47.9-10.3 31.7-9.1 38.7-17.3 40.1-21.4 2.2-6.3 1.5-11.9-2-16.8-6-8.4-19.8-13.5-36.2-13.5-20.4 0-36.6 3.3-49.6 10-2.5 1.3-5.6 3.1-7.1 5.8-1.1 2-1.2 5 .5 6.3.8.7 2.1 1 3.3 1.3 6.4 1.5 12.9 2 19.4 1.4h.2c1.6-.2 3.1 1 3.3 2.7.2 1.7-1 3.1-2.7 3.3-.1-.2-.2-.2-.2-.2zM1280.58 955.601c-6.2 0-10.8-1.8-13.8-5.3-4.4-5.1-3.8-12.5-1.3-17.7-19.2 9.4-39.6 15.9-60.9 19.4-4 .7-8.5 1.2-12.6-.7-6.9-3.3-9-11.8-7.4-18.1 1.6-6.5 6.1-11.4 10.3-15.4.5-.5 1.1-1 1.6-1.5-5.4 2-10.8 3.9-16.2 5.7-15.7 5.2-23.8 0-25.9-6.1-1.4-4.1-.4-8.3.9-11.8 9.3-26.3 31.1-44.6 52.2-62.2 9-7.6 18.3-15.4 26.5-23.7 1.2-1.2 3.1-1.2 4.2 0 1.2 1.2 1.2 3.1 0 4.2-8.4 8.5-17.8 16.4-26.9 24.1-21.4 17.9-41.6 34.9-50.4 59.6-.9 2.6-1.7 5.5-.9 7.8.3.9 1.3 3.6 6.6 4.1 3.3.3 7.6-.3 11.8-1.7 12.4-4.1 24.7-8.7 36.8-13.7 7.5-4.4 15.6-7.9 23.9-10.4 1.5-.5 3.1.3 3.7 1.8.6 1.5-.1 3.1-1.5 3.8-7.7 3.6-15.5 7-23.4 10.2-6.8 4-13.1 8.7-18.9 14.2-3.6 3.4-7.4 7.5-8.6 12.5-1 4 .3 9.4 4.1 11.2 2.5 1.2 5.9.8 9.1.2 26.1-4.3 50.8-13.3 73.6-26.6 1.3-.8 3.1-.4 4 .9.9 1.3.7 3-.5 4-3.7 3.2-7.6 6.4-9.7 10.6-1.7 3.3-2.3 8.3.3 11.4 2.4 2.9 7.1 3.8 13.9 2.8 13.8-2 26.9-7.6 37.9-16.3 1.3-1 3.2-.8 4.2.5s.8 3.2-.5 4.2c-11.8 9.4-25.9 15.5-40.8 17.6-1.8.3-3.6.4-5.4.4z" fill="#FFC400"/><path d="M1395.98 329.601l169-64.8 25.5 78 40.5 39-25.5 96-169 21.3-3-103.5-37.5-66z" fill="#fff"/><path d="M1436.48 502.101c-.7 0-1.4-.3-2-.7-.6-.6-1-1.3-1-2.2l-3-102.7-37.1-65.3c-.4-.8-.5-1.7-.2-2.5s.9-1.5 1.7-1.8l168.9-64.8c.8-.3 1.6-.3 2.4.1.7.4 1.3 1 1.6 1.8l25.3 77.3 40 38.5c.8.8 1.1 1.9.8 2.9l-25.5 96c-.3 1.2-1.3 2.1-2.5 2.2l-168.9 21.3c-.2-.1-.3-.1-.5-.1zm-36.1-170.9l35.8 63c.2.4.4.9.4 1.4l2.9 100.2 163.7-20.7 24.5-92.3-39.2-37.8c-.4-.3-.6-.8-.8-1.2l-24.5-75-162.8 62.4zM1367.08 1384.8c-3.1-10-9.9-18.2-19.2-23.1-9.3-4.8-19.9-5.8-29.9-2.7-10 3.1-18.2 9.9-23.1 19.2-4.8 9.3-5.8 19.9-2.7 29.9 3.1 10 9.9 18.2 19.2 23.1 5.8 3.1 12 4.5 18.2 4.5 14.1 0 27.7-7.6 34.8-21 4.8-9.3 5.8-19.9 2.7-29.9z" fill="#1A1A1A"/><path d="M301.876 589.801l23.3-46.7 28.3-5 17 70.4-6.6 90-21.4 4-34-64.7-6.6-48z" fill="#fff"/><path d="M884.977 600.501l-19.3-3.2c1.7-3.9 4.6-6.5 4.7-6.6 1.3-1.1 1.4-3 .3-4.2-1.1-1.3-3-1.4-4.2-.3-.3.2-7.7 6.8-7.9 16.1-.1 5.7 2.4 11.1 7.5 16 .6.5 1.4.8 2.1.8.8 0 1.6-.3 2.1-1 1.1-1.2 1.1-3.1-.1-4.2-3.7-3.4-5.5-7-5.7-10.7l19.5 3.3h.5c1.5 0 2.7-1.1 3-2.5.2-1.7-.9-3.2-2.5-3.5z" fill="#1A1A1A"/><path d="M1009.65 499.876c12.26-14.938 17.19-31.168 11-36.25-6.19-5.082-21.149 2.908-33.416 17.847-12.266 14.938-17.194 31.167-11.005 36.249 6.189 5.082 21.15-2.908 33.421-17.846z" fill="#fff"/><path d="M1022.58 461.301c-8.7-7.2-25.903 4.1-37.603 18.3-11.7 14.3-19.4 33.3-10.6 40.5 1.9 1.5 4.2 2.2 6.7 2.2 9.2 0 21.803-9.4 30.903-20.5 11.7-14.3 19.4-33.3 10.6-40.5zm-15.1 36.7c-12.603 15.3-25.503 20.5-29.203 17.4-3.7-3-1.2-16.7 11.4-32 1.2-1.5 2.5-2.9 3.7-4.2-2 6.6-1.8 12 1.4 14.5 3.8 3.1 10.903 1.3 18.803-4.1-1.7 2.7-3.7 5.5-6.1 8.4zM860.377 1562.1c-142.2-27.3-273.9-63.7-370.8-102.5-47.2-18.9-83.6-37.3-108.2-54.8-26.1-18.6-37.9-35.5-35.1-50.3.2-1.3 1.5-2.1 2.8-1.9 1.3.2 2.1 1.5 1.9 2.8-5 25.8 46.2 62.1 140.4 99.8 96.6 38.6 228 74.9 370 102.2 141.803 27.3 277.103 42.3 381.103 42.3h.4c101.5 0 162.5-14.8 167.4-40.6.2-1.3 1.5-2.1 2.8-1.9 1.3.2 2.1 1.5 1.9 2.8-2.9 14.8-20.1 26.2-51.2 33.7-29.3 7.1-70 10.7-120.8 10.7-.4.1-.5.1-.6.1" fill="#1A1A1A"/><path d="M861.377 1557.4c32.4 6.2 64.5 11.8 95.9 16.8 87.903 12.6 159.703 19.4 159.703 19.4l-2.5-70.5s-83 19-289.003-20c-206-39-263-88-263-88l-38.9 52.4s25.5 9.4 67 22.7c79.9 25.2 172.8 48.4 270.8 67.2z" fill="#FFC400"/><path d="M1484.08 577l-.8-66.3c-.6-9.9 5.1-15.4 9.8-15.7 5.8-.3 9.8 4.2 9.4 12.8l-.1 26.9c0 4.3 3.4 7.8 7.6 8.1 5.5.4 9.1 6 7.1 11.2l-8 20.1c-2.8 7-9.9 11.5-17.4 11-4.3-.4-7.6-3.9-7.6-8.1z" fill="#fff"/><path d="M65.277 566l-28.4 5.4-4.3 2.7 34 171 69.6-13.9-30-162.7c-12.9-4.2-27-5.2-40.9-2.5z" fill="#FFC400"/><path d="M210.777 614.8c0-.9-.5-1.6-1.1-2.1-.7-.5-1.5-.7-2.3-.6l-17.4 2.6c-15.2 2.3-30.2-4.1-39-16.8-19.3-27.6-53.1-41.3-86.2-34.9l-62.3 11.8c-.8.2-1.5.6-1.9 1.3-.5.7-.7 1.5-.5 2.3l33.9 173.3c.2.8.6 1.5 1.3 1.9.5.3 1.1.5 1.7.5.2 0 .4 0 .6-.1l29.4-5.9h.1l69.6-13.9c.3-.1.5-.2.8-.3 15.4-3.3 29.1-11.2 39.7-22.9l38.1-41.9c.6-.6.9-1.5.8-2.3l-5.3-52zm-99.3 118.3l-42.6 8.5-33-166 2.1-1.2 27.9-5.3c12.5-2.5 25.5-1.8 37.7 1.8l29.1 158-21.2 4.2zM6.577 580.2l23.1-4.4 33.2 167.1-23.5 4.7-32.8-167.4zm166.2 126.8c-9.2 10.2-21 17.3-34.3 20.6l-28.7-154.5c14.3 5.6 26.9 15.4 36 28.4 10.2 14.6 27.4 22 44.9 19.3l14.3-2.2 4.9 47.5-37.1 40.9zM373.277 607.6l-16.9-69.8v-.2l-3.8-18.5c-.3-1.6-1.9-2.6-3.5-2.3l-26.2 5.2c-1.5.3-2.5 1.7-2.4 3.2l1.3 13.5-37.9-13.5c-7.2-2.6-15.1-.3-19.8 5.8-3.5 4.6-9.9 5.9-14.9 3-24-13.8-55.4-29.5-68.4-25.6-2.6.8-4.7 2.4-5.8 4.7-.7 1.3-1.3 3.5-.2 6.3 7.1 19.3 92.1 55.9 106.5 62l9.5 22.9c.4 1 1.4 1.7 2.6 1.8h.1c1.1 0 2.2-.6 2.7-1.6l3.6-6.9 5.7 40.6c0 .4.1.7.3 1l34 64.7c.6 1 1.6 1.6 2.7 1.6.2 0 .4 0 .5-.3l21.3-4c1.3-.2 2.3-1.3 2.4-2.7l6.7-90c0-.3 0-.6-.1-.9zm-79.5-11.6l-7.5-18.1c-.3-.7-.9-1.3-1.6-1.6-.3-.1-25-10.5-50.2-23.1-43.6-21.8-52.7-31.8-54.2-35.9-.4-1-.2-1.4-.1-1.5.2-.5.7-1.2 2.2-1.6.9-.3 2-.4 3.2-.4 10.3 0 32.3 9.2 60.4 25.3 7.6 4.4 17.4 2.5 22.7-4.5 3.1-3.9 8.4-5.5 13.1-3.8l39.1 13.9-27.1 51.3zm67.2 99.9l-16.9 3.2-32.7-62.2-6.4-46.6 22-44.1.2-.3c4.6-.8 18.2-3.2 24.2-4.3l16.2 67.1-6.6 87.2z" fill="#1A1A1A"/><path d="M113.477 683.6c-.9 0-1.9-.4-2.5-1.3l-57.5-82c-1-1.4-.6-3.2.7-4.2 1.4-1 3.2-.6 4.2.7l57.5 82c1 1.4.6 3.2-.7 4.2-.5.5-1.1.6-1.7.6zM101.977 718.1c-.9 0-1.9-.4-2.4-1.3l-38-53.5c-1-1.4-.6-3.2.7-4.2 1.4-1 3.2-.6 4.2.7l38 53.5c1 1.4.6 3.2-.7 4.2-.6.5-1.2.6-1.8.6zM1038.88 1449.2c-56.203 0-97.604-8.4-99.504-8.8-8.4-1.7-13.8-9.9-12-18.3 1.7-8.4 9.9-13.8 18.3-12 .5.1 52.101 10.6 116.204 7.7h.7c8.2 0 15.1 6.5 15.5 14.8.4 8.6-6.2 15.8-14.8 16.2-8.4.2-16.6.4-24.4.4zM896.877 1433.6c-.8 0-1.6-.1-2.4-.2l-19.3-3c-8.5-1.3-14.3-9.2-12.9-17.7 1.3-8.5 9.2-14.3 17.7-12.9l19.3 3c8.5 1.3 14.3 9.2 12.9 17.7-1.2 7.7-7.8 13.1-15.3 13.1z" fill="#1A1A1A"/><path d="M1034.17 568.07c10.19-8.727 11.35-24.102 2.59-34.339-8.76-10.238-24.13-11.462-34.33-2.734-10.195 8.727-11.356 24.101-2.593 34.339 8.763 10.237 24.133 11.461 34.333 2.734z" fill="#fff"/><path d="M1597.98 586.1l-48.3-119 13.4-41.6c2.4-1.8 9.8-7.6 16.9-13.7 17.4-14.9 17.9-18.6 16.8-21.3-.4-1-1.2-1.8-2.3-2.2-3.6-1.2-10.8 2.2-30.4 13.3-3.8 2.2-8.2 4.6-11.6 6.4 2-3.6 4.7-8.5 7.3-13.1 19.1-33.9 23.8-44.2 18.3-47.4-5.1-3-13.6 5-36.7 30.4-.5.6-1.1 1.3-1.7 1.9.9-1.8 1.7-3.7 2.6-5.5 20.4-43.3 23.8-53.9 18.3-56.9-3.5-1.9-8.3-.8-31.3 31.8-2.4 3.5-4.8 7-7.1 10.3.5-3.1 1.1-6.5 1.7-9.9 4-24.6 2.2-28.2.1-29.9-.9-.7-2.1-.9-3.2-.6-3.9 1-8 8.9-22 42.3-2.4 5.7-5 11.9-6.9 16.2-.1-.3-.1-.5-.2-.8-2.6-11.2-6.9-30.1-17.1-34.7-3.7-1.6-7.7-1.3-11.9.9-1.1.5-1.7 1.6-1.6 2.8l6 103.4-4.2 169.2c0 .9.4 1.8 1.1 2.4.6.5 1.2.7 1.9.7.2 0 .4-.1.7-.1l20-4.8c3 47.1 1.2 98.8-5.5 144.9-9.9 68.3-29.2 118-54.5 139.9-18.8 16.4-37.5 19.3-60.5 9.5-13.6-5.8-28.1-15.6-44.6-28.2-.4-1-1.3-1.7-2.4-1.8-10-7.7-20.6-16.4-32.2-25.8-23.1-18.8-49.2-40-80.1-61.9-46.7-33-101.5-57.1-162.8-71.5-18-4.2-34.9-7.2-50.103-9.3 0-.1.1-.3.1-.4l12.003-66c13.6-6.2 31.3-15.3 48.4-26.9 20.5-14 36.1-28.8 46.5-44.2 13.1-19.5 17.8-39.8 13.8-60.4-3.2-16.4-15.8-39.9-41.9-57-2.5-1.6-5-3.1-7.5-4.5 3.9-2.5 9.4-7.4 14-17.1 5.6-11.6 2-25.4-4.7-29.1-3.3-1.8-8.2-1.5-12.1 4.8-6.7 10.9-27.9 25-32.8 28.1-16.6-3.7-33.203-4.5-48.403-3.8-1.5-2.4-3.9-4.1-7.1-5.1-18.9-5.8-64.9 17.1-84.2 29.1-17.2 10.7-38 14.8-49.4 9.7-4.8-2.1-7.8-5.8-8.7-11-4.1-22.2-21.3-63.4-57.9-60.5-19.4 1.5-39.7 10.3-54.4 23.6-12.7 11.5-27.6 32-25.6 64.2 1.4 21.9 9.8 39.1 24.3 49.8 15.5 11.4 35.5 13.3 47.5 10.3 5.4-1.4 11.6-3.9 18.2-6.5 16-6.4 34.1-13.7 42.3-5 5.2 5.5 7 10.9 9.2 17.1 2.8 8.1 5.9 17.1 16.9 27.3-4.2 3.9-8.3 9-10.2 15.2-2.3 7.3-1.3 14.8 3.1 22.4 4.2 7.1 10.2 11.6 17.7 13.3 12.3 2.9 25.7-2.4 33.2-6.2l-16.4 86.3c-34.6 2.4-82.9 7.9-138.4 22.7-98.5 26.3-185.6 72.8-258.9 138.2-20.4 18.2-38.3 35.5-54 51.8-.5.3-.9.7-1.1 1.1-10.5 10.9-19.9 21.3-28.5 31.2-20.1-20.4-36.3-46.5-48.6-70.6-2.7-6.9-5.1-11.4-5.2-11.7-.3-.4-.6-.8-1-1.1-12.9-27.6-20.3-50.6-22-56.1l5.5-3.7c1-.7 1.5-1.9 1.3-3.1-.2-.9-18-86.8-20-104.9-1.4-12.5-1-16 .3-28.9.6-5.5 1.3-12.9 2.2-23.5 1.4-17.8.2-36.5-3.4-51.3-2.2-9.2-7.4-24.8-16.8-26.1-6.7-1.1-10.1 2.9-12.9 6.1-2 2.3-3.7 4.2-6.5 4.9-2.4.6-3.7 0-5.9-1-3-1.4-6.8-3.2-14.1-1.8-5.5 1.1-8.7 5.5-11.3 9-1.5 2.1-3.1 4.3-4.4 4.6-1.6.4-4-.3-6.7-1-4-1.1-8.9-2.4-14.4-1.2-18.1 3.9-9.1 49.6-7.1 58.7 4.3 19.7 9.3 51 9.9 55l-23.9 187.1c-.1 1.1.4 2.3 1.4 2.9.5.3 1.1.5 1.6.5.6 0 1.2-.2 1.7-.5l17.9-11.9c.6 28.4 5.7 135.9 48.2 223.7 23.5 48.3 49.6 80.1 80 97.1 18.8 10.6 39.6 15.7 64.2 15.7 8.1 0 16.5-.6 25.2-1.8 56-6.8 163.1-73 185.7-87.3v.2c-2.2 29-9.5 104.4-28.2 179.2-18.5 74.4-42.5 126.1-71.3 153.5-1.2 1.1-1.2 3-.1 4.2.6.6 1.4.9 2.2.9.8 0 1.5-.3 2-1 13.2-12.6 25.4-30 36.5-52.2 1.8 1.2 19.4 13.4 57.7 29.7 65.9 28.2 140.4 46.4 191.3 56.7 100.1 20.3 184.4 24.7 238.803 24.7 30 0 50.9-1.3 60.4-2.1 2.2 30.9 4.7 66.6 4.8 67.2.1 1.6 1.4 2.8 3 2.8.1 0 .2 0 .2.2 1.7-.1 2.9-1.5 2.8-3.2 0-.6-2.5-36.6-4.8-67.5 1.6-.3 2.7-1.6 2.5-3.3-.2-1.6-1.4-2.7-2.9-2.7-1.2-16.1-2.2-30-2.8-35.7v-.8c0-.1 0-.1-.1-.2-7.9-90.3 33.2-184.8 55.6-228.7 6.1-10 15.4-26.4 24.6-43.2 18.7-31.8 27.8-50 30.9-56.4 23.6 11.2 53.4 22 86.5 26 9.8 1.4 18.9 2 27.4 2 11.5 0 21.8-1.1 31-2.8 3.8-.6 7.5-1.3 11.3-2.1 71.3-15.7 118.3-79.9 145.1-131.1 31.5-60 53.8-136.7 61.3-210.5 9.3-92.1-2.2-190.1-10.1-241.7l20.3-4.9c.9-.2 1.6-.7 2-1.5.6-.6.6-1.5.3-2.3zm-530.4-171.3c1.5-2.5 2.9-3.4 4.1-2.7 3.4 1.9 6.6 12 2.1 21.3-6.7 13.8-15 16.1-15 16.1-.1 0-.1 0-.2.1-6.9-3.3-13.9-5.8-21-7.8 8.5-5.9 24-17.3 30-27zM903.577 618.3c.2-1.2-.3-2.4-1.3-3.1-1-.6-2.3-.7-3.3 0-.2.2-19 12.2-34.4 8.7-5.9-1.4-10.5-4.8-13.9-10.5-3.5-6-4.4-11.9-2.6-17.5 1.8-5.7 6-10.5 10.1-14 .3-.1.5-.2.7-.3l9.7-6.4c1.9-.6 12.7-3.5 17 4.4 2.9 5.4 10 18.4 22.5 18.4 2.5 0 5.3-.5 8.1-1.8 16.1-6.6 13.1-23.2 8.7-37-7-22-6.7-39.4 1-51.9 3.7-6 13.1-14.3 23.1-23.1 16.9-14.8 34.2-30.1 34.1-42.3 27.403-1 59.403 3 86.503 20.7 11.1 7.3 19.6 15.8 25.9 24.3l-42.8 33.9 3.7 4.7 42.5-33.6c5.4 8.5 8.7 16.9 10 23.8 3.6 18.9-.7 37.7-12.9 55.8-9.9 14.8-25 29.1-44.8 42.6-19.9 13.6-40.7 23.6-54.503 29.6l-16.7 6.6c-1.2.5-1.9 1.6-1.9 2.9.1 1.3.9 2.4 2.1 2.8.1 0 4.1 1.4 7.4 7.2 3.1 5.4 6 15.8 2.7 34.5l-.3 1.6c-.1.4-.1.7 0 1.1l-1.9 10.5v.7c-33-4.1-57.9-4-69.6-3.6l-1.9.1c-8 .3-18.2.6-30.3 1.4l17.3-91.2zm-470 595.9c-54.4 6.7-112-1.8-163.4-107.8-44.3-91.2-47.5-204.5-47.7-224.9l94.5-62.6c2.6 8.2 10.7 32.3 24.3 60.3 1.9 4.7 3.8 9.1 5.7 13.3 5.6 16.1 10.7 40.2.9 58.1-3.5 6.4-7 12.6-10.3 18.6-30 53.7-51.7 92.6-21.5 119.7.4.5.9.9 1.6 1.1.3.1.5.1.8.1h.5c1.2-.2 2.2-1 2.6-2.1 0-.1 1.5-5.3 5.6-15l.6-1.5c0-.1 0-.1.1-.2.3-.6.5-1.2.8-1.8.1-.2.2-.5.3-.7l.3-.6c4.5-9.7 11.3-22.8 21.3-38.7 14.7-23.3 38.7-56.3 76.3-96.1.1 11.5 1.5 34.3 9.4 65.6 10.6 41.3 35.3 105.9 92.6 179-33.9 17.4-70.3 33.2-95.3 36.2zm100.9-39.1c-57.1-72.5-81.6-136.3-92.1-177.2-10-38.8-9.6-64.8-9.3-71 8.2-8.5 17-17.3 26.5-26.4.1 11.6 1.6 36.2 10.6 70.4 11.4 43.3 37.8 110.6 98.4 185.6-10.6 6-22.1 12.4-34.1 18.6zm276.8 323c-175.2-35.4-246.2-85-246.9-85.5-.2-.2-.5-.3-.7-.4 4.8-10.1 9.4-21 13.8-32.9.5.5 11.7 10.3 46 25.6 56.8 25.3 132.1 45.6 185.3 58.2 96.4 22.8 172.9 28.1 220.203 28.6h7.1c37.5 0 61.7-2.9 70.2-4.2.6 6.8 1.5 19.1 2.5 33-26.4 2.2-142.903 8.9-297.503-22.4zm406.803-352c-41.9-21.3-69.3-46.3-69.6-46.5l-.1-.1c-1-.9-2.4-1.1-3.6-.3-1.2.8-1.7 2.4-1.1 3.8.3.7 31.4 69.7 17.2 124-9.6 36.8-16.4 56.3-23.5 76.9-2.1 6-4.2 12.2-6.4 18.9-9.1 25.8-15.9 51.8-20.3 77.8-6.7 39.5-5.9 68.2-4.9 81-8.3 1.2-35 4.5-77 4.1-46.903-.5-122.903-5.8-218.603-28.4-182.6-43.1-228.3-82-228.7-82.4-.6-.5-1.4-.7-2.2-.7 6.5-18.2 12.6-38.5 18.2-60.7 18.8-75.2 26.1-151 28.4-180.1.5-6.4 1.2-13 2-19.9l10.3-64.6v-.1l.6-5c14.8-78.2 36.2-154.7 36.5-155.8.4-1.6-.5-3.3-2.1-3.7-1.6-.4-3.3.5-3.7 2.1-.2.9-15.8 56.7-29.6 121.7-.6 0-1.2.2-1.8.7-.5.4-11.7 9.5-22.6 24.1-14.6 19.5-21.2 39.3-19.2 57.2 3.7 33.4-17 55.2-24 61.4-59.1-73.6-84.9-139.5-96.2-181.9-11-41.4-10.6-69.2-10.3-74.9 6.7-6.3 13.6-12.7 20.9-19.2 72.5-64.8 158.8-110.9 256.4-136.9 78.8-21.1 142.9-23.2 173.8-24.3l1.9-.1c17.4-.6 64.2-.5 123.903 13.5 9.4 2.2 18.6 4.7 27.7 7.3-49.8 11.2-104.003 13.9-97.703 42.4 9.6 43.9 97.503-11.4 195.103 7.5 11.1 1.8 25.4 10.1 34.9 12.9.2.2.5.3.7.5 30.7 21.8 56.8 42.9 79.7 61.6 11.9 9.6 22.8 18.5 33.1 26.4 2.4 9.7 14.3 62 2.2 120.3-17.4 83-60.1 143.7-67.6 153.9-12-4.5-23-9.5-32.7-14.4zm73.5 26.1c-12.3-2.5-24-5.8-34.9-9.6 10.2-14.1 50.7-74 67.5-154.7 10.6-50.8 3.3-97.1-.6-115.9 9.7 7.2 18.8 13.4 27.5 18.3 3.4 26.7 6.2 66.2.4 104.3-14.5 94.7-54 149.8-59.9 157.6zm288.3-336.1c-7.4 73-29.5 149-60.6 208.3-17.3 33.1-35.7 57.9-53.9 76.6-3.1-3.7-7.1-6.2-12.1-7.3-13.3-2.9-31.1 4.7-42.3 12.2-7.4 4.9-15 6.5-21.6 4.4-6.8-2.2-12.2-8.1-15.9-17.7-7.8-19.8-25.4-24.5-33.1-25.6 6.7-20.2 13-44.2 17.2-71.5 5.6-36.8 3.4-74.8.2-101.8 2 1 4 1.9 6 2.8 12.7 5.4 24.2 7.3 35.1 5.5 52.5 14.3 79 42.5 92.6 16.6 9.8-18.9-21.2-29.9-50.2-43.8 16.6-20.6 35.2-59.4 45.8-132.4 6.7-46.9 8.6-99.5 5.5-147.3l77.2-18.7c8 51.4 19.3 148.5 10.1 239.7zM1544.48 1086.1c-.5 0-1.1-.1-1.6-.5-1.4-.9-1.8-2.7-.9-4.1 40-63.6 56.2-132.499 62.8-179.199 7.1-50.6 4.8-86.7 4.8-87-.1-1.7 1.1-3.1 2.8-3.2 1.7-.1 3.1 1.1 3.2 2.8 0 .4 2.4 36.9-4.8 88.1-6.7 47.3-23.1 117.199-63.7 181.699-.6.9-1.6 1.4-2.6 1.4zM314.476 1254.1c-.6 0-1.1-.2-1.6-.5-52.3-33.4-87.4-92-107.6-135.3-21.9-46.7-31.6-86.2-31.7-86.6-.4-1.6.6-3.2 2.2-3.6 1.6-.4 3.2.6 3.6 2.2.1.4 9.7 39.3 31.4 85.6 19.9 42.5 54.3 100 105.3 132.6 1.4.9 1.8 2.7.9 4.1-.5 1.1-1.5 1.5-2.5 1.5z" fill="#1A1A1A"/><path d="M233.176 831.101c-.4 0-.8 0-1.3-.1-5.5-.7-9.4-5.7-8.7-11.2l6-47.3c.7-5.5 5.7-9.4 11.2-8.7 5.5.7 9.4 5.7 8.7 11.2l-6 47.3c-.6 5.1-4.9 8.8-9.9 8.8zM241.477 752.9c-.7 0-1.3-.1-2-.2-5.4-1.1-8.9-6.4-7.8-11.8l.7-3.2c1.1-5.4 6.4-8.9 11.8-7.8 5.4 1.1 8.9 6.4 7.8 11.8l-.7 3.2c-.9 4.7-5.1 8-9.8 8z" fill="#fff"/></svg>