<svg width="1857" height="1912" fill="none" xmlns="http://www.w3.org/2000/svg"><path d="M552.9 1869.8c-558.3-91-714.2-669-370.4-1016.6 313.1-316.7 150.5-563.5 664.6-596 455-28.7 908.1 345 1001.2 989.6 93 642.8-595.2 737.1-1295.4 623z" fill="#FFC400"/><path d="M1181.4 410.3l-14 176.5 385.5 28.5 15.6-179.7c10.7 27.4 33.5 46.2 59.8 46.2 36.7 0 66.4-36.6 66.4-81.7s-29.7-81.7-66.4-81.7c-21.3 0-40.3 12.4-52.4 31.6l13-150.1-158.9-15.4c26.8 14.6 43.3 41.8 39.8 70.7-4.8 39.3-45.1 66.6-89.9 61.1-44.8-5.5-77.2-41.8-72.4-81.1 3.4-27.3 23.9-48.9 51.1-57.6l-158.3-15.3-14.9 191.5" fill="#FFC400"/><path d="M1245.8 303.4c-22.4 0-43.2 13.3-56.1 34.8l13.6-175.6c.1-1.6-1.1-3-2.7-3.2l-161.7-16.8c24.1-11 40.8-32.1 43.8-56.5 2.5-19.9-4-39.6-18.3-55.6-14.2-15.9-34.3-26.1-56.7-28.9-46.4-5.7-88.2 22.9-93.2 63.7-3.2 25.8 9 51.1 31.5 67.5l-148.8-15.5c-.8-.1-1.6.2-2.2.7-.7.5-1 1.3-1.1 2.1l-27 432c-.1 1.6 1.1 3.1 2.7 3.2l397.5 34.5h.3c.7 0 1.4-.3 1.9-.7.7-.6 1-1.3 1.1-2.1l12.6-162.7c11.3 29.2 35.4 48.5 62.8 48.5 38.3 0 69.4-38 69.4-84.7s-31.1-84.7-69.4-84.7z" fill="#1A1A1A"/><path d="M1552.9 618.3h-.2l-385.5-28.5c-.8-.1-1.5-.4-2.1-1-.5-.6-.8-1.4-.7-2.2l14-176.5c.1-1.7 1.6-2.9 3.2-2.8 1.7.1 2.9 1.6 2.8 3.2L1170.6 584l379.5 28.1 15.3-176.8c.1-1.4 1.2-2.5 2.6-2.7 1.4-.2 2.7.6 3.2 1.9 10.6 26.9 33 44.3 57.1 44.3 35 0 63.4-35.3 63.4-78.7 0-43.4-28.5-78.7-63.4-78.7-19.6 0-37.8 11-49.9 30.2-.7 1.2-2.2 1.7-3.5 1.2-1.3-.4-2.1-1.7-2-3.1l12.7-147.1-143.6-13.9c22 16.4 33.8 41.6 30.7 66.8-4.6 37.4-40 64.5-81.5 64.5-3.9 0-7.8-.2-11.8-.7-22.4-2.8-42.5-13-56.7-28.9-14.3-16-20.8-35.7-18.3-55.6 2.9-23.8 18.5-44.2 41.6-55.4l-142.9-13.8-14.6 188.4c-.1 1.7-1.6 2.9-3.2 2.8-1.7-.1-2.9-1.6-2.8-3.2l14.9-191.5c.1-.8.4-1.5 1.1-2.1.6-.5 1.4-.8 2.2-.7l158.3 15.3c1.4.1 2.5 1.3 2.7 2.7.2 1.4-.7 2.7-2.1 3.2-27.2 8.7-46 29.8-49.1 55.1-2.2 18.1 3.8 36.2 16.8 50.8 13.2 14.8 32 24.3 52.9 26.9 43.1 5.3 81.9-21 86.5-58.5 3.3-26.6-11.7-53.2-38.2-67.7-1.3-.7-1.8-2.2-1.4-3.5.4-1.4 1.8-2.2 3.2-2.1l158.9 15.3c1.6.2 2.8 1.6 2.7 3.2l-12.1 139.3c12.9-15.4 30.1-24.1 48.5-24.1 38.3 0 69.4 38 69.4 84.7s-31.1 84.7-69.4 84.7c-23.3 0-45.1-14.5-57.8-37.8l-14.6 168.6c-.2 1.7-1.5 2.9-3 2.9z" fill="#1A1A1A"/><path d="M1167.7 583.9l206.1 15.2c27.6-22.4 43.6-49 43.6-77.5 0-80.6-128-146-286-146s-286 65.4-286 146c0 12.1 2.9 23.8 8.3 35l314 27.3z" fill="#fff"/><path d="M1628.3 315.2c-18.4 0-35.6 8.7-48.5 24.1l12.1-139.3c.1-1.6-1.1-3-2.7-3.2l-158.9-15.3c-1.4-.1-2.8.7-3.2 2.1-.4 1.3.1 2.8 1.4 3.5 26.5 14.5 41.5 41.1 38.2 67.7-4.6 37.5-43.4 63.8-86.5 58.5-20.9-2.6-39.7-12.1-52.9-26.9-13-14.6-19-32.7-16.8-50.8 3.1-25.3 21.9-46.4 49.1-55.1 1.4-.5 2.3-1.8 2.1-3.2-.2-1.4-1.3-2.6-2.7-2.7l-158.3-15.3c-.8-.1-1.6.2-2.2.7-.7.6-1 1.3-1.1 2.1l-14.9 191.5c-.1 1.6 1.1 3.1 2.8 3.2 1.6.1 3.1-1.1 3.2-2.8l14.6-188.4 142.9 13.8c-23.1 11.2-38.7 31.6-41.6 55.4-2.5 19.9 4 39.6 18.3 55.6 14.2 15.9 34.3 26.1 56.7 28.9 4 .5 7.9.7 11.8.7 41.5 0 76.9-27.1 81.5-64.5 3.1-25.2-8.7-50.4-30.7-66.8l143.6 13.9-12.7 147.1c-.1 1.4.7 2.7 2 3.1 1.3.5 2.8 0 3.5-1.2 12.1-19.2 30.3-30.2 49.9-30.2 34.9 0 63.4 35.3 63.4 78.7 0 43.4-28.4 78.7-63.4 78.7-24.1 0-46.5-17.4-57.1-44.3-.5-1.3-1.8-2.1-3.2-1.9-1.4.2-2.5 1.3-2.6 2.7l-15.3 176.8-176.2-13.1c-1.1.9-2.3 1.8-3.5 2.8l-203.1-15-2.9-.3v.1c-.1.8.2 1.6.7 2.2.6.6 1.3.9 2.1 1l385.5 28.5h.2c1.5 0 2.8-1.2 3-2.9l14.6-168.6c12.7 23.3 34.5 37.8 57.8 37.8 38.3 0 69.4-38 69.4-84.7s-31.1-84.7-69.4-84.7z" fill="#1A1A1A"/><path d="M1378.6 453.1c-.7 0-1.4-.2-1.9-.7-1.3-1.1-1.5-2.9-.4-4.2 53-63.9 118.7-114.2 195.2-149.5 1.5-.7 3.3 0 4 1.5.7 1.5 0 3.3-1.5 4-75.7 34.9-140.7 84.6-193.1 147.8-.6.7-1.4 1.1-2.3 1.1z" fill="#fff"/><path d="M1167.4 589.8h-.2c-1.7-.1-2.9-1.6-2.8-3.2l13.9-179.2c.1-1.5 1.3-2.7 2.8-2.8 1.5-.1 2.8.9 3.1 2.4 7 35.2 32.3 59.8 61.5 59.8 35 0 63.4-35.3 63.4-78.7 0-1.7 1.3-3 3-3s3 1.3 3 3c0 46.7-31.1 84.7-69.4 84.7-27.4 0-51.5-19.3-62.8-48.5L1170.4 587c-.1 1.6-1.4 2.8-3 2.8zM1193.3 257h-.2c-1.7-.1-2.9-1.6-2.8-3.2l5.2-71.8c.1-1.7 1.6-2.9 3.2-2.8 1.7.1 2.9 1.6 2.8 3.2l-5.2 71.8c-.2 1.6-1.5 2.8-3 2.8z" fill="#1A1A1A"/><path d="M1196.6 249.7c46.2-16.5 88.9-40.7 127.5-72.3l-86.1-8.3c-12 6.8-24.3 12.9-36.9 18.4l-4.5 62.2z" fill="#fff"/><path d="M970.8 372.5c19.606 0 35.5-15.894 35.5-35.5s-15.894-35.5-35.5-35.5-35.5 15.894-35.5 35.5 15.894 35.5 35.5 35.5z" fill="#FFC400"/><path d="M1194.9 190.2c-13.8 5.7-27.9 10.6-42.4 14.7-45.2 12.7-94.4 17.5-146 14.3-96.4-6-174.1-37.6-209.3-54.5l-3.7 59.8c44.5 19 119.7 44.9 209.5 50.6 11.6.7 23.1 1.1 34.5 1.1 45.5 0 89.1-5.8 130.2-17.3 7.7-2.2 15.2-4.5 22.7-7.1l4.5-61.6zM1483.5 483.7c12.15 0 22-9.85 22-22s-9.85-22-22-22-22 9.85-22 22 9.85 22 22 22z" fill="#fff"/><path d="M1293.5 598.3c-.3 0-.6 0-.9-.1-1.6-.5-2.5-2.2-2-3.8.1-.4 12-37.6 42.9-87.1 12.8-20.5 27.2-40.4 42.7-59.1 1.1-1.3 2.9-1.5 4.2-.4 1.3 1.1 1.5 2.9.4 4.2-15.4 18.5-29.6 38.2-42.3 58.5-30.5 48.9-42.2 85.4-42.3 85.8-.2 1.2-1.4 2-2.7 2zM1296 1702.8c-24.5-31.5-63.6-67.6-116.3-107.1-108.1-81.1-261.1-167.9-431-244.6-169.8-76.7-336.2-134-468.5-161.4-64.5-13.3-117.4-18.9-157.3-16.4-42.2 2.7-68.3 14.3-77.4 34.5-9.1 20.2-.6 47.4 25.4 80.8 24.5 31.5 63.6 67.6 116.3 107.1 108.1 81.1 261.2 167.9 431 244.6 169.8 76.7 336.2 134 468.5 161.4 54.5 11.3 100.7 17 137.8 17 6.8 0 13.3-.2 19.5-.6 42.2-2.7 68.3-14.3 77.4-34.5 9.1-20.2.6-47.4-25.4-80.8z" fill="#1A1A1A"/><path d="M1558.9 714.3s12.6 179.4-23.4 309.4c-36 130-93 274-222 405s-279 186.2-405.5 205.1c0 0-4.4-195.3 43.6-282.3s100.4-160.1 100.4-160.1 47.5-55.6 92.5-73.6c45-18 133-31 208-96s79-138 79-138 35.9-136.7 37.5-185.9c65-15.1 89.9 16.4 89.9 16.4zM709.4 995.6s-4.5-70-42.5-156c-17-38.6-52.5-80-47-162s61.5-174 127.5-238c0 0-6.3-67.7-54.3-65.7 0 0-79.7 75.7-135.2 139.7-55.5 64-159.5 180-206.5 344s0 322 10 344 169 29 250-43 93-135 93-135l5-28z" fill="#fff"/><path d="M1495.4 1236.6c-.5 0-1.1-.1-1.6-.4-1.4-.9-1.9-2.7-1-4.1 49.4-81.2 73.8-173.3 85.6-236.2 12.8-68.2 13.9-117.8 13.9-118.3 0-1.7 1.4-3 3.1-2.9 1.7 0 3 1.4 2.9 3.1 0 .5-1.2 50.5-14.1 119.2-11.9 63.4-36.6 156.2-86.4 238.3-.4.8-1.4 1.3-2.4 1.3zM303.4 960.6c-1.6 0-2.9-1.3-3-2.9-3.1-80.1 17.8-148.6 36-192 19.7-47 40.4-75.6 40.6-75.9 1-1.3 2.9-1.6 4.2-.6 1.3 1 1.6 2.9.6 4.2-.2.3-20.6 28.4-40 74.8-17.8 42.8-38.4 110.4-35.4 189.3.1 1.7-1.2 3-2.9 3.1h-.1zM1324.4 1189.6c12.7 0 23-12.98 23-29s-10.3-29-23-29-23 12.98-23 29 10.3 29 23 29zM1054.7 1010.7c1.3-8.9 2.1-18.8 1.9-29.3-.7-27.7-9.3-63.2-43.6-87.4v-.2c.5-6.5 2.2-39.3-10.1-43.1-11.5-3.6-40.8 16.9-46.6 21.1l-.1.1c-31.8-4.4-61 3.4-82 12.2-13.6 5.7-25 12.2-33.7 17.7-.2-.3-.4-.5-.7-.7-17.7-11.6-61.7-20.6-77.9-2.9-4.6 5-6.2 10.2-4.9 15.4 2.6 10.3 16.5 17.5 23.6 20.6-16.6 9.9-32.9 22.3-48.7 37.3-12.6 11.9-24.8 24.1-36.6 35.8-68.6 68.2-133.3 132.5-290.7 179.5-16.4 4.9-31.7 10.4-45.5 16.2-63.3 26.8-91.2 59.7-110.2 88.4-7.6 11.6-14.3 23.4-20.7 34.9-12 21.3-23.3 41.5-40.7 60.5-8.2 9-16.9 16.8-26.8 24.1-28.5 21-51.8 54.7-65.5 95.1-14.5 42.6-17.5 88.8-8.6 133.4 10.3 51.7 36.6 99.3 76.1 137.6 46 44.6 109.2 77.1 188 96.6 36.1 8.9 78.7 13.4 123.1 13.4 45.9 0 93.9-4.7 138.7-14.3 51.1-10.9 97.1-27.4 136.9-49 44.7-24.4 80.7-54.9 107-90.8 4.3-5.9 8.4-12 12.2-18.2 14.7-24.1 27.6-49.4 39.3-77.2 9.2-21.7 16.3-41.8 23.2-61.2 15.9-44.7 28.5-80 55.5-107 50.8-50.9 103.4-113.7 83.3-215.7-4.6-23.1-8.8-42.5-12.5-59.6-10.4-47.4-16.7-76.6-14.7-115.5 2.7 1.5 6.5 3.3 10.8 5 6.5 2.5 12 3.7 16.7 3.7 3.7 0 6.9-.8 9.4-2.3 5-3 8.2-9 8.8-16.3.6-8.2-1.4-30.3-33.7-57.9zm-53.5-154.2c4.9 1.5 6.8 18.1 6.1 33.7-5.1-3.1-10.6-6.1-16.7-8.7-8.7-3.8-17.4-6.4-26-8.2 13.3-8.9 30.9-18.6 36.6-16.8zM787 930.4c-6-2.1-21.9-9.3-24.1-18.1-.8-3.2.4-6.5 3.5-9.9 12.5-13.7 50.8-7.8 68.8 3-7.6 5.2-12 9-12.4 9.3l-.4.4c-11.9 3.9-23.6 9-35.2 15.4-.1 0-.1-.1-.2-.1zm188.4 1.7c-38.6-20.9-77.8-29.2-116.6-24.9-7 .8-14.1 2-21 3.6 8.8-6.1 22.3-14.4 38.8-21.3 27.4-11.3 68.9-21 111.6-2.5 22.2 9.6 38.7 23.8 49.1 42.2 8.3 14.8 12.8 32.4 13.3 52.2.5 18.8-2.7 36.1-5.8 48-3.7-41.3-27.4-74.6-69.4-97.3zm107 136c-.4 5.4-2.6 9.7-5.9 11.7-8 4.9-25.6-3.3-33.4-7.8.3-4.5.8-9.1 1.3-13.9.4-3.4.7-6.8.8-10.1.1-.2.3-.4.4-.7.2-.7 4.8-12.4 7.9-29.7 19.3 17.4 30 36 28.9 50.5z" fill="#1A1A1A"/><path d="M193.7 1388.8l-4.5-4c16.4-18.5 27.4-38 39-58.6 6.4-11.5 13.1-23.3 20.7-34.9 16.8-25.5 43.5-58.1 101.1-84.3l2.5 5.5c-55.8 25.5-81.1 55.8-98.5 82.2-7.5 11.4-14.1 23.1-20.5 34.5-11.4 20-23 40.7-39.8 59.6z" fill="#FFC400"/><path d="M583.437 584.469c10.746-9.103 12.945-24.169 4.913-33.651-8.033-9.481-23.255-9.787-34.001-.684-10.745 9.103-12.945 24.169-4.912 33.651 8.032 9.481 23.255 9.787 34 .684z" fill="#1A1A1A"/><path d="M747.4 439.6s43.5-32.5 61-57 40-73 43-79.5 10-26 3-29.5-36.5 31-36.5 31-23.5 30-31 19-5.5-32.5-5.5-32.5l3.3-18.4 2.5-38.8s-22.4 9.3-27.8 19.8c-5.4 10.5-25.5 53-25.5 53l-12.5 30-30 37s27-2 38.5 17 17.5 48.9 17.5 48.9zM860.8 1726.6l-4.9-3.4c2.6-3.8 5.1-7.7 7.5-11.5 13.6-22.3 25.6-45.4 36.5-70.8l5.5 2.4c-11.1 25.6-23.1 49-36.9 71.5-2.5 4-5 7.9-7.7 11.8zM213.7 1723.4l-.5-6c54.7-4.8 94.4-24.2 121.3-59.2 31-40.5 45.4-101.5 44-186.7-3.9-73.4 6.8-126.4 33.5-166.8 22.3-33.7 55.3-58.8 110.3-83.8 17.4-7.9 35.9-14.4 55.4-21.2 32.9-11.5 67-23.4 97.4-43.3 34.3-22.5 59.1-52.3 75.7-91.3 26.7-62.6 64.1-94 90.9-109.3 29.1-16.7 51.7-18.4 52.7-18.5l.4 6-.2-3 .2 3c-.2 0-22.4 1.8-50.4 17.9-25.9 14.9-62.1 45.4-88 106.3-17.1 40.1-42.5 70.8-77.9 93.9-31.1 20.3-65.5 32.3-98.8 43.9-19.4 6.8-37.7 13.1-54.9 21-53.9 24.5-86.2 48.9-107.8 81.6-26 39.3-36.3 91.2-32.5 163.2v.1c1.4 86.6-13.4 148.9-45.2 190.5-28.1 36.6-69.1 56.7-125.6 61.7zM475.5 1792.2l-2.2-5.6c192.7-74.3 183.8-172.9 173.4-286.9-.8-8.8-1.6-17.8-2.3-26.8v-.2c-.9-40.8 13.8-87.9 41.4-132.6 24-38.8 55.4-72.1 84-89.1 10.7-6.4 21.9-12 32.7-17.4 44-22.1 85.5-42.9 91.8-110.3 4.2-45.2 25.5-79.8 42.7-100.9 18.6-22.8 35.9-34.8 36.6-35.3l3.4 4.9c-.2.1-17.5 12.1-35.5 34.3-16.6 20.4-37.2 53.9-41.2 97.5-3 31.8-13.9 56.6-33.3 75.8-17.3 17.1-38.9 27.9-61.8 39.4-10.7 5.4-21.8 10.9-32.4 17.2-27.8 16.5-58.4 49-82 87.1-27 43.7-41.4 89.6-40.6 129.2.7 9 1.5 18 2.3 26.7 5.2 57.3 10.1 111.4-10.9 161-23.4 55.4-76.2 97.4-166.1 132z" fill="#FFC400"/><path d="M706.3 1198.5l-1.7-5.8c.2-.1 17.9-5.3 37.7-20.2 18.2-13.7 42.1-38.7 52.2-79.6 17.1-69.2 59.6-94.8 61.4-95.9l3 5.2-1.5-2.6 1.5 2.6c-.4.2-42.2 25.5-58.6 92.1-10.6 42.8-35.5 68.8-54.6 83.1-20.7 15.6-38.7 20.9-39.4 21.1z" fill="#FFC400"/><path d="M789.1 276.1l-.1.1.1-.1zM859.8 275.8c-.9-2.9-2.7-4.3-4-4.9-6.8-3.1-16 6.6-31.7 24-11.4 12.7-27 30-33.6 28.1-2.4-.7-3.5-4.7-4.1-7.9-5.4-30.7 1.6-38 2.6-38.9l-3-5.2c-.6.3-3.8 2.4-5.8 9.2-2.5 8.4-2.4 20.5.3 35.9 1.2 7.1 4 11.4 8.3 12.6 10.2 3 24.5-12.9 39.7-29.8 6-6.7 11.6-13 16.4-17.3 6.5-5.9 8.3-5.3 8.3-5.3.1.1.4.3.7 1.2 3.6 12.2-23.5 66.2-43 96.5-14.4 22.4-49.1 50.5-61.1 60-3.2-24.1-11.6-41.7-25-52.6-10.1-8.1-20.6-10.3-27.2-10.8l26-32.1c.1-.2.3-.4.4-.7l30-70.2c4.9-11.5 13.7-21 24.8-26.7l10.9-5.6c1.5-.7 2.1-2.5 1.3-4-.7-1.5-2.5-2.1-4-1.3l-10.9 5.6c-12.3 6.3-22.1 16.9-27.5 29.6L718.8 335l-29.6 36.6c-4.6 4.2-75.5 69.6-151.3 159.6-45.8 54.4-84.4 107-114.8 156.4-38 61.8-63.1 118.8-74.6 169.3-25.9 114.1-21.8 202-13.8 255.6 8.7 58.3 23.4 89.1 24 90.4.5 1.1 1.6 1.7 2.7 1.7.5 0 .9-.1 1.3-.1 1.5-.7 2.1-2.5 1.4-4-.1-.3-14.3-30.3-23-85.8 26-7.9 47.4-44.7 50.1-90 3.1-51.5-18.8-94.9-49.3-98.3 3-21.5 7.1-44.1 12.5-68 11.3-49.9 36.1-106.2 73.8-167.5 30.1-49.2 68.6-101.5 114.2-155.7 31.1-36.8 61.3-69.6 86.4-95.6 1.2-.1 12.5-.8 25.9 5 1.1.5 2.1 1 3.2 1.5-.2-.1-.3-.1-.5-.2 0 0 35.6 23.6 9.3 87.4-14.8 23.9-26.5 48-34.8 71.8-12.7 36.2-17.5 71.7-14.5 105.8 0 .4.1.7.1 1.1-18 8.8-113.9 56.8-124.9 81.2-9.8 21.8 7.3 47 38.8 38 31.5-9 61.3-33 76.5-19.5 9.3 8.3 18.5 19.4 48.8 12.1 20.1 41.5 41.4 90.1 49.7 172.1.2 1.7 1.7 2.9 3.3 2.7 1.7-.2 2.9-1.7 2.7-3.3-9.1-90-33.6-140.3-55.3-184.6-16.3-33.2-30.3-61.9-33.7-100.4-3-33.2 1.8-67.9 14.1-103.2 9.9-28.3 24.7-57.1 43.9-85.5 6.1-9.1 12.3-17.5 18.4-25.3.8-.4 1.4-1.1 1.6-2 23.5-29.9 44.2-49 47.6-52.1.2-.1.3-.2.5-.3 2-1.5 48.6-36.7 66.7-64.8 7.8-12.2 20-33.5 29.6-53.8 11.4-24.1 16.1-40.2 14-47.5zM658.1 439.6c-.3-.2-.7-.3-1-.5-9-3.9-17.1-5.1-22.5-5.5 31.3-32.2 53.7-53 58.1-57 2.3-.1 9 0 16.9 3l-51.5 60zm5.5 2.8l51.5-60.1c2 1.1 4 2.4 6 4 5.7 4.6 10.5 10.7 14.2 18.2L685 461.1c-6.9-8.9-14.4-14.8-21.4-18.7zm35.8 44.8c-3.1-8.3-6.8-15.3-10.8-21.2l49.3-55.5c3.1 8 5.2 17.4 6.4 28-4.8 4.3-23.4 21.9-44.9 48.7z" fill="#1A1A1A"/><path d="M1173.1 1356.7c-1.6 0-3.7-.5-5.6-2.6-3.2-3.3-7.4-11.6-7.6-44.6-.1-19 1.1-44.1 3.6-74.4 4.3-51.6 11-101.3 11-101.8l5.9.8c-.1.5-6.7 50.1-11 101.5-2.5 30.1-3.7 55-3.6 73.8.2 30 3.8 38.3 6 40.6.7.7 1.2.7 1.4.7 9.4-.7 14.9-27.6 20.2-53.6 7.6-37.3 16.3-79.7 40.8-90.2l2.4 5.5c-21.7 9.3-30.3 51.7-37.3 85.9-6.5 32-11.7 57.3-25.6 58.4-.2-.1-.4 0-.6 0zM462.4 1042l-6-.6c6.3-58.2 56.6-71.6 93.3-81.4 24.4-6.5 39.3-11.1 38.7-22.1-.2-4-2-7.4-5.6-10.4-22.6-18.7-100.3-8.9-101-8.8l-.8-6c3.3-.4 81.1-10.2 105.6 10.2 4.8 4 7.4 8.9 7.7 14.6.9 16.5-18.5 21.7-43.2 28.2-36.8 9.9-82.8 22.2-88.7 76.3z" fill="#FFC400"/><path d="M435.2 329.6c-4.7 0-8.7-1.4-11.7-4.2-2.2-2-3.8-4.7-5.2-8.5-5.3-14.9-1.5-32.5 9.5-43.8 4.1-4.2 8.2-6.1 12.4-5.7 3.2.4 6.2 2.7 7.5 5.9 1.1 2.7.7 5.5-1.1 7.5-1.2 1.4-3.3 1.6-4.7.4-1.4-1.2-1.6-3.3-.4-4.7.2-.2 0-.6-.1-.7-.3-.9-1.3-1.7-2-1.7-2.5-.3-5.1 1.9-6.9 3.7-9.3 9.6-12.5 24.4-8 37 1 2.7 2.1 4.6 3.4 5.9 4.9 4.5 13.6 1.6 17.1.2 20.4-8.5 34.6-26.8 48.6-46.3 2.6-3.7 5.2-7.4 7.6-11.1-2.3-1.2-4.4-2.7-6-4.7-3.1-3.8-4.8-8.9-5.2-15.6-.5-9 2.9-18.5 8.5-24.1 3.8-3.8 8.4-5.6 13.4-5.3 3.3.2 6.2 1.5 7.9 3.6 2.3 2.7 2.5 6.3 2.4 9-.5 11.7-4.6 22.4-10.5 32.8 1.3 0 2.6-.1 4-.4 6.2-1.3 11.8-5.1 16.5-8.7 16.5-12.6 30.5-28.8 40.6-47-1.9-1.3-3.6-3-4.8-4.9-2-3.3-2.4-7-1.1-10.3 1.7-4.2 6.8-7.5 11.6-5.7 2.2.8 3.9 2.5 4.8 4.7 1.5 3.8.5 8.6-1 12.2 4.7-.2 9.4-2.8 14.2-5.7 21.4-12.8 37.8-24.9 48.5-41.8 1-1.6 3-2 4.6-1 1.6 1 2 3 1 4.6-12.1 19.1-31.5 32.4-50.7 43.9-6.2 3.7-12.8 7.3-20.1 6.5-.3 0-.6-.1-.8-.1-10.6 19.3-25.3 36.5-42.8 49.8-5.3 4-11.7 8.4-19.2 9.9-3.1.6-6.2.7-9.2.3-2.8 4.3-5.7 8.6-8.8 12.9-14.6 20.4-29.5 39.5-51.5 48.6-4.3 1.7-8.5 2.6-12.3 2.6zM511 220.3c-2.8 0-5.4 1.1-7.7 3.4-4.3 4.2-6.9 11.9-6.5 19 .3 5.2 1.5 9.1 3.7 11.7 1.2 1.4 2.7 2.5 4.4 3.3 6-10.1 10.3-20.5 10.8-31.6.1-1.5 0-3.5-.8-4.5-.6-.7-1.7-1.1-3.2-1.2-.3-.1-.5-.1-.7-.1zm64.8-32.2c-1 0-2.2.9-2.7 2-.7 1.7-.1 3.3.6 4.4.6.9 1.3 1.8 2.2 2.4 1.4-2.9 1.9-6.2 1.3-7.8-.2-.5-.5-.8-.9-.9-.2-.1-.4-.1-.5-.1zM1816.1 783.3c-.5 0-1-.1-1.5-.4-12.1-6.2-18.6-20.1-19.2-41.4-10.8 2.1-22.5 3.1-31.4-3.9-3.7-2.9-6.7-7.1-9.1-12.9-6.6-15.8-6.2-32.8-5-51.7.3-4.9.7-10.3 1.6-15.8-14.6 1.5-31.4 1.1-40-11.4-5.6-8.1-5.3-17.9-4.6-28.2.4-6 1.6-21.9 13.3-26.8 1.7-.7 3.7.1 4.4 1.8.7 1.7-.1 3.7-1.8 4.4-7 3-8.6 12.9-9.2 21.2-.7 9-.9 17.6 3.4 23.9 7.1 10.2 22.8 9.9 36 8.3 1.2-4.2 2.8-8.3 5.1-12.1 2.6-4.2 6.5-8 10.9-10.7 6.6-4 13.4-1.1 16.6 3.9 3.3 4.9 3.3 12.3-2.9 16.8-1.1.8-2.3 1.5-3.5 2.2-6.6 3.6-14 4.9-20.9 5.8-1 5.3-1.5 11-1.9 17.1-1.1 18.1-1.6 34.3 4.5 48.7 2 4.7 4.3 8.1 7.1 10.3 7 5.5 17.6 4.2 27.2 2.3.1-4.9.7-9.9 3.5-14.2 2.1-3.2 5.6-5.4 9.3-6.1 3-.5 5.9.1 8.2 1.8.3.2.5.5.7.8 4 5.8 1.3 13.7-3.5 17.8-3.4 2.9-7.7 4.3-11.6 5.2.4 19.4 5.6 31.8 15.6 36.9 1.6.8 2.3 2.8 1.5 4.5-.5 1.2-1.6 1.9-2.8 1.9zm-6-62.3c-.3 0-.6 0-.9.1-1.9.3-3.8 1.6-4.8 3.2-1.6 2.5-2.2 5.6-2.4 9 2.7-.7 5.2-1.8 7.2-3.4 2.4-2 3.9-5.8 2.6-8.4-.5-.4-1.1-.5-1.7-.5zm-34.8-88.5c-.9 0-1.9.3-3 .9-3.5 2.1-6.5 5.1-8.6 8.5-1.5 2.4-2.6 4.9-3.5 7.6 5.6-.9 11-2.1 15.8-4.7.9-.5 1.8-1.1 2.7-1.7 3.2-2.3 2.7-5.6 1.3-7.8-1-1.5-2.6-2.8-4.7-2.8zM1746.8 1105.8h-.8c-4.6-.2-9.1-2.7-12.2-6.7-3.2-4.2-4.6-9.5-3.7-14.3 1.8-9.4 11.7-16.5 21.6-15.3 1.8.2 3.1 1.9 2.9 3.7-.2 1.8-1.9 3.2-3.7 2.9-6.4-.7-13.1 3.9-14.3 10-.6 2.9.3 6.3 2.4 9 1.9 2.5 4.6 4 7.3 4.1 4.4.2 9.1-2.6 12-7.3 3-4.7 4-10.5 4.7-16 3.5-27.2-.7-55.2-11.8-80.2-7 1.4-14.4-.3-19.8-1.9-15-4.4-19.3-13.1-18.3-19.7.6-3.8 2.9-7.1 6.6-9.2 4.5-2.6 10.3-3.1 15.1-1.2 7.9 3.1 12.7 10.3 16.4 16.9 1.2 2.2 2.4 4.5 3.6 6.8.1-.1.2-.1.3-.2 5.4-3.3 8-10 10.1-16.8 7.5-24.2 10.4-49.3 8.8-74.6-.1-1.8 1.3-3.4 3.1-3.5 1.8-.1 3.4 1.3 3.5 3.1 1.7 26.1-1.4 52-9.1 76.9-2.3 7.6-5.7 16-13 20.5-.3.2-.7.4-1.1.6 11.4 26 15.7 55.1 12.1 83.3-.8 6.3-2.1 12.9-5.7 18.7-3.8 6.4-10.5 10.4-17 10.4zM1728.7 969c-2 0-4 .5-5.6 1.4-1.3.8-3 2.2-3.3 4.5-.9 6.3 8.1 10.7 13.6 12.4 6 1.8 11 2.4 15 2-.9-1.9-1.9-3.8-3-5.6-3.1-5.6-7.1-11.6-13-13.9-1.1-.6-2.4-.8-3.7-.8zM205.7 283.2l16 40 59-30-16-27-59 17z" fill="#1A1A1A"/><path d="M1224.4 886.601l24 24 36-34-21-24-39 34z" fill="#fff"/><path d="M1248.4 913.6c-.8 0-1.5-.3-2.1-.9l-24-24c-.6-.6-.9-1.4-.9-2.2 0-.8.4-1.6 1-2.2l39-34c1.2-1.1 3.1-1 4.2.3l21 24c1.1 1.2 1 3-.2 4.2l-36 34c-.5.6-1.2.8-2 .8zm-19.6-26.8l19.7 19.7 31.8-30-17.1-19.6-34.4 29.9z" fill="#1A1A1A"/><path d="M274.1 553.4l18.9 4 8.1-27.6-25-8.8-2 32.4z" fill="#fff"/><path d="M293 560.4c-.2 0-.4 0-.6-.1l-18.9-4c-1.5-.3-2.5-1.6-2.4-3.1l2-32.4c.1-.9.6-1.8 1.3-2.3.8-.5 1.8-.6 2.7-.3l25 8.8c1.5.5 2.3 2.1 1.9 3.7l-8.1 27.7c-.4 1.2-1.6 2-2.9 2zm-15.7-9.4l13.6 2.9 6.5-22.3-18.5-6.5-1.6 25.9zM485.4 450.6l20 17-16 37-19-11 15-43zM1384.4 826.6l-38-82-18.2 9.6-25.8-58.6-23 14 41 82 18.2-11.4 29.8 55.4 16-9zM1694.9 188.9l16.1 1.8-20.8 57.6-28.8-8.7 33.5-50.7zM1453 71.5l26.9 11.2-2.4 30.4-40.8-4.8 16.3-36.8zM865.7 665.2l25-15 37 52-26 6-36-43zM1826.4 538.9l-18.8-34.4-6.5 5.4-23.7-29.4-19 24 34 36 6.3-6.6 11.6 17.6 16.1-12.6z" fill="#1A1A1A"/><path d="M1558.9 714.3s14.1-81.1 18.6-111.1c4.5-30 10-79.5.5-75s-39.5 82-39.5 82l-77-.5 9.5 87s37.9-8.6 58.5 0c16.4 6.4 29.4 17.6 29.4 17.6z" fill="#FFC400"/><path d="M1583.8 525.2c-1.2-1.7-3.1-2.5-5-2.2-4.3.7-10.9 6.6-27.2 45.7-7.2 17.2-13.5 34.4-15.7 40.4l-74.4-2.6c-.9 0-1.7.4-2.3 1-.6.7-.9 1.5-.8 2.4v.1l7.4 87.4v.3c0 .8-3.5 76.4-43.4 213.8-15.8 54.6-53 100.1-110.5 135.5-48.5 29.8-101.7 46.7-137 57.9-6.3 2-12.3 3.9-17.5 5.6-63.1 21-107.5 78.4-107.9 79-1 1.3-.7 3.2.6 4.2.5.4 1.2.6 1.8.6.9 0 1.8-.4 2.3-1.2.5-.6 43.7-56.5 105.1-77 5.1-1.7 11.1-3.6 17.4-5.6 33.2-10.6 82.3-26.1 128.7-52.8.2 7.7 1.8 27.1 13 27.9 14 1 33-6 36 8s7.1 86.2 40 77c25-7 5-66-2-119-4.6-34.5-2.8-55.8-1-66.5 16.9-21.9 29.2-45.9 36.8-72 9.1-31.4 16.3-59.5 22-84.3 5.7-15.1 22.9-48.2 64.7-44.7l-.1-.1c13.5 3.8 28.9 11.3 44.5 25.2-.3 18.5-1.3 39.2-3.1 61.7-4.4 54.5-13.3 108.5-26.4 160.4-16.4 64.9-39.3 126.9-68.3 184.1-17.5 34.6-36.5 67.2-57 97.8-33.4-12.1-90.3 15.6-135.8 68.5-37.8 44.1-57.2 93.3-52.8 126.7-43.2 30.2-90.5 55.6-140.9 75.7-51.8 20.7-108.2 36.4-167.8 46.6-1.6.3-2.7 1.9-2.4 3.5.3 1.5 1.6 2.5 3 2.5.2 0 .3 0 .4-.2 60-10.3 116.9-26.2 169-47 54.2-21.7 105-49.5 151-82.7 47.7-34.4 91.6-75.6 130.7-122.5 40.3-48.4 76.7-104.4 108-166.3 29.2-57.6 52.3-120 68.8-185.4 13.2-52.3 22.1-106.6 26.6-161.4 1.8-22.4 2.7-43.1 3.1-61.7.3-.8.4-1.6 0-2.4.8-52-2.9-86.2-3.6-92.3.5-3.2 8.1-45.7 14.6-89.1 12.2-81.5 10.4-96.5 7.4-100.5zm-112.1 174.9c3.9-1.1 13.6-3.4 25.7-3.9l-11.3 78.3c-11.4.4-20.2 2.7-25.4 4.4 8.3-44.3 10.5-71.1 11-78.8zm20.4 74.4l11.3-78.3c9.3.2 19.5 1.6 29.6 5.4l-4.5 80.9c-13.7-5.7-26.3-7.7-36.4-8zm42.3 10.7l4.5-81.1c5.9 2.8 11.7 6.6 17 11.6.7 6.1 4.1 37.7 3.6 85.8-8.5-7.1-17-12.4-25.1-16.3zm22.5-76.5c-14.5-12.1-33.4-18.4-55.2-18.5-.1 0-.3-.1-.4-.1-.5-.1-.9 0-1.4.1-12.8.1-23.2 2.4-28.5 3.8l-5.5-65.1 71.6-13.5c1.3.2 2.7-.6 3.2-2 .1-.2 7.4-21 16.1-41.9 14.4-34.7 20.6-41.2 22.4-42.4 1.2 3 2.9 18.3-8.7 96-5.3 35.7-11.3 70.7-13.6 83.6z" fill="#1A1A1A"/></svg>