<svg width="48" height="48" viewBox="0 0 48 48" fill="none" xmlns="http://www.w3.org/2000/svg">
<path d="M35.8182 8.54545C38.8306 8.54545 41.2727 10.9875 41.2727 14V28.5454C41.2727 31.5579 38.8306 34 35.8182 34H19.2273L13.0909 39.4545V34H12.1818C9.16936 34 6.72727 31.5579 6.72727 28.5454V14C6.72727 10.9875 9.16936 8.54545 12.1818 8.54545H35.8182ZM35.8182 5.81818H12.1818C7.66562 5.82419 4.00601 9.48379 4 14V28.5454C4.00596 32.3625 6.64381 35.6711 10.3636 36.5273V39.4545C10.3652 40.5288 10.9948 41.5028 11.9736 41.9454C12.3261 42.0994 12.7063 42.1799 13.0909 42.1818C13.7596 42.1823 14.4049 41.9363 14.9036 41.4909L20.2673 36.7273H35.8182C40.3344 36.7213 43.994 33.0616 44 28.5454V14C43.994 9.48379 40.3344 5.82419 35.8182 5.81818V5.81818ZM25.3636 21.2727C25.3636 22.0258 24.7531 22.6364 24 22.6364C23.2469 22.6364 22.6364 22.0258 22.6364 21.2727C22.6364 20.5196 23.2469 19.9091 24 19.9091C24.7531 19.9091 25.3636 20.5196 25.3636 21.2727ZM34.4545 21.2727C34.4545 22.0258 33.844 22.6364 33.0909 22.6364C32.3378 22.6364 31.7273 22.0258 31.7273 21.2727C31.7273 20.5196 32.3378 19.9091 33.0909 19.9091C33.844 19.9091 34.4545 20.5196 34.4545 21.2727ZM16.3864 21.2727C16.3864 22.0258 15.7758 22.6364 15.0227 22.6364C14.2696 22.6364 13.6591 22.0258 13.6591 21.2727C13.6591 20.5196 14.2696 19.9091 15.0227 19.9091C15.7758 19.9091 16.3864 20.5196 16.3864 21.2727Z" fill="#353E44"/>
</svg>
