<svg width="48" height="48" viewBox="0 0 48 48" fill="none" xmlns="http://www.w3.org/2000/svg">
<path d="M43.9059 13.1734C43.6241 14.9109 42.7075 16.482 41.3334 17.5823V39.5556L31.5557 37.7778H29.7779L19.1112 40.4445H17.3334L7.55565 36.8978V9.37781L17.3334 12.0445H19.0561L29.7779 8.48892L30.7557 8.46225C31.2998 7.53101 32.0507 6.73726 32.9503 6.14225L32.8934 6.1067C32.4959 5.88496 32.0482 5.76867 31.593 5.76892H31.5121L29.6997 5.83114C29.4416 5.83981 29.1861 5.88469 28.9405 5.96448L18.6294 9.37781H17.689L8.25521 6.80892C7.45406 6.59053 6.59689 6.75781 5.93664 7.26141C5.27639 7.765 4.88842 8.54743 4.88721 9.37781V36.8978C4.8876 38.0172 5.58971 39.0161 6.64276 39.3956L16.4205 42.9511C16.7131 43.0577 17.0221 43.1118 17.3334 43.1111H19.1112C19.3294 43.1113 19.5467 43.0844 19.7583 43.0311L30.1059 40.4445H31.3148L40.8561 42.1778C41.0137 42.2058 41.1734 42.2207 41.3334 42.2223C42.8048 42.2188 43.9967 41.0269 44.0001 39.5556V13.8756C44.0001 13.6384 43.9684 13.4022 43.9059 13.1734ZM32.1014 14.3911C32.5832 15.3676 33.3546 16.1716 34.3103 16.6934L32.0054 24.9956C31.8122 25.7035 32.2274 26.4344 32.9343 26.6311C33.0496 26.666 33.1694 26.684 33.2899 26.6845C33.8888 26.6838 34.4137 26.2839 34.5734 25.7067L36.8899 17.3689C38.8456 17.4488 40.688 16.451 41.6896 14.7693C42.6913 13.0876 42.6913 10.9924 41.6896 9.31076C40.688 7.6291 38.8456 6.63125 36.8899 6.71114C36.0749 6.71508 35.2714 6.9035 34.5397 7.26225C31.9003 8.55982 30.8096 11.749 32.1014 14.3911ZM35.7121 9.65337C36.5648 9.23322 37.5768 9.29989 38.367 9.82825C39.1572 10.3566 39.6055 11.2664 39.543 12.2149C39.4805 13.1634 38.9168 14.0066 38.0641 14.4267C37.7273 14.5961 37.3566 14.6872 36.9797 14.6934C36.8119 14.5105 36.5964 14.3782 36.3574 14.3111C36.0929 14.235 35.811 14.2444 35.5521 14.3378C35.0957 14.0791 34.728 13.6888 34.497 13.2178C34.1848 12.5841 34.1374 11.8523 34.3654 11.1836C34.5933 10.515 35.0778 9.96442 35.7121 9.65337Z" fill="white"/>
</svg>
