<svg width="36" height="36" viewBox="0 0 36 36" fill="none" xmlns="http://www.w3.org/2000/svg">
<path fill-rule="evenodd" clip-rule="evenodd" d="M16.6802 1.53165C18.1637 1.51065 19.4402 2.31465 20.5652 3.43815L22.4552 5.32965C22.9421 4.60288 23.584 3.99305 24.3348 3.54402C25.0855 3.09498 25.9265 2.81789 26.7971 2.73269C27.6678 2.64749 28.5465 2.75628 29.3701 3.05125C30.1936 3.34622 30.9416 3.82004 31.5602 4.43862C32.1788 5.0572 32.6526 5.80517 32.9476 6.62875C33.2425 7.45232 33.3513 8.33103 33.2661 9.20168C33.1809 10.0723 32.9038 10.9133 32.4548 11.664C32.0058 12.4148 31.3959 13.0567 30.6691 13.5437L32.5607 15.4337L32.5622 15.4367C33.6842 16.5617 34.4897 17.8367 34.4672 19.3187C34.4462 20.7902 33.6151 22.0187 32.5591 23.0687L32.5562 23.0702L30.6437 24.9842C29.9282 25.6997 28.9922 25.6232 28.4267 25.3847C27.8672 25.1492 27.2717 24.6062 27.1352 23.7767C27.0474 23.247 26.8154 22.7518 26.4646 22.3454C26.1138 21.9391 25.6577 21.6373 25.1466 21.4732C24.6354 21.3091 24.0889 21.2891 23.5671 21.4153C23.0453 21.5416 22.5684 21.8092 22.1888 22.1888C21.8092 22.5684 21.5416 23.0453 21.4153 23.5671C21.2891 24.0889 21.3091 24.6354 21.4732 25.1466C21.6373 25.6577 21.9391 26.1138 22.3454 26.4646C22.7518 26.8154 23.247 27.0474 23.7767 27.1352C24.6062 27.2702 25.1492 27.8672 25.3862 28.4252C25.6247 28.9922 25.7012 29.9282 24.9842 30.6422L23.0657 32.5622L23.0642 32.5637C22.0172 33.6182 20.7887 34.4477 19.3187 34.4687C17.8382 34.4912 16.5647 33.6887 15.4412 32.5667H15.4397L13.5452 30.6692C13.0582 31.3959 12.4163 32.0058 11.6655 32.4548C10.9148 32.9038 10.0738 33.1809 9.20318 33.2661C8.33253 33.3513 7.45382 33.2425 6.63025 32.9476C5.80667 32.6526 5.0587 32.1788 4.44012 31.5602C3.82154 30.9416 3.34772 30.1936 3.05275 29.3701C2.75778 28.5465 2.64899 27.6678 2.73419 26.7971C2.81939 25.9265 3.09648 25.0855 3.54552 24.3348C3.99455 23.584 4.60438 22.9421 5.33115 22.4552L3.43965 20.5652V20.5622C2.31465 19.4372 1.51065 18.1622 1.53165 16.6802C1.55415 15.2087 2.38665 13.9802 3.44115 12.9302L3.44415 12.9287L5.35815 11.0147C6.07215 10.2992 7.00815 10.3742 7.57365 10.6127C8.13315 10.8497 8.73015 11.3927 8.86665 12.2222C8.95411 12.7519 9.18592 13.2473 9.5366 13.6539C9.88729 14.0605 10.3433 14.3625 10.8544 14.5268C11.3656 14.6911 11.9122 14.7113 12.4341 14.5852C12.956 14.4591 13.433 14.1916 13.8128 13.812C14.1925 13.4324 14.4603 12.9555 14.5866 12.4336C14.713 11.9118 14.693 11.3652 14.5289 10.854C14.3649 10.3427 14.063 9.88661 13.6566 9.53574C13.2502 9.18488 12.7549 8.95285 12.2252 8.86515C11.3942 8.73015 10.8512 8.13315 10.6157 7.57365C10.3757 7.00815 10.3007 6.07365 11.0162 5.35665L12.9302 3.44415L12.9317 3.44115C13.9817 2.38515 15.2102 1.55415 16.6817 1.53165H16.6802ZM16.7252 4.53165C16.4192 4.53615 15.9002 4.70865 15.0602 5.55615L15.0557 5.56065L14.2397 6.37515C15.1033 6.77662 15.8573 7.38051 16.4378 8.13556C17.0182 8.89062 17.4079 9.77456 17.5739 10.7124C17.7398 11.6502 17.677 12.6142 17.3909 13.5226C17.1048 14.431 16.6038 15.2569 15.9303 15.9303C15.2569 16.6038 14.431 17.1048 13.5226 17.3909C12.6142 17.677 11.6502 17.7398 10.7124 17.5739C9.77456 17.4079 8.89062 17.0182 8.13556 16.4378C7.3805 15.8573 6.77662 15.1033 6.37515 14.2397L5.56065 15.0557L5.55615 15.0587C4.70865 15.9002 4.53615 16.4177 4.53165 16.7252C4.52715 17.0222 4.67565 17.5562 5.56215 18.4457L9.05715 21.9407C9.25411 22.1377 9.39232 22.3856 9.45628 22.6568C9.52025 22.9279 9.50744 23.2115 9.4193 23.4758C9.33116 23.74 9.17116 23.9745 8.95725 24.153C8.74333 24.3315 8.48394 24.4468 8.20815 24.4862C7.67147 24.5632 7.16684 24.7882 6.75076 25.1358C6.33469 25.4835 6.0236 25.94 5.85234 26.4545C5.68107 26.9689 5.65639 27.5209 5.78106 28.0485C5.90573 28.5762 6.17482 29.0587 6.55821 29.4421C6.94159 29.8255 7.42413 30.0946 7.95179 30.2192C8.47945 30.3439 9.0314 30.3192 9.54583 30.148C10.0603 29.9767 10.5169 29.6656 10.8645 29.2495C11.2121 28.8335 11.4371 28.3288 11.5142 27.7922C11.5535 27.5164 11.6688 27.257 11.8473 27.0431C12.0258 26.8291 12.2603 26.6691 12.5245 26.581C12.7888 26.4929 13.0724 26.4801 13.3435 26.544C13.6147 26.608 13.8626 26.7462 14.0597 26.9432L17.5592 30.4427L17.5607 30.4442C18.4457 31.3277 18.9797 31.4747 19.2752 31.4702C19.5812 31.4657 20.0987 31.2932 20.9357 30.4487L20.9402 30.4442L21.7607 29.6237C20.897 29.2222 20.143 28.6183 19.5626 27.8632C18.9821 27.1082 18.5924 26.2243 18.4264 25.2864C18.2605 24.3486 18.3233 23.3846 18.6094 22.4762C18.8955 21.5679 19.3965 20.7419 20.07 20.0685C20.7434 19.395 21.5694 18.894 22.4777 18.6079C23.3861 18.3218 24.3501 18.259 25.2879 18.4249C26.2257 18.5909 27.1097 18.9806 27.8647 19.5611C28.6198 20.1415 29.2237 20.8955 29.6252 21.7592L30.4396 20.9447L30.4441 20.9417C31.2916 20.1002 31.4642 19.5812 31.4687 19.2752C31.4732 18.9782 31.3261 18.4442 30.4396 17.5562V17.5547L26.9432 14.0597C26.7462 13.8626 26.608 13.6147 26.544 13.3435C26.4801 13.0724 26.4929 12.7888 26.581 12.5245C26.6691 12.2603 26.8291 12.0258 27.0431 11.8473C27.257 11.6688 27.5164 11.5535 27.7922 11.5142C28.3288 11.4371 28.8335 11.2121 29.2495 10.8645C29.6656 10.5169 29.9767 10.0603 30.148 9.54583C30.3192 9.0314 30.3439 8.47945 30.2192 7.95179C30.0946 7.42413 29.8255 6.94159 29.4421 6.55821C29.0587 6.17482 28.5762 5.90573 28.0485 5.78106C27.5208 5.65639 26.9689 5.68108 26.4545 5.85234C25.94 6.0236 25.4834 6.33469 25.1358 6.75077C24.7882 7.16684 24.5632 7.67147 24.4862 8.20815C24.4468 8.48394 24.3315 8.74333 24.153 8.95725C23.9745 9.17116 23.74 9.33116 23.4758 9.4193C23.2115 9.50744 22.9279 9.52025 22.6568 9.45629C22.3856 9.39232 22.1377 9.25411 21.9407 9.05715L18.4457 5.56215C17.5562 4.67415 17.0207 4.52715 16.7252 4.53165V4.53165Z" fill="#509DE0"/>
</svg>
