<svg width="216" height="216" viewBox="0 0 216 216" fill="none" xmlns="http://www.w3.org/2000/svg">
<path d="M8.63998 0H0V8.63998H8.63998V0Z" fill="black"/>
<path d="M8.63998 8.63995H0V17.2799H8.63998V8.63995Z" fill="black"/>
<path d="M8.63998 17.28H0V25.9199H8.63998V17.28Z" fill="black"/>
<path d="M8.63998 25.9199H0V34.5599H8.63998V25.9199Z" fill="black"/>
<path d="M8.63998 34.5599H0V43.1999H8.63998V34.5599Z" fill="black"/>
<path d="M8.63998 43.1999H0V51.8399H8.63998V43.1999Z" fill="black"/>
<path d="M8.63998 51.8398H0V60.4798H8.63998V51.8398Z" fill="black"/>
<path d="M8.63998 69.1198H0V77.7598H8.63998V69.1198Z" fill="black"/>
<path d="M8.63998 77.7598H0V86.3998H8.63998V77.7598Z" fill="black"/>
<path d="M8.63998 95.0398H0V103.68H8.63998V95.0398Z" fill="black"/>
<path d="M8.63998 103.68H0V112.32H8.63998V103.68Z" fill="black"/>
<path d="M8.63998 155.52H0V164.16H8.63998V155.52Z" fill="black"/>
<path d="M8.63998 164.16H0V172.8H8.63998V164.16Z" fill="black"/>
<path d="M8.63998 172.8H0V181.44H8.63998V172.8Z" fill="black"/>
<path d="M8.63998 181.44H0V190.08H8.63998V181.44Z" fill="black"/>
<path d="M8.63998 190.08H0V198.72H8.63998V190.08Z" fill="black"/>
<path d="M8.63998 198.719H0V207.359H8.63998V198.719Z" fill="black"/>
<path d="M8.63998 207.359H0V215.999H8.63998V207.359Z" fill="black"/>
<path d="M17.2806 0H8.64062V8.63998H17.2806V0Z" fill="black"/>
<path d="M17.2806 51.8398H8.64062V60.4798H17.2806V51.8398Z" fill="black"/>
<path d="M17.2806 69.1198H8.64062V77.7598H17.2806V69.1198Z" fill="black"/>
<path d="M17.2806 86.3998H8.64062V95.0398H17.2806V86.3998Z" fill="black"/>
<path d="M17.2806 95.0398H8.64062V103.68H17.2806V95.0398Z" fill="black"/>
<path d="M17.2806 120.96H8.64062V129.6H17.2806V120.96Z" fill="black"/>
<path d="M17.2806 129.6H8.64062V138.24H17.2806V129.6Z" fill="black"/>
<path d="M17.2806 138.24H8.64062V146.88H17.2806V138.24Z" fill="black"/>
<path d="M17.2806 155.52H8.64062V164.16H17.2806V155.52Z" fill="black"/>
<path d="M17.2806 207.359H8.64062V215.999H17.2806V207.359Z" fill="black"/>
<path d="M25.9212 0H17.2812V8.63998H25.9212V0Z" fill="black"/>
<path d="M25.9212 17.28H17.2812V25.9199H25.9212V17.28Z" fill="black"/>
<path d="M25.9212 25.9199H17.2812V34.5599H25.9212V25.9199Z" fill="black"/>
<path d="M25.9212 34.5599H17.2812V43.1999H25.9212V34.5599Z" fill="black"/>
<path d="M25.9212 51.8398H17.2812V60.4798H25.9212V51.8398Z" fill="black"/>
<path d="M25.9212 69.1198H17.2812V77.7598H25.9212V69.1198Z" fill="black"/>
<path d="M25.9212 77.7598H17.2812V86.3998H25.9212V77.7598Z" fill="black"/>
<path d="M25.9212 86.3998H17.2812V95.0398H25.9212V86.3998Z" fill="black"/>
<path d="M25.9212 95.0398H17.2812V103.68H25.9212V95.0398Z" fill="black"/>
<path d="M25.9212 103.68H17.2812V112.32H25.9212V103.68Z" fill="black"/>
<path d="M25.9212 112.32H17.2812V120.96H25.9212V112.32Z" fill="black"/>
<path d="M25.9212 120.96H17.2812V129.6H25.9212V120.96Z" fill="black"/>
<path d="M25.9212 129.6H17.2812V138.24H25.9212V129.6Z" fill="black"/>
<path d="M25.9212 138.24H17.2812V146.88H25.9212V138.24Z" fill="black"/>
<path d="M25.9212 155.52H17.2812V164.16H25.9212V155.52Z" fill="black"/>
<path d="M25.9212 172.8H17.2812V181.44H25.9212V172.8Z" fill="black"/>
<path d="M25.9212 181.44H17.2812V190.08H25.9212V181.44Z" fill="black"/>
<path d="M25.9212 190.08H17.2812V198.72H25.9212V190.08Z" fill="black"/>
<path d="M25.9212 207.359H17.2812V215.999H25.9212V207.359Z" fill="black"/>
<path d="M34.5599 0H25.9199V8.63998H34.5599V0Z" fill="black"/>
<path d="M34.5599 17.28H25.9199V25.9199H34.5599V17.28Z" fill="black"/>
<path d="M34.5599 25.9199H25.9199V34.5599H34.5599V25.9199Z" fill="black"/>
<path d="M34.5599 34.5599H25.9199V43.1999H34.5599V34.5599Z" fill="black"/>
<path d="M34.5599 51.8398H25.9199V60.4798H34.5599V51.8398Z" fill="black"/>
<path d="M34.5599 69.1198H25.9199V77.7598H34.5599V69.1198Z" fill="black"/>
<path d="M34.5599 86.3998H25.9199V95.0398H34.5599V86.3998Z" fill="black"/>
<path d="M34.5599 112.32H25.9199V120.96H34.5599V112.32Z" fill="black"/>
<path d="M34.5599 120.96H25.9199V129.6H34.5599V120.96Z" fill="black"/>
<path d="M34.5599 138.24H25.9199V146.88H34.5599V138.24Z" fill="black"/>
<path d="M34.5599 155.52H25.9199V164.16H34.5599V155.52Z" fill="black"/>
<path d="M34.5599 172.8H25.9199V181.44H34.5599V172.8Z" fill="black"/>
<path d="M34.5599 181.44H25.9199V190.08H34.5599V181.44Z" fill="black"/>
<path d="M34.5599 190.08H25.9199V198.72H34.5599V190.08Z" fill="black"/>
<path d="M34.5599 207.359H25.9199V215.999H34.5599V207.359Z" fill="black"/>
<path d="M43.1986 0H34.5586V8.63998H43.1986V0Z" fill="black"/>
<path d="M43.1986 17.28H34.5586V25.9199H43.1986V17.28Z" fill="black"/>
<path d="M43.1986 25.9199H34.5586V34.5599H43.1986V25.9199Z" fill="black"/>
<path d="M43.1986 34.5599H34.5586V43.1999H43.1986V34.5599Z" fill="black"/>
<path d="M43.1986 51.8398H34.5586V60.4798H43.1986V51.8398Z" fill="black"/>
<path d="M43.1986 69.1198H34.5586V77.7598H43.1986V69.1198Z" fill="black"/>
<path d="M43.1986 77.7598H34.5586V86.3998H43.1986V77.7598Z" fill="black"/>
<path d="M43.1986 103.68H34.5586V112.32H43.1986V103.68Z" fill="black"/>
<path d="M43.1986 112.32H34.5586V120.96H43.1986V112.32Z" fill="black"/>
<path d="M43.1986 120.96H34.5586V129.6H43.1986V120.96Z" fill="black"/>
<path d="M43.1986 155.52H34.5586V164.16H43.1986V155.52Z" fill="black"/>
<path d="M43.1986 172.8H34.5586V181.44H43.1986V172.8Z" fill="black"/>
<path d="M43.1986 181.44H34.5586V190.08H43.1986V181.44Z" fill="black"/>
<path d="M43.1986 190.08H34.5586V198.72H43.1986V190.08Z" fill="black"/>
<path d="M43.1986 207.359H34.5586V215.999H43.1986V207.359Z" fill="black"/>
<path d="M51.8411 0H43.2012V8.63998H51.8411V0Z" fill="black"/>
<path d="M51.8411 51.8398H43.2012V60.4798H51.8411V51.8398Z" fill="black"/>
<path d="M51.8411 86.3998H43.2012V95.0398H51.8411V86.3998Z" fill="black"/>
<path d="M51.8411 103.68H43.2012V112.32H51.8411V103.68Z" fill="black"/>
<path d="M51.8411 120.96H43.2012V129.6H51.8411V120.96Z" fill="black"/>
<path d="M51.8411 155.52H43.2012V164.16H51.8411V155.52Z" fill="black"/>
<path d="M51.8411 207.359H43.2012V215.999H51.8411V207.359Z" fill="black"/>
<path d="M60.4779 0H51.8379V8.63998H60.4779V0Z" fill="black"/>
<path d="M60.4779 8.63995H51.8379V17.2799H60.4779V8.63995Z" fill="black"/>
<path d="M60.4779 17.28H51.8379V25.9199H60.4779V17.28Z" fill="black"/>
<path d="M60.4779 25.9199H51.8379V34.5599H60.4779V25.9199Z" fill="black"/>
<path d="M60.4779 34.5599H51.8379V43.1999H60.4779V34.5599Z" fill="black"/>
<path d="M60.4779 43.1999H51.8379V51.8399H60.4779V43.1999Z" fill="black"/>
<path d="M60.4779 51.8398H51.8379V60.4798H60.4779V51.8398Z" fill="black"/>
<path d="M60.4779 69.1198H51.8379V77.7598H60.4779V69.1198Z" fill="black"/>
<path d="M60.4779 86.3998H51.8379V95.0398H60.4779V86.3998Z" fill="black"/>
<path d="M60.4779 103.68H51.8379V112.32H60.4779V103.68Z" fill="black"/>
<path d="M60.4779 120.96H51.8379V129.6H60.4779V120.96Z" fill="black"/>
<path d="M60.4779 138.24H51.8379V146.88H60.4779V138.24Z" fill="black"/>
<path d="M60.4779 155.52H51.8379V164.16H60.4779V155.52Z" fill="black"/>
<path d="M60.4779 164.16H51.8379V172.8H60.4779V164.16Z" fill="black"/>
<path d="M60.4779 172.8H51.8379V181.44H60.4779V172.8Z" fill="black"/>
<path d="M60.4779 181.44H51.8379V190.08H60.4779V181.44Z" fill="black"/>
<path d="M60.4779 190.08H51.8379V198.72H60.4779V190.08Z" fill="black"/>
<path d="M60.4779 198.719H51.8379V207.359H60.4779V198.719Z" fill="black"/>
<path d="M60.4779 207.359H51.8379V215.999H60.4779V207.359Z" fill="black"/>
<path d="M69.1204 69.1198H60.4805V77.7598H69.1204V69.1198Z" fill="black"/>
<path d="M69.1204 103.68H60.4805V112.32H69.1204V103.68Z" fill="black"/>
<path d="M69.1204 120.96H60.4805V129.6H69.1204V120.96Z" fill="black"/>
<path d="M69.1204 138.24H60.4805V146.88H69.1204V138.24Z" fill="black"/>
<path d="M77.7591 8.63995H69.1191V17.2799H77.7591V8.63995Z" fill="black"/>
<path d="M77.7591 25.9199H69.1191V34.5599H77.7591V25.9199Z" fill="black"/>
<path d="M77.7591 43.1999H69.1191V51.8399H77.7591V43.1999Z" fill="black"/>
<path d="M77.7591 51.8398H69.1191V60.4798H77.7591V51.8398Z" fill="black"/>
<path d="M77.7591 69.1198H69.1191V77.7598H77.7591V69.1198Z" fill="black"/>
<path d="M77.7591 86.3998H69.1191V95.0398H77.7591V86.3998Z" fill="black"/>
<path d="M77.7591 95.0398H69.1191V103.68H77.7591V95.0398Z" fill="black"/>
<path d="M77.7591 138.24H69.1191V146.88H77.7591V138.24Z" fill="black"/>
<path d="M77.7591 146.88H69.1191V155.52H77.7591V146.88Z" fill="black"/>
<path d="M77.7591 155.52H69.1191V164.16H77.7591V155.52Z" fill="black"/>
<path d="M77.7591 172.8H69.1191V181.44H77.7591V172.8Z" fill="black"/>
<path d="M77.7591 181.44H69.1191V190.08H77.7591V181.44Z" fill="black"/>
<path d="M77.7591 190.08H69.1191V198.72H77.7591V190.08Z" fill="black"/>
<path d="M77.7591 198.719H69.1191V207.359H77.7591V198.719Z" fill="black"/>
<path d="M77.7591 207.359H69.1191V215.999H77.7591V207.359Z" fill="black"/>
<path d="M86.3997 0H77.7598V8.63998H86.3997V0Z" fill="black"/>
<path d="M86.3997 8.63995H77.7598V17.2799H86.3997V8.63995Z" fill="black"/>
<path d="M86.3997 17.28H77.7598V25.9199H86.3997V17.28Z" fill="black"/>
<path d="M86.3997 25.9199H77.7598V34.5599H86.3997V25.9199Z" fill="black"/>
<path d="M86.3997 69.1198H77.7598V77.7598H86.3997V69.1198Z" fill="black"/>
<path d="M86.3997 77.7598H77.7598V86.3998H86.3997V77.7598Z" fill="black"/>
<path d="M86.3997 86.3998H77.7598V95.0398H86.3997V86.3998Z" fill="black"/>
<path d="M86.3997 95.0398H77.7598V103.68H86.3997V95.0398Z" fill="black"/>
<path d="M86.3997 103.68H77.7598V112.32H86.3997V103.68Z" fill="black"/>
<path d="M86.3997 129.6H77.7598V138.24H86.3997V129.6Z" fill="black"/>
<path d="M86.3997 146.88H77.7598V155.52H86.3997V146.88Z" fill="black"/>
<path d="M86.3997 172.8H77.7598V181.44H86.3997V172.8Z" fill="black"/>
<path d="M86.3997 198.719H77.7598V207.359H86.3997V198.719Z" fill="black"/>
<path d="M86.3997 207.359H77.7598V215.999H86.3997V207.359Z" fill="black"/>
<path d="M95.0384 17.28H86.3984V25.9199H95.0384V17.28Z" fill="black"/>
<path d="M95.0384 34.5599H86.3984V43.1999H95.0384V34.5599Z" fill="black"/>
<path d="M95.0384 43.1999H86.3984V51.8399H95.0384V43.1999Z" fill="black"/>
<path d="M95.0384 51.8398H86.3984V60.4798H95.0384V51.8398Z" fill="black"/>
<path d="M95.0384 69.1198H86.3984V77.7598H95.0384V69.1198Z" fill="black"/>
<path d="M95.0384 95.0398H86.3984V103.68H95.0384V95.0398Z" fill="black"/>
<path d="M95.0384 112.32H86.3984V120.96H95.0384V112.32Z" fill="black"/>
<path d="M95.0384 120.96H86.3984V129.6H95.0384V120.96Z" fill="black"/>
<path d="M95.0384 146.88H86.3984V155.52H95.0384V146.88Z" fill="black"/>
<path d="M95.0384 155.52H86.3984V164.16H95.0384V155.52Z" fill="black"/>
<path d="M95.0384 164.16H86.3984V172.8H95.0384V164.16Z" fill="black"/>
<path d="M95.0384 181.44H86.3984V190.08H95.0384V181.44Z" fill="black"/>
<path d="M95.0384 207.359H86.3984V215.999H95.0384V207.359Z" fill="black"/>
<path d="M103.679 8.63995H95.0391V17.2799H103.679V8.63995Z" fill="black"/>
<path d="M103.679 17.28H95.0391V25.9199H103.679V17.28Z" fill="black"/>
<path d="M103.679 25.9199H95.0391V34.5599H103.679V25.9199Z" fill="black"/>
<path d="M103.679 86.3998H95.0391V95.0398H103.679V86.3998Z" fill="black"/>
<path d="M103.679 95.0398H95.0391V103.68H103.679V95.0398Z" fill="black"/>
<path d="M103.679 103.68H95.0391V112.32H103.679V103.68Z" fill="black"/>
<path d="M103.679 155.52H95.0391V164.16H103.679V155.52Z" fill="black"/>
<path d="M103.679 164.16H95.0391V172.8H103.679V164.16Z" fill="black"/>
<path d="M103.679 172.8H95.0391V181.44H103.679V172.8Z" fill="black"/>
<path d="M112.32 8.63995H103.68V17.2799H112.32V8.63995Z" fill="black"/>
<path d="M112.32 34.5599H103.68V43.1999H112.32V34.5599Z" fill="black"/>
<path d="M112.32 51.8398H103.68V60.4798H112.32V51.8398Z" fill="black"/>
<path d="M112.32 60.4799H103.68V69.1198H112.32V60.4799Z" fill="black"/>
<path d="M112.32 69.1198H103.68V77.7598H112.32V69.1198Z" fill="black"/>
<path d="M112.32 86.3998H103.68V95.0398H112.32V86.3998Z" fill="black"/>
<path d="M112.32 112.32H103.68V120.96H112.32V112.32Z" fill="black"/>
<path d="M112.32 129.6H103.68V138.24H112.32V129.6Z" fill="black"/>
<path d="M112.32 138.24H103.68V146.88H112.32V138.24Z" fill="black"/>
<path d="M112.32 155.52H103.68V164.16H112.32V155.52Z" fill="black"/>
<path d="M112.32 181.44H103.68V190.08H112.32V181.44Z" fill="black"/>
<path d="M112.32 198.719H103.68V207.359H112.32V198.719Z" fill="black"/>
<path d="M112.32 207.359H103.68V215.999H112.32V207.359Z" fill="black"/>
<path d="M120.96 0H112.32V8.63998H120.96V0Z" fill="black"/>
<path d="M120.96 8.63995H112.32V17.2799H120.96V8.63995Z" fill="black"/>
<path d="M120.96 25.9199H112.32V34.5599H120.96V25.9199Z" fill="black"/>
<path d="M120.96 34.5599H112.32V43.1999H120.96V34.5599Z" fill="black"/>
<path d="M120.96 69.1198H112.32V77.7598H120.96V69.1198Z" fill="black"/>
<path d="M120.96 77.7598H112.32V86.3998H120.96V77.7598Z" fill="black"/>
<path d="M120.96 86.3998H112.32V95.0398H120.96V86.3998Z" fill="black"/>
<path d="M120.96 112.32H112.32V120.96H120.96V112.32Z" fill="black"/>
<path d="M120.96 120.96H112.32V129.6H120.96V120.96Z" fill="black"/>
<path d="M120.96 129.6H112.32V138.24H120.96V129.6Z" fill="black"/>
<path d="M120.96 181.44H112.32V190.08H120.96V181.44Z" fill="black"/>
<path d="M120.96 190.08H112.32V198.72H120.96V190.08Z" fill="black"/>
<path d="M120.96 198.719H112.32V207.359H120.96V198.719Z" fill="black"/>
<path d="M129.599 8.63995H120.959V17.2799H129.599V8.63995Z" fill="black"/>
<path d="M129.599 17.28H120.959V25.9199H129.599V17.28Z" fill="black"/>
<path d="M129.599 25.9199H120.959V34.5599H129.599V25.9199Z" fill="black"/>
<path d="M129.599 43.1999H120.959V51.8399H129.599V43.1999Z" fill="black"/>
<path d="M129.599 51.8398H120.959V60.4798H129.599V51.8398Z" fill="black"/>
<path d="M129.599 60.4799H120.959V69.1198H129.599V60.4799Z" fill="black"/>
<path d="M129.599 86.3998H120.959V95.0398H129.599V86.3998Z" fill="black"/>
<path d="M129.599 95.0398H120.959V103.68H129.599V95.0398Z" fill="black"/>
<path d="M129.599 120.96H120.959V129.6H129.599V120.96Z" fill="black"/>
<path d="M129.599 138.24H120.959V146.88H129.599V138.24Z" fill="black"/>
<path d="M129.599 164.16H120.959V172.8H129.599V164.16Z" fill="black"/>
<path d="M129.599 181.44H120.959V190.08H129.599V181.44Z" fill="black"/>
<path d="M129.599 190.08H120.959V198.72H129.599V190.08Z" fill="black"/>
<path d="M129.599 207.359H120.959V215.999H129.599V207.359Z" fill="black"/>
<path d="M138.24 8.63995H129.6V17.2799H138.24V8.63995Z" fill="black"/>
<path d="M138.24 25.9199H129.6V34.5599H138.24V25.9199Z" fill="black"/>
<path d="M138.24 43.1999H129.6V51.8399H138.24V43.1999Z" fill="black"/>
<path d="M138.24 86.3998H129.6V95.0398H138.24V86.3998Z" fill="black"/>
<path d="M138.24 103.68H129.6V112.32H138.24V103.68Z" fill="black"/>
<path d="M138.24 120.96H129.6V129.6H138.24V120.96Z" fill="black"/>
<path d="M138.24 146.88H129.6V155.52H138.24V146.88Z" fill="black"/>
<path d="M138.24 172.8H129.6V181.44H138.24V172.8Z" fill="black"/>
<path d="M138.24 181.44H129.6V190.08H138.24V181.44Z" fill="black"/>
<path d="M138.24 198.719H129.6V207.359H138.24V198.719Z" fill="black"/>
<path d="M146.88 0H138.24V8.63998H146.88V0Z" fill="black"/>
<path d="M146.88 8.63995H138.24V17.2799H146.88V8.63995Z" fill="black"/>
<path d="M146.88 34.5599H138.24V43.1999H146.88V34.5599Z" fill="black"/>
<path d="M146.88 51.8398H138.24V60.4798H146.88V51.8398Z" fill="black"/>
<path d="M146.88 60.4799H138.24V69.1198H146.88V60.4799Z" fill="black"/>
<path d="M146.88 86.3998H138.24V95.0398H146.88V86.3998Z" fill="black"/>
<path d="M146.88 95.0398H138.24V103.68H146.88V95.0398Z" fill="black"/>
<path d="M146.88 103.68H138.24V112.32H146.88V103.68Z" fill="black"/>
<path d="M146.88 112.32H138.24V120.96H146.88V112.32Z" fill="black"/>
<path d="M146.88 120.96H138.24V129.6H146.88V120.96Z" fill="black"/>
<path d="M146.88 129.6H138.24V138.24H146.88V129.6Z" fill="black"/>
<path d="M146.88 138.24H138.24V146.88H146.88V138.24Z" fill="black"/>
<path d="M146.88 146.88H138.24V155.52H146.88V146.88Z" fill="black"/>
<path d="M146.88 155.52H138.24V164.16H146.88V155.52Z" fill="black"/>
<path d="M146.88 164.16H138.24V172.8H146.88V164.16Z" fill="black"/>
<path d="M146.88 172.8H138.24V181.44H146.88V172.8Z" fill="black"/>
<path d="M146.88 190.08H138.24V198.72H146.88V190.08Z" fill="black"/>
<path d="M146.88 198.719H138.24V207.359H146.88V198.719Z" fill="black"/>
<path d="M155.521 69.1198H146.881V77.7598H155.521V69.1198Z" fill="black"/>
<path d="M155.521 86.3998H146.881V95.0398H155.521V86.3998Z" fill="black"/>
<path d="M155.521 95.0398H146.881V103.68H155.521V95.0398Z" fill="black"/>
<path d="M155.521 103.68H146.881V112.32H155.521V103.68Z" fill="black"/>
<path d="M155.521 138.24H146.881V146.88H155.521V138.24Z" fill="black"/>
<path d="M155.521 172.8H146.881V181.44H155.521V172.8Z" fill="black"/>
<path d="M155.521 181.44H146.881V190.08H155.521V181.44Z" fill="black"/>
<path d="M155.521 198.719H146.881V207.359H155.521V198.719Z" fill="black"/>
<path d="M164.158 0H155.518V8.63998H164.158V0Z" fill="black"/>
<path d="M164.158 8.63995H155.518V17.2799H164.158V8.63995Z" fill="black"/>
<path d="M164.158 17.28H155.518V25.9199H164.158V17.28Z" fill="black"/>
<path d="M164.158 25.9199H155.518V34.5599H164.158V25.9199Z" fill="black"/>
<path d="M164.158 34.5599H155.518V43.1999H164.158V34.5599Z" fill="black"/>
<path d="M164.158 43.1999H155.518V51.8399H164.158V43.1999Z" fill="black"/>
<path d="M164.158 51.8398H155.518V60.4798H164.158V51.8398Z" fill="black"/>
<path d="M164.158 86.3998H155.518V95.0398H164.158V86.3998Z" fill="black"/>
<path d="M164.158 95.0398H155.518V103.68H164.158V95.0398Z" fill="black"/>
<path d="M164.158 103.68H155.518V112.32H164.158V103.68Z" fill="black"/>
<path d="M164.158 120.96H155.518V129.6H164.158V120.96Z" fill="black"/>
<path d="M164.158 138.24H155.518V146.88H164.158V138.24Z" fill="black"/>
<path d="M164.158 155.52H155.518V164.16H164.158V155.52Z" fill="black"/>
<path d="M164.158 172.8H155.518V181.44H164.158V172.8Z" fill="black"/>
<path d="M164.158 181.44H155.518V190.08H164.158V181.44Z" fill="black"/>
<path d="M164.158 198.719H155.518V207.359H164.158V198.719Z" fill="black"/>
<path d="M172.8 0H164.16V8.63998H172.8V0Z" fill="black"/>
<path d="M172.8 51.8398H164.16V60.4798H172.8V51.8398Z" fill="black"/>
<path d="M172.8 69.1198H164.16V77.7598H172.8V69.1198Z" fill="black"/>
<path d="M172.8 77.7598H164.16V86.3998H172.8V77.7598Z" fill="black"/>
<path d="M172.8 86.3998H164.16V95.0398H172.8V86.3998Z" fill="black"/>
<path d="M172.8 95.0398H164.16V103.68H172.8V95.0398Z" fill="black"/>
<path d="M172.8 103.68H164.16V112.32H172.8V103.68Z" fill="black"/>
<path d="M172.8 112.32H164.16V120.96H172.8V112.32Z" fill="black"/>
<path d="M172.8 120.96H164.16V129.6H172.8V120.96Z" fill="black"/>
<path d="M172.8 129.6H164.16V138.24H172.8V129.6Z" fill="black"/>
<path d="M172.8 138.24H164.16V146.88H172.8V138.24Z" fill="black"/>
<path d="M172.8 172.8H164.16V181.44H172.8V172.8Z" fill="black"/>
<path d="M172.8 198.719H164.16V207.359H172.8V198.719Z" fill="black"/>
<path d="M172.8 207.359H164.16V215.999H172.8V207.359Z" fill="black"/>
<path d="M181.439 0H172.799V8.63998H181.439V0Z" fill="black"/>
<path d="M181.439 17.28H172.799V25.9199H181.439V17.28Z" fill="black"/>
<path d="M181.439 25.9199H172.799V34.5599H181.439V25.9199Z" fill="black"/>
<path d="M181.439 34.5599H172.799V43.1999H181.439V34.5599Z" fill="black"/>
<path d="M181.439 51.8398H172.799V60.4798H181.439V51.8398Z" fill="black"/>
<path d="M181.439 86.3998H172.799V95.0398H181.439V86.3998Z" fill="black"/>
<path d="M181.439 103.68H172.799V112.32H181.439V103.68Z" fill="black"/>
<path d="M181.439 120.96H172.799V129.6H181.439V120.96Z" fill="black"/>
<path d="M181.439 129.6H172.799V138.24H181.439V129.6Z" fill="black"/>
<path d="M181.439 138.24H172.799V146.88H181.439V138.24Z" fill="black"/>
<path d="M181.439 146.88H172.799V155.52H181.439V146.88Z" fill="black"/>
<path d="M181.439 155.52H172.799V164.16H181.439V155.52Z" fill="black"/>
<path d="M181.439 164.16H172.799V172.8H181.439V164.16Z" fill="black"/>
<path d="M181.439 172.8H172.799V181.44H181.439V172.8Z" fill="black"/>
<path d="M181.439 181.44H172.799V190.08H181.439V181.44Z" fill="black"/>
<path d="M181.439 198.719H172.799V207.359H181.439V198.719Z" fill="black"/>
<path d="M181.439 207.359H172.799V215.999H181.439V207.359Z" fill="black"/>
<path d="M190.081 0H181.441V8.63998H190.081V0Z" fill="black"/>
<path d="M190.081 17.28H181.441V25.9199H190.081V17.28Z" fill="black"/>
<path d="M190.081 25.9199H181.441V34.5599H190.081V25.9199Z" fill="black"/>
<path d="M190.081 34.5599H181.441V43.1999H190.081V34.5599Z" fill="black"/>
<path d="M190.081 51.8398H181.441V60.4798H190.081V51.8398Z" fill="black"/>
<path d="M190.081 69.1198H181.441V77.7598H190.081V69.1198Z" fill="black"/>
<path d="M190.081 86.3998H181.441V95.0398H190.081V86.3998Z" fill="black"/>
<path d="M190.081 112.32H181.441V120.96H190.081V112.32Z" fill="black"/>
<path d="M190.081 120.96H181.441V129.6H190.081V120.96Z" fill="black"/>
<path d="M190.081 146.88H181.441V155.52H190.081V146.88Z" fill="black"/>
<path d="M190.081 164.16H181.441V172.8H190.081V164.16Z" fill="black"/>
<path d="M190.081 181.44H181.441V190.08H190.081V181.44Z" fill="black"/>
<path d="M190.081 190.08H181.441V198.72H190.081V190.08Z" fill="black"/>
<path d="M190.081 198.719H181.441V207.359H190.081V198.719Z" fill="black"/>
<path d="M190.081 207.359H181.441V215.999H190.081V207.359Z" fill="black"/>
<path d="M198.718 0H190.078V8.63998H198.718V0Z" fill="black"/>
<path d="M198.718 17.28H190.078V25.9199H198.718V17.28Z" fill="black"/>
<path d="M198.718 25.9199H190.078V34.5599H198.718V25.9199Z" fill="black"/>
<path d="M198.718 34.5599H190.078V43.1999H198.718V34.5599Z" fill="black"/>
<path d="M198.718 51.8398H190.078V60.4798H198.718V51.8398Z" fill="black"/>
<path d="M198.718 103.68H190.078V112.32H198.718V103.68Z" fill="black"/>
<path d="M198.718 138.24H190.078V146.88H198.718V138.24Z" fill="black"/>
<path d="M198.718 155.52H190.078V164.16H198.718V155.52Z" fill="black"/>
<path d="M198.718 172.8H190.078V181.44H198.718V172.8Z" fill="black"/>
<path d="M198.718 181.44H190.078V190.08H198.718V181.44Z" fill="black"/>
<path d="M198.718 190.08H190.078V198.72H198.718V190.08Z" fill="black"/>
<path d="M198.718 207.359H190.078V215.999H198.718V207.359Z" fill="black"/>
<path d="M207.359 0H198.719V8.63998H207.359V0Z" fill="black"/>
<path d="M207.359 51.8398H198.719V60.4798H207.359V51.8398Z" fill="black"/>
<path d="M207.359 69.1198H198.719V77.7598H207.359V69.1198Z" fill="black"/>
<path d="M207.359 77.7598H198.719V86.3998H207.359V77.7598Z" fill="black"/>
<path d="M207.359 86.3998H198.719V95.0398H207.359V86.3998Z" fill="black"/>
<path d="M207.359 103.68H198.719V112.32H207.359V103.68Z" fill="black"/>
<path d="M207.359 112.32H198.719V120.96H207.359V112.32Z" fill="black"/>
<path d="M207.359 120.96H198.719V129.6H207.359V120.96Z" fill="black"/>
<path d="M207.359 155.52H198.719V164.16H207.359V155.52Z" fill="black"/>
<path d="M207.359 172.8H198.719V181.44H207.359V172.8Z" fill="black"/>
<path d="M207.359 181.44H198.719V190.08H207.359V181.44Z" fill="black"/>
<path d="M207.359 207.359H198.719V215.999H207.359V207.359Z" fill="black"/>
<path d="M215.999 0H207.359V8.63998H215.999V0Z" fill="black"/>
<path d="M215.999 8.63995H207.359V17.2799H215.999V8.63995Z" fill="black"/>
<path d="M215.999 17.28H207.359V25.9199H215.999V17.28Z" fill="black"/>
<path d="M215.999 25.9199H207.359V34.5599H215.999V25.9199Z" fill="black"/>
<path d="M215.999 34.5599H207.359V43.1999H215.999V34.5599Z" fill="black"/>
<path d="M215.999 43.1999H207.359V51.8399H215.999V43.1999Z" fill="black"/>
<path d="M215.999 51.8398H207.359V60.4798H215.999V51.8398Z" fill="black"/>
<path d="M215.999 86.3998H207.359V95.0398H215.999V86.3998Z" fill="black"/>
<path d="M215.999 95.0398H207.359V103.68H215.999V95.0398Z" fill="black"/>
<path d="M215.999 103.68H207.359V112.32H215.999V103.68Z" fill="black"/>
<path d="M215.999 120.96H207.359V129.6H215.999V120.96Z" fill="black"/>
<path d="M215.999 129.6H207.359V138.24H215.999V129.6Z" fill="black"/>
<path d="M215.999 155.52H207.359V164.16H215.999V155.52Z" fill="black"/>
<path d="M215.999 164.16H207.359V172.8H215.999V164.16Z" fill="black"/>
<path d="M215.999 172.8H207.359V181.44H215.999V172.8Z" fill="black"/>
<path d="M215.999 181.44H207.359V190.08H215.999V181.44Z" fill="black"/>
<path d="M215.999 190.08H207.359V198.72H215.999V190.08Z" fill="black"/>
<path d="M215.999 198.719H207.359V207.359H215.999V198.719Z" fill="black"/>
<path d="M215.999 207.359H207.359V215.999H215.999V207.359Z" fill="black"/>
</svg>
