<svg width="48" height="48" viewBox="0 0 48 48" fill="none" xmlns="http://www.w3.org/2000/svg">
<path fill-rule="evenodd" clip-rule="evenodd" d="M44 24C44 35.0457 35.0457 44 24 44C12.9543 44 4 35.0457 4 24C4 12.9543 12.9543 4 24 4C35.0457 4 44 12.9543 44 24ZM41.25 24C41.25 33.5269 33.5269 41.25 24 41.25C14.4731 41.25 6.75 33.5269 6.75 24C6.75 14.4731 14.4731 6.75 24 6.75C33.5269 6.75 41.25 14.4731 41.25 24Z" fill="white"/>
<path d="M21.4545 28.4273C21.461 29.1514 22.0531 29.7333 22.7773 29.7273C23.125 29.7302 23.4595 29.5948 23.7074 29.351C23.9553 29.1072 24.0962 28.775 24.0991 28.4273C24.0991 27.3545 25.7818 25.9818 27.53 24.8636C29.1564 23.8273 31.4545 20.8091 31.4545 18.8182C31.4545 16.2636 31 12 23.2727 12C17.16 12 16 16.9182 16 19.2727C16.043 20.0388 16.6768 20.638 17.4441 20.638C18.2114 20.638 18.8452 20.0388 18.8882 19.2727C18.8882 18.8545 18.4127 14.7273 23.2727 14.7273C27.9045 14.7273 28.5673 15.8727 28.5673 19.1909C28.5673 19.7 26.9327 21.8636 26 22.4545C24.15 23.6364 21.4545 25.8455 21.4545 28.4273Z" fill="white"/>
<path d="M22.8182 35.1818C23.5713 35.1818 24.1818 34.5713 24.1818 33.8182C24.1818 33.0651 23.5713 32.4545 22.8182 32.4545C22.0651 32.4545 21.4545 33.0651 21.4545 33.8182C21.4545 34.5713 22.0651 35.1818 22.8182 35.1818Z" fill="white"/>
</svg>
