<svg width="36" height="36" viewBox="0 0 36 36" fill="none" xmlns="http://www.w3.org/2000/svg">
<path fill-rule="evenodd" clip-rule="evenodd" d="M5.58605 12.678L10.9351 10.791C9.83066 12.2777 8.88217 13.8741 8.10455 15.555L5.58605 12.678ZM1.87055 12.9885L6.82505 18.6495L6.10805 20.4435C5.99893 20.7158 5.97203 21.0141 6.03069 21.3015C6.08934 21.5889 6.23097 21.8528 6.43805 22.0605L6.91055 22.5315C4.35455 25.4115 2.94455 28.425 1.57655 32.526C1.48841 32.7903 1.47562 33.0739 1.53961 33.3451C1.60361 33.6162 1.74185 33.8642 1.93885 34.0612C2.13585 34.2582 2.38383 34.3964 2.65499 34.4604C2.92614 34.5244 3.20976 34.5116 3.47405 34.4235C7.57505 33.0555 10.5886 31.6455 13.4686 29.0895L13.9396 29.5605C14.1471 29.7678 14.4109 29.9097 14.6984 29.9687C14.9858 30.0276 15.2841 30.0009 15.5566 29.892L17.3506 29.175L23.0116 34.1295C23.196 34.291 23.4171 34.4048 23.6557 34.4611C23.8943 34.5173 24.1431 34.5142 24.3802 34.452C24.6173 34.3899 24.8356 34.2705 25.0159 34.1045C25.1962 33.9384 25.3331 33.7307 25.4146 33.4995L29.8936 20.8095C32.8685 17.2892 34.5005 12.829 34.5001 8.22V3C34.5001 2.60218 34.342 2.22064 34.0607 1.93934C33.7794 1.65804 33.3979 1.5 33.0001 1.5H27.7801C23.1717 1.49935 18.7121 3.1308 15.1921 6.105L2.50205 10.5855C2.27112 10.667 2.06366 10.8039 1.8978 10.9841C1.73195 11.1643 1.61274 11.3824 1.5506 11.6193C1.48845 11.8562 1.48525 12.1047 1.54129 12.3431C1.59733 12.5815 1.71089 12.8026 1.87205 12.987L1.87055 12.9885ZM5.52755 30.4725C6.46955 28.1985 7.52555 26.3895 9.03605 24.657L11.3431 26.964C9.61055 28.4745 7.80155 29.5305 5.52755 30.4725V30.4725ZM15.3616 26.7405L14.5606 25.9395L10.0606 21.4395L9.25955 20.6385L10.3246 17.976C11.3019 15.5335 12.6742 13.2683 14.3866 11.271L15.2506 10.2615C16.7998 8.45418 18.7218 7.00348 20.8845 6.00897C23.0473 5.01446 25.3996 4.49969 27.7801 4.5H31.5001V8.22C31.5004 10.6005 30.9856 12.9528 29.9911 15.1155C28.9966 17.2783 27.5459 19.2003 25.7386 20.7495L24.7291 21.6135C22.7318 23.3258 20.4666 24.6981 18.0241 25.6755L15.3616 26.7405V26.7405ZM23.3221 30.414L20.4451 27.897C22.1259 27.1194 23.7224 26.1709 25.2091 25.0665L23.3221 30.414V30.414ZM22.5001 12C22.5001 11.6022 22.6581 11.2206 22.9394 10.9393C23.2207 10.658 23.6022 10.5 24.0001 10.5C24.3979 10.5 24.7794 10.658 25.0607 10.9393C25.342 11.2206 25.5001 11.6022 25.5001 12C25.5001 12.3978 25.342 12.7794 25.0607 13.0607C24.7794 13.342 24.3979 13.5 24.0001 13.5C23.6022 13.5 23.2207 13.342 22.9394 13.0607C22.6581 12.7794 22.5001 12.3978 22.5001 12V12ZM24.0001 7.5C22.8066 7.5 21.662 7.97411 20.8181 8.81802C19.9742 9.66193 19.5001 10.8065 19.5001 12C19.5001 13.1935 19.9742 14.3381 20.8181 15.182C21.662 16.0259 22.8066 16.5 24.0001 16.5C25.1935 16.5 26.3381 16.0259 27.182 15.182C28.0259 14.3381 28.5001 13.1935 28.5001 12C28.5001 10.8065 28.0259 9.66193 27.182 8.81802C26.3381 7.97411 25.1935 7.5 24.0001 7.5Z" fill="#509DE0"/>
</svg>
