<svg width="36" height="36" viewBox="0 0 36 36" fill="none" xmlns="http://www.w3.org/2000/svg">
<path fill-rule="evenodd" clip-rule="evenodd" d="M18.6705 1.65918C18.4623 1.55514 18.2327 1.50098 18 1.50098C17.7673 1.50098 17.5377 1.55514 17.3295 1.65918L5.3295 7.65918C5.08038 7.78366 4.87083 7.97504 4.72433 8.21189C4.57782 8.44873 4.50015 8.72168 4.5 9.00018V18.0002C4.5 21.9932 5.79 25.3367 8.1045 28.0742C10.3935 30.7832 13.6275 32.8322 17.4315 34.3892C17.7958 34.5384 18.2042 34.5384 18.5685 34.3892C22.3725 32.8322 25.6065 30.7832 27.8955 28.0742C30.21 25.3367 31.5 21.9932 31.5 18.0002V9.00018C31.4999 8.72168 31.4222 8.44873 31.2757 8.21189C31.1292 7.97504 30.9196 7.78366 30.6705 7.65918L18.6705 1.65918V1.65918ZM7.5 18.0002V9.92718L18 4.67718L28.5 9.92718V18.0002C28.5 21.2897 27.4575 23.9447 25.605 26.1377C23.829 28.2377 21.258 29.9702 18 31.3727C14.742 29.9702 12.171 28.2377 10.395 26.1377C8.5425 23.9447 7.5 21.2897 7.5 18.0002ZM25.1355 14.4797C25.3844 14.1771 25.5051 13.7892 25.4717 13.3989C25.4384 13.0085 25.2536 12.6467 24.957 12.3908C24.6603 12.1349 24.2753 12.0052 23.8843 12.0295C23.4932 12.0538 23.1272 12.2301 22.8645 12.5207L16.1445 20.3102L13.05 17.2757C12.7647 17.0038 12.3838 16.8552 11.9897 16.8619C11.5957 16.8686 11.2201 17.0301 10.9442 17.3116C10.6683 17.593 10.5142 17.9717 10.5153 18.3658C10.5164 18.7599 10.6725 19.1378 10.95 19.4177L15.1845 23.5712C15.3308 23.715 15.5051 23.8272 15.6965 23.901C15.888 23.9747 16.0925 24.0084 16.2975 24C16.5025 23.9916 16.7036 23.9412 16.8883 23.8519C17.073 23.7627 17.2375 23.6365 17.3715 23.4812L25.1355 14.4812V14.4797Z" fill="#509DE0"/>
</svg>
