<svg width="112" height="32" viewBox="0 0 112 32" fill="none" xmlns="http://www.w3.org/2000/svg">
<g clip-path="url(#clip0)">
<path d="M23.7204 5.8182C23.6085 5.8182 21.2588 5.59442 21.2588 5.59442C21.2588 5.59442 19.5805 3.9161 19.3567 3.80421C19.2448 3.69232 19.2448 3.69232 19.1329 3.69232L17.7903 31.2168L27.4127 29.0909C27.4127 29.0909 24.056 6.26575 24.056 6.04197C24.056 5.93008 23.8322 5.8182 23.7204 5.8182Z" fill="#4F5C65"/>
<path fill-rule="evenodd" clip-rule="evenodd" d="M23.8322 5.81819C23.9441 5.81819 24.0559 5.93008 24.0559 6.04197C24.0559 6.26574 27.4126 29.0909 27.4126 29.0909L17.7902 31.2168L0 27.8601C0 27.8601 2.23776 10.1818 2.34965 9.62239C2.35168 9.60818 2.35367 9.5942 2.35563 9.58044C2.46183 8.83507 2.47777 8.72322 3.35664 8.5035C3.61387 8.41776 3.86379 8.33202 4.10828 8.24814C4.82093 8.00366 5.48739 7.77501 6.15385 7.6084C6.82517 5.03497 8.72727 7.689e-06 12.7552 0.111896C13.3147 0.111896 13.986 0.335672 14.4336 1.007H14.5455C16.2238 1.007 17.2308 2.46155 17.7902 4.02798C18.3496 3.8042 18.6853 3.69232 18.6853 3.69232C18.7077 3.69232 18.739 3.68784 18.7766 3.68247C18.927 3.66099 19.1776 3.62518 19.3566 3.8042C19.5804 3.91609 21.2587 5.59441 21.2587 5.59441C21.2587 5.59441 23.6084 5.81819 23.8322 5.81819ZM13.0427 1.25488C12.911 1.17885 12.8072 1.11889 12.6434 1.11889C9.73427 1.11889 8.16783 4.92308 7.38462 7.16085L9.84615 6.48952C10.5175 3.35665 11.8601 1.90211 13.2028 1.34266C13.1428 1.31268 13.0909 1.2827 13.0427 1.25488ZM14.3217 4.92308C14.3217 3.69232 14.0979 2.9091 13.8741 2.23777C12.8671 2.68532 11.7483 3.69232 11.0769 6.04197L14.3217 5.14686V4.92308ZM15.3287 4.69931L16.7832 4.25176C16.4476 3.13287 15.7762 2.12588 14.993 1.90211C15.2168 2.57343 15.3287 3.35665 15.3287 4.36364V4.69931ZM13.3147 14.7693L14.5455 11.1888C14.5455 11.1888 13.7623 10.6294 11.8602 10.7413C7.72031 10.7413 5.59444 13.5385 5.59444 16.4476C5.59444 18.393 6.68563 19.2825 7.64393 20.0637C8.39417 20.6752 9.06297 21.2204 9.06297 22.1539C9.06297 22.7133 8.7273 23.3846 7.8322 23.3846C6.48954 23.3846 4.92311 22.042 4.92311 22.042L4.13989 24.7273C4.13989 24.7273 5.70633 26.6294 8.7273 26.6294C11.3007 26.6294 13.2028 24.7273 13.2028 21.7063C13.2028 19.3891 11.6253 18.2342 10.392 17.3315C9.60066 16.7522 8.95108 16.2766 8.95108 15.6644C8.95108 15.3287 9.06297 14.2098 10.9651 14.2098C12.3077 14.2098 13.3147 14.7693 13.3147 14.7693Z" fill="#4F5C65"/>
<path d="M38.7132 17.7902C37.7062 17.2308 37.2587 16.7832 37.2587 16.2238C37.2587 15.4406 37.93 14.993 39.0489 14.993C40.2797 14.993 41.3986 15.5525 41.3986 15.5525L42.2937 12.8671C42.2937 12.8671 41.5104 12.1958 39.1608 12.1958C35.8041 12.1958 33.5664 14.0979 33.5664 16.7832C33.5664 18.3497 34.6853 19.4685 36.0279 20.2518C37.1468 20.9231 37.5944 21.3706 37.5944 22.042C37.5944 22.7133 37.0349 23.3846 35.916 23.3846C34.3496 23.3846 32.7832 22.6014 32.7832 22.6014L31.8881 25.2867C31.8881 25.2867 33.2307 26.1818 35.5804 26.1818C38.937 26.1818 41.3986 24.5035 41.3986 21.4825C41.3986 19.8042 40.1678 18.5734 38.7132 17.7902ZM52.2517 12.0839C50.5734 12.0839 49.2307 12.8671 48.2237 14.0979L49.6783 6.48952H45.8741L42.1818 25.8462H45.986L47.2167 19.2448C47.6643 16.7832 49.0069 15.2168 50.2377 15.2168C51.1328 15.2168 51.4685 15.7762 51.4685 16.6713C51.4685 17.2308 51.4685 17.7902 51.3566 18.3497L49.902 25.9581H53.7062L55.1608 18.1259C55.2727 17.3427 55.3846 16.3357 55.3846 15.6643C55.3846 13.4266 54.2657 12.0839 52.2517 12.0839ZM61.986 23.1608C60.6433 23.1608 60.1958 22.042 60.1958 20.6993C60.1958 18.5734 61.3146 14.993 63.3286 14.993C64.6713 14.993 65.1188 16.1119 65.1188 17.2308C65.1188 19.6923 64 23.1608 61.986 23.1608ZM63.8881 12.0839C59.3006 12.0839 56.2797 16.2238 56.2797 20.8112C56.2797 23.7203 58.0699 26.0699 61.5384 26.0699C66.0139 26.0699 69.0349 22.042 69.0349 17.3427C69.0349 14.6574 67.4685 12.0839 63.8881 12.0839ZM75.0769 23.2727C74.0699 23.2727 73.5104 22.7133 73.5104 22.7133L74.1818 19.1329C74.6293 16.7832 75.8601 15.2168 77.2027 15.2168C78.3216 15.2168 78.7692 16.3357 78.7692 17.3427C78.6573 19.8042 77.2027 23.2727 75.0769 23.2727ZM78.7692 12.0839C76.1958 12.0839 74.7412 14.3217 74.7412 14.3217L74.965 12.3077H71.6083C71.4965 13.6504 71.1608 15.7762 70.8251 17.3427L68.1398 31.2168H71.944L72.951 25.6224H73.0629C73.0629 25.6224 73.8461 26.0699 75.3007 26.0699C79.7762 26.0699 82.6853 21.4825 82.6853 16.8951C82.6853 14.4336 81.5664 12.0839 78.7692 12.0839ZM88.0559 6.71329C86.8251 6.71329 85.93 7.72029 85.93 8.95106C85.93 10.0699 86.6013 10.8532 87.7202 10.8532C88.951 10.8532 89.958 10.0699 89.958 8.61539C89.958 7.49651 89.1748 6.71329 88.0559 6.71329ZM82.7972 25.8462H86.6013L89.1748 12.4196H85.3706L82.7972 25.8462ZM98.7972 12.4196H96.1118L96.2237 11.7483C96.4475 10.4056 97.2307 9.28672 98.4615 9.28672C99.1328 9.28672 99.6923 9.5105 99.6923 9.5105L100.475 6.48952C100.475 6.48952 99.8041 6.15385 98.4615 6.15385C97.1188 6.15385 95.7762 6.48952 94.7692 7.38462C93.4265 8.5035 92.8671 10.0699 92.5314 11.6364L92.4195 12.3077H90.6293L90.0699 15.2168H91.8601L89.8461 25.8462H93.6503L95.6643 15.2168H98.2377L98.7972 12.4196ZM107.86 12.4196C107.86 12.4196 105.51 18.3497 104.392 21.5944C104.28 20.5874 103.496 12.4196 103.496 12.4196H99.4685L101.706 24.7273C101.706 24.9511 101.706 25.1748 101.594 25.3986C101.147 26.2937 100.364 27.0769 99.5804 27.6364C98.909 28.1958 98.0139 28.5315 97.4545 28.7553L98.4615 32C99.2447 31.8881 100.811 31.2168 102.154 29.986C103.832 28.4196 105.51 25.8462 107.077 22.4895L111.664 12.5315L107.86 12.4196Z" fill="#4F5C65"/>
</g>
<defs>
<clipPath id="clip0">
<rect width="111.888" height="32" fill="white"/>
</clipPath>
</defs>
</svg>
