<svg width="48" height="48" viewBox="0 0 48 48" fill="none" xmlns="http://www.w3.org/2000/svg">
<g clip-path="url(#clip0)">
<path fill-rule="evenodd" clip-rule="evenodd" d="M17.5635 0C14.9155 0.00195719 12.7723 2.15095 12.7743 4.79902C12.7723 7.44709 14.9174 9.59609 17.5655 9.59804H22.3567V4.80098C22.3586 2.15291 20.2136 0.00391437 17.5635 0C17.5655 0 17.5655 0 17.5635 0V0ZM17.5635 12.8H4.79095C2.14288 12.802 -0.00219598 14.9509 -0.000238792 17.599C-0.00415316 20.2471 2.14092 22.3961 4.78899 22.4H17.5635C20.2116 22.398 22.3567 20.2491 22.3547 17.601C22.3567 14.9509 20.2116 12.802 17.5635 12.8Z" fill="#36C5F0"/>
<path fill-rule="evenodd" clip-rule="evenodd" d="M47.9042 17.599C47.9061 14.9509 45.7611 12.802 43.113 12.8C40.4649 12.802 38.3198 14.9509 38.3217 17.599V22.4H43.113C45.7611 22.398 47.9061 20.2491 47.9042 17.599ZM35.1296 17.599V4.79902C35.1315 2.15291 32.9884 0.00391437 30.3403 0C27.6922 0.00195719 25.5471 2.15095 25.5491 4.79902V17.599C25.5452 20.2471 27.6903 22.3961 30.3383 22.4C32.9864 22.398 35.1315 20.2491 35.1296 17.599Z" fill="#2EB67D"/>
<path fill-rule="evenodd" clip-rule="evenodd" d="M30.3383 48C32.9864 47.998 35.1315 45.849 35.1295 43.201C35.1315 40.5529 32.9864 38.4039 30.3383 38.4019H25.5471V43.201C25.5452 45.8471 27.6902 47.9961 30.3383 48ZM30.3383 35.198H43.1129C45.7609 35.1961 47.906 33.0471 47.9041 30.399C47.908 27.7509 45.7629 25.6019 43.1148 25.598H30.3403C27.6922 25.6 25.5471 27.749 25.5491 30.397C25.5471 33.0471 27.6902 35.1961 30.3383 35.198Z" fill="#ECB22E"/>
<path fill-rule="evenodd" clip-rule="evenodd" d="M1.33825e-06 30.3989C-0.00195585 33.047 2.14313 35.196 4.79121 35.1979C7.43929 35.196 9.58437 33.047 9.58241 30.3989V25.5999H4.79121C2.14313 25.6018 -0.00195585 27.7508 1.33825e-06 30.3989ZM12.7746 30.3989V43.199C12.7707 45.8471 14.9158 47.9961 17.5638 48C20.2119 47.998 22.357 45.849 22.355 43.2009V30.4028C22.359 27.7547 20.2139 25.6057 17.5658 25.6018C14.9158 25.6018 12.7726 27.7508 12.7746 30.3989C12.7746 30.3989 12.7746 30.4009 12.7746 30.3989Z" fill="#E01E5A"/>
</g>
<defs>
<clipPath id="clip0">
<rect width="47.9041" height="48" fill="white"/>
</clipPath>
</defs>
</svg>
