<svg width="36" height="36" viewBox="0 0 36 36" fill="none" xmlns="http://www.w3.org/2000/svg">
<path fill-rule="evenodd" clip-rule="evenodd" d="M21 7.5C21 7.10218 21.158 6.72064 21.4393 6.43934C21.7206 6.15804 22.1022 6 22.5 6H28.5C28.8978 6 29.2794 6.15804 29.5607 6.43934C29.842 6.72064 30 7.10218 30 7.5V13.5C30 13.8978 29.842 14.2794 29.5607 14.5607C29.2794 14.842 28.8978 15 28.5 15C28.1022 15 27.7206 14.842 27.4393 14.5607C27.158 14.2794 27 13.8978 27 13.5V9H22.5C22.1022 9 21.7206 8.84196 21.4393 8.56066C21.158 8.27936 21 7.89782 21 7.5ZM6.4395 19.9395C6.72079 19.6583 7.10225 19.5003 7.5 19.5003C7.89775 19.5003 8.27921 19.6583 8.5605 19.9395L11.25 22.629L13.9395 19.9395C14.2224 19.6663 14.6013 19.5151 14.9946 19.5185C15.3879 19.5219 15.7641 19.6797 16.0422 19.9578C16.3203 20.2359 16.4781 20.6121 16.4815 21.0054C16.4849 21.3987 16.3337 21.7776 16.0605 22.0605L13.371 24.75L16.0605 27.4395C16.3337 27.7224 16.4849 28.1013 16.4815 28.4946C16.4781 28.8879 16.3203 29.2641 16.0422 29.5422C15.7641 29.8203 15.3879 29.9781 14.9946 29.9815C14.6013 29.9849 14.2224 29.8337 13.9395 29.5605L11.25 26.871L8.5605 29.5605C8.2776 29.8337 7.89869 29.9849 7.5054 29.9815C7.1121 29.9781 6.73588 29.8203 6.45777 29.5422C6.17966 29.2641 6.02191 28.8879 6.01849 28.4946C6.01507 28.1013 6.16626 27.7224 6.4395 27.4395L9.129 24.75L6.4395 22.0605C6.15829 21.7792 6.00032 21.3977 6.00032 21C6.00032 20.6023 6.15829 20.2208 6.4395 19.9395V19.9395ZM9 11.25C9 10.6533 9.23705 10.081 9.65901 9.65901C10.081 9.23705 10.6533 9 11.25 9C11.8467 9 12.419 9.23705 12.841 9.65901C13.2629 10.081 13.5 10.6533 13.5 11.25C13.5 11.8467 13.2629 12.419 12.841 12.841C12.419 13.2629 11.8467 13.5 11.25 13.5C10.6533 13.5 10.081 13.2629 9.65901 12.841C9.23705 12.419 9 11.8467 9 11.25V11.25ZM11.25 6C9.85761 6 8.52226 6.55312 7.53769 7.53769C6.55312 8.52226 6 9.85761 6 11.25C6 12.6424 6.55312 13.9777 7.53769 14.9623C8.52226 15.9469 9.85761 16.5 11.25 16.5C12.6424 16.5 13.9777 15.9469 14.9623 14.9623C15.9469 13.9777 16.5 12.6424 16.5 11.25C16.5 9.85761 15.9469 8.52226 14.9623 7.53769C13.9777 6.55312 12.6424 6 11.25 6V6ZM24.75 22.5C24.1533 22.5 23.581 22.7371 23.159 23.159C22.7371 23.581 22.5 24.1533 22.5 24.75C22.5 25.3467 22.7371 25.919 23.159 26.341C23.581 26.7629 24.1533 27 24.75 27C25.3467 27 25.919 26.7629 26.341 26.341C26.7629 25.919 27 25.3467 27 24.75C27 24.1533 26.7629 23.581 26.341 23.159C25.919 22.7371 25.3467 22.5 24.75 22.5ZM19.5 24.75C19.5 24.0606 19.6358 23.3779 19.8996 22.7409C20.1635 22.104 20.5502 21.5252 21.0377 21.0377C21.5252 20.5502 22.104 20.1635 22.7409 19.8996C23.3779 19.6358 24.0606 19.5 24.75 19.5C25.4394 19.5 26.1221 19.6358 26.7591 19.8996C27.396 20.1635 27.9748 20.5502 28.4623 21.0377C28.9498 21.5252 29.3365 22.104 29.6004 22.7409C29.8642 23.3779 30 24.0606 30 24.75C30 26.1424 29.4469 27.4777 28.4623 28.4623C27.4777 29.4469 26.1424 30 24.75 30C23.3576 30 22.0223 29.4469 21.0377 28.4623C20.0531 27.4777 19.5 26.1424 19.5 24.75V24.75ZM21 16.5C21.3978 16.5 21.7794 16.342 22.0607 16.0607C22.342 15.7794 22.5 15.3978 22.5 15C22.5 14.6022 22.342 14.2206 22.0607 13.9393C21.7794 13.658 21.3978 13.5 21 13.5C20.6022 13.5 20.2206 13.658 19.9393 13.9393C19.658 14.2206 19.5 14.6022 19.5 15C19.5 15.3978 19.658 15.7794 19.9393 16.0607C20.2206 16.342 20.6022 16.5 21 16.5V16.5ZM19.5 18C19.5 18.3978 19.342 18.7794 19.0607 19.0607C18.7794 19.342 18.3978 19.5 18 19.5C17.6022 19.5 17.2206 19.342 16.9393 19.0607C16.658 18.7794 16.5 18.3978 16.5 18C16.5 17.6022 16.658 17.2206 16.9393 16.9393C17.2206 16.658 17.6022 16.5 18 16.5C18.3978 16.5 18.7794 16.658 19.0607 16.9393C19.342 17.2206 19.5 17.6022 19.5 18V18ZM24 13.5C24.3978 13.5 24.7794 13.342 25.0607 13.0607C25.342 12.7794 25.5 12.3978 25.5 12C25.5 11.6022 25.342 11.2206 25.0607 10.9393C24.7794 10.658 24.3978 10.5 24 10.5C23.6022 10.5 23.2206 10.658 22.9393 10.9393C22.658 11.2206 22.5 11.6022 22.5 12C22.5 12.3978 22.658 12.7794 22.9393 13.0607C23.2206 13.342 23.6022 13.5 24 13.5V13.5Z" fill="#509DE0"/>
</svg>
