<svg width="48" height="48" viewBox="0 0 48 48" fill="none" xmlns="http://www.w3.org/2000/svg">
<path d="M43.3125 0H4.6875C2.09867 0 0 2.09867 0 4.6875V43.3125C0 45.9013 2.09867 48 4.6875 48H43.3125C45.9013 48 48 45.9013 48 43.3125V4.6875C48 2.09867 45.9013 0 43.3125 0Z" fill="#0091E6"/>
<path d="M39.51 6.23999H29.37C28.1274 6.23999 27.12 7.24735 27.12 8.48999V24.99C27.12 26.2326 28.1274 27.24 29.37 27.24H39.51C40.7526 27.24 41.76 26.2326 41.76 24.99V8.48999C41.76 7.24735 40.7526 6.23999 39.51 6.23999Z" fill="white"/>
<path d="M18.63 6.23999H8.48999C7.24735 6.23999 6.23999 7.24735 6.23999 8.48999V36.99C6.23999 38.2326 7.24735 39.24 8.48999 39.24H18.63C19.8726 39.24 20.88 38.2326 20.88 36.99V8.48999C20.88 7.24735 19.8726 6.23999 18.63 6.23999Z" fill="white"/>
</svg>
