<svg width="108" height="36" viewBox="0 0 108 36" fill="none" xmlns="http://www.w3.org/2000/svg">
<g clip-path="url(#clip0)">
<path d="M32.9715 27.9969L14.6042 35.6801C15.7041 35.8901 16.8395 36 18.0005 36C24.2427 36 29.7427 32.8226 32.9715 27.9969Z" fill="white"/>
<path d="M35.8571 20.2862L7.09204 32.3189C8.07056 33.0655 9.12788 33.7141 10.2494 34.25L35.0151 23.8903C35.4141 22.7376 35.6993 21.5317 35.8571 20.2862Z" fill="white"/>
<path d="M2.78296 27.6176C3.33797 28.4939 3.96659 29.3191 4.66013 30.0843L35.9728 16.9859C35.9145 15.9363 35.7663 14.9108 35.5358 13.9168L2.78296 27.6176Z" fill="white"/>
<path d="M18.0007 0C24.2429 -2.72857e-07 29.743 3.1775 32.9718 8.00328L14.6042 0.319973C15.7042 0.10994 16.8396 5.07535e-08 18.0007 0Z" fill="white"/>
<path d="M10.2488 1.75003C9.12737 2.28597 8.07006 2.93457 7.09155 3.68121L29.661 13.1222L33.548 11.4963L10.2488 1.75003Z" fill="white"/>
<path d="M4.66011 5.91585C3.96658 6.68104 3.33796 7.50616 2.78296 8.38251L21.8875 16.3741L25.7745 14.7482L4.66011 5.91585Z" fill="white"/>
<path d="M1.39064 11.0521C0.495341 13.1899 0.000732314 15.5372 0.000732422 18C0.00073253 20.4628 0.495357 22.8102 1.39069 24.948L18.0003 18.0001L1.39064 11.0521Z" fill="white"/>
</g>
<path d="M52.3716 29.482C52.1184 29.482 51.9342 29.436 51.8191 29.3439C51.727 29.2518 51.6119 29.0561 51.4738 28.7568L42.2536 6.79424C42.2076 6.65611 42.1846 6.55252 42.1846 6.48345C42.1846 6.16115 42.3572 6 42.7026 6H44.4982C44.7975 6 45.0047 6.05755 45.1198 6.17266C45.258 6.26475 45.3731 6.4259 45.4651 6.65611L52.9932 24.9928L60.5213 6.65611C60.6133 6.4259 60.7285 6.26475 60.8666 6.17266C61.0047 6.05755 61.2119 6 61.4882 6H63.3184C63.6637 6 63.8364 6.16115 63.8364 6.48345C63.8364 6.55252 63.8133 6.65611 63.7673 6.79424L54.5472 28.7568C54.409 29.0561 54.2824 29.2518 54.1673 29.3439C54.0752 29.436 53.891 29.482 53.6148 29.482H52.3716Z" fill="white"/>
<path d="M72.3893 30C70.6627 30 69.0857 29.7007 67.6584 29.1022C66.2311 28.5036 65.08 27.5712 64.2052 26.305C63.3534 25.0158 62.9275 23.4158 62.9275 21.505C62.9275 18.5122 63.6987 16.2446 65.2411 14.7022C66.8066 13.1597 69.0167 12.3885 71.8714 12.3885C74.703 12.3885 76.8325 13.1367 78.2598 14.6331C79.6872 16.1065 80.4008 18.305 80.4008 21.2288C80.4008 21.8504 80.1016 22.1612 79.503 22.1612H65.9318C65.9318 23.9799 66.5303 25.3612 67.7275 26.305C68.9246 27.2489 70.5821 27.7209 72.7001 27.7209C74.703 27.7209 76.4296 27.2719 77.88 26.3741C78.0181 26.305 78.1217 26.2705 78.1908 26.2705C78.3289 26.2705 78.4325 26.3511 78.5016 26.5122L79.1577 27.6518C79.2037 27.7209 79.2268 27.813 79.2268 27.9281C79.2268 28.0892 79.1347 28.2273 78.9505 28.3424C78.0296 28.918 77.0397 29.3324 75.9807 29.5856C74.9447 29.8619 73.7476 30 72.3893 30ZM77.5001 20.0547C77.5001 18.3281 77.0282 16.9928 76.0843 16.0489C75.1404 15.082 73.7361 14.5986 71.8714 14.5986C69.9606 14.5986 68.4872 15.0935 67.4512 16.0835C66.4383 17.0734 65.9318 18.3971 65.9318 20.0547H77.5001Z" fill="white"/>
<path d="M85.0147 29.482C84.3241 29.482 83.9787 29.1367 83.9787 28.446V7.03597C83.9787 6.34532 84.3241 6 85.0147 6H86.0852C86.4535 6 86.7183 6.09209 86.8794 6.27626C87.0406 6.43741 87.1212 6.69065 87.1212 7.03597V28.446C87.1212 28.7914 87.0406 29.0561 86.8794 29.2403C86.7183 29.4014 86.4535 29.482 86.0852 29.482H85.0147Z" fill="white"/>
<path d="M100.265 30C97.0415 30 94.6357 29.2748 93.0473 27.8245C91.4818 26.3511 90.699 24.1295 90.699 21.1597C90.699 19.4331 91.0329 17.9137 91.7005 16.6014C92.3911 15.2662 93.358 14.2302 94.6012 13.4935C95.8444 12.7568 97.2947 12.3885 98.9523 12.3885C101.715 12.3885 103.695 13.0331 104.892 14.3223V7.03597C104.892 6.69065 104.972 6.43741 105.134 6.27626C105.295 6.09209 105.559 6 105.928 6H106.929C107.643 6 108 6.34532 108 7.03597V27.8245C107.171 28.446 106.054 28.964 104.65 29.3784C103.246 29.7928 101.784 30 100.265 30ZM100.334 27.6173C102.267 27.6173 103.787 27.2604 104.892 26.5468V18.777C104.892 17.4647 104.408 16.4748 103.441 15.8072C102.475 15.1165 101.254 14.7712 99.7811 14.7712C97.7782 14.7712 96.2703 15.3583 95.2573 16.5324C94.2674 17.6835 93.7724 19.2835 93.7724 21.3324C93.7724 23.5655 94.3134 25.177 95.3955 26.1669C96.4775 27.1338 98.1235 27.6173 100.334 27.6173Z" fill="white"/>
<defs>
<clipPath id="clip0">
<rect width="36" height="36" fill="white" transform="translate(0 36) rotate(-90)"/>
</clipPath>
</defs>
</svg>
